<svg width="161" height="160" fill="none" xmlns="http://www.w3.org/2000/svg"><path opacity=".6" d="M143.698 63.007l.003.01c.537 1.933 1.955 3.604 3.508 5.05 1.322 1.232 2.897 2.438 4.409 3.595.283.216.564.431.84.644 1.8 1.387 3.432 2.706 4.617 4.048 1.19 1.348 1.761 2.533 1.761 3.646s-.571 2.298-1.761 3.646c-1.185 1.342-2.817 2.66-4.617 4.048-.276.213-.557.428-.84.644-1.512 1.157-3.087 2.363-4.409 3.595-1.553 1.446-2.971 3.117-3.508 5.05l-.003.01c-.533 1.97-.171 4.148.434 6.2.532 1.806 1.316 3.712 2.064 5.528l.325.792c.86 2.101 1.613 4.047 1.974 5.787.363 1.749.271 3.027-.261 3.952-.533.925-1.595 1.651-3.29 2.219-1.685.564-3.747.892-5.993 1.199-.333.046-.671.091-1.012.136-1.894.254-3.871.518-5.644.931-2.07.482-4.132 1.221-5.573 2.609-1.46 1.405-2.227 3.467-2.719 5.535-.433 1.824-.698 3.871-.95 5.825l-.111.854c-.297 2.259-.611 4.338-1.163 6.037-.557 1.71-1.274 2.773-2.192 3.301l-.008.005-.009.006c-.871.517-2.114.615-3.862.251-1.733-.361-3.686-1.116-5.798-1.975a674.21 674.21 0 01-.762-.312c-1.838-.752-3.769-1.542-5.598-2.078-2.064-.604-4.25-.966-6.221-.433l-.01.003c-1.933.537-3.604 1.955-5.05 3.508-1.232 1.322-2.438 2.897-3.595 4.409-.216.283-.431.564-.644.84-1.387 1.8-2.706 3.432-4.048 4.617-1.348 1.19-2.533 1.761-3.646 1.761s-2.298-.571-3.646-1.761c-1.342-1.185-2.66-2.817-4.048-4.617-.213-.276-.428-.557-.644-.84-1.157-1.512-2.363-3.087-3.595-4.409-1.447-1.553-3.117-2.971-5.05-3.508l-.01-.003c-1.971-.533-4.148-.171-6.2.434-1.806.532-3.712 1.317-5.528 2.064l-.792.326c-2.1.859-4.047 1.613-5.787 1.973-1.749.363-3.027.271-3.952-.261-.92-.53-1.637-1.587-2.192-3.281-.552-1.684-.865-3.746-1.162-5.995l-.113-.868c-.252-1.941-.516-3.976-.948-5.8-.491-2.074-1.254-4.138-2.689-5.579-1.405-1.452-3.462-2.217-5.525-2.708-1.824-.433-3.87-.698-5.825-.95l-.854-.111c-2.26-.297-4.338-.611-6.037-1.163-1.71-.557-2.773-1.274-3.301-2.191l-.006-.009-.005-.009c-.517-.871-.615-2.114-.25-3.862.36-1.733 1.115-3.686 1.974-5.798l.312-.763c.752-1.837 1.543-3.768 2.078-5.597.604-2.063.965-4.25.433-6.221l-.003-.01c-.537-1.933-1.955-3.604-3.508-5.05-1.322-1.232-2.897-2.438-4.41-3.595l-.84-.644c-1.8-1.387-3.431-2.706-4.617-4.048-1.19-1.348-1.76-2.533-1.76-3.646s.57-2.298 1.76-3.646c1.186-1.342 2.818-2.66 4.618-4.048.276-.213.557-.428.84-.644 1.512-1.157 3.087-2.363 4.409-3.595 1.553-1.446 2.971-3.117 3.508-5.05h0l.003-.01c.533-1.97.17-4.148-.434-6.2-.532-1.806-1.317-3.712-2.064-5.528l-.326-.792c-.859-2.1-1.613-4.047-1.973-5.787-.364-1.749-.272-3.027.26-3.952.534-.925 1.596-1.651 3.29-2.218 1.685-.565 3.748-.893 5.994-1.2.333-.046.671-.09 1.012-.136 1.894-.254 3.87-.518 5.644-.93 2.07-.483 4.132-1.222 5.573-2.61 1.46-1.405 2.227-3.467 2.719-5.535.433-1.824.698-3.87.95-5.825l.111-.854c.297-2.26.61-4.338 1.163-6.037.556-1.71 1.274-2.773 2.191-3.301l.01-.005.008-.005c.87-.518 2.114-.616 3.862-.252 1.733.361 3.686 1.116 5.798 1.976l.763.311c1.837.752 3.768 1.542 5.597 2.078 2.063.604 4.25.966 6.221.433h0l.01-.003c1.933-.537 3.604-1.955 5.05-3.508 1.232-1.322 2.438-2.897 3.595-4.409.216-.283.431-.564.644-.84 1.387-1.8 2.706-3.432 4.048-4.617C78.038 2.07 79.223 1.5 80.336 1.5s2.298.57 3.646 1.76c1.342 1.186 2.66 2.818 4.048 4.618.213.276.428.557.644.84 1.157 1.512 2.363 3.087 3.594 4.409 1.447 1.553 3.118 2.971 5.05 3.508l.01.003c1.972.533 4.148.17 6.201-.434 1.806-.532 3.712-1.317 5.528-2.064l.792-.325c2.101-.86 4.047-1.614 5.786-1.974 1.75-.363 3.028-.271 3.953.26.921.531 1.637 1.588 2.192 3.282.552 1.684.865 3.746 1.162 5.995l.113.868c.252 1.94.516 3.976.948 5.8.491 2.074 1.253 4.138 2.688 5.578 1.406 1.453 3.463 2.218 5.526 2.709 1.824.433 3.871.698 5.824.95l.855.111c2.259.297 4.338.61 6.037 1.163 1.71.557 2.773 1.274 3.301 2.191l.005.01.005.008c.518.87.616 2.114.252 3.862-.361 1.733-1.116 3.686-1.976 5.798l-.311.762c-.752 1.838-1.543 3.769-2.078 5.598-.604 2.063-.966 4.25-.433 6.221zM28.878 80c0 28.339 22.95 51.289 51.29 51.289 28.338 0 51.288-22.95 51.288-51.289 0-28.339-22.95-51.289-51.289-51.289-28.339 0-51.289 22.95-51.289 51.289z" stroke="url(#paint0_linear_431_875)" stroke-width="3"/><g opacity=".8" fill="#fff"><mask id="a"><path fill-rule="evenodd" clip-rule="evenodd" d="M111.9 71.32H98.758l-5.419-12.13-1.307-2.937h4.508c.397 0 .778.162 1.043.44L111.9 71.32zm-22.202 26.9l8.458-23.964H112.003L86.585 107.03l3.113-8.81zm-18.502 0l-8.458-23.964H48.89L74.31 107.03l-3.113-8.81zm-3.642-39.03l-5.418 12.13H48.994L63.31 56.693c.264-.28.646-.44 1.042-.44h4.508l-1.307 2.936zm12.29 54.683c.192.103.397.147.603.147.205 0 .411-.044.602-.147l2.922-8.282 11.072-31.335H65.85l11.072 31.335 2.922 8.282zm8.973-57.62l1.307 2.937 5.403 12.13h-30.16l5.403-12.13 1.307-2.937h16.74z"/></mask><path d="M107.788 71.32v1-1zm4.112 0v1h2.378l-1.664-1.7-.714.7zm-13.143 0l-.913.407.265.592h.648v-1zM93.34 59.19l-.914.407.001.001.913-.408zm-1.307-2.937v-1h-1.54l.626 1.407.914-.407zm5.55.44l-.725.689.005.006.006.005.715-.7zm.574 17.563v-1h-.708l-.235.667.943.333zM89.698 98.22l.943.333-.943-.333zm22.305-23.964l.79.613 1.251-1.613h-2.041v1zM86.585 107.03l-.943-.333 1.733.946-.79-.613zM62.738 74.256l.943-.333-.236-.667h-.707v1zm8.458 23.964l-.943.333.943-.333zM48.89 74.256v-1H46.85l1.25 1.613.79-.613zm25.418 32.774l-.79.613 1.733-.946-.943.333zM62.136 71.32v1h.648l.265-.593-.913-.408zm5.418-12.13l.913.408v-.001l-.913-.407zm-18.56 12.13l-.715-.7-1.664 1.7h2.379v-1zM63.31 56.693l.714.7.006-.006.006-.006-.726-.688zm5.55-.44l.914.406.626-1.407h-1.54v1zm10.984 57.619l-.943.333.128.364.34.184.475-.881zm1.204 0l.474.881.34-.184.129-.364-.943-.333zm2.922-8.282l-.943-.333v.001l.943.332zm11.072-31.335l.942.333.472-1.333h-1.414v1zm-29.192 0v-1h-1.414l.471 1.333.943-.333zm11.072 31.335l.943-.332v-.001l-.943.333zm13.2-46.4l-.913.406.914-.407zm-1.306-2.938l.913-.406-.264-.594h-.65v1zm6.71 15.066v1h1.54l-.626-1.407-.914.407zm-30.16 0l-.914-.407-.627 1.407h1.54v-1zM70.77 59.19l.913.407-.913-.407zm1.307-2.937v-1h-.65l-.264.594.914.406zm35.711 16.066h4.112v-2h-4.112v2zm-9.03 0h9.03v-2h-9.03v2zm-6.332-12.721l5.418 12.13 1.826-.817-5.418-12.129-1.826.816zm-1.308-2.938l1.307 2.937 1.828-.813-1.307-2.937-1.828.813zm5.422-1.407h-4.508v2h4.508v-2zm1.769.753a2.442 2.442 0 00-1.769-.753v2c.131 0 .248.056.317.129l1.452-1.376zm14.305 14.614L98.297 55.994l-1.429 1.4 14.317 14.625 1.429-1.4zm-15.401 3.303l-8.458 23.964 1.886.666 8.458-23.964-1.886-.666zm11.06-.667H98.156v2h10.117v-2zm3.73 0h-3.73v2h3.73v-2zm-24.628 34.387l25.418-32.774-1.58-1.226-25.418 32.775 1.58 1.225zm1.38-9.756l-3.113 8.81 1.886.667 3.113-8.81-1.886-.667zm-26.96-23.298l8.458 23.964 1.886-.666-8.458-23.964-1.886.666zm-9.175.667h10.118v-2H52.62v2zm-3.73 0h3.73v-2h-3.73v2zM75.1 106.418L49.68 73.643 48.1 74.87l25.418 32.774 1.58-1.225zm-4.846-7.865l3.113 8.811 1.886-.667-3.114-8.81-1.885.666zm-7.204-26.826l5.418-12.129-1.826-.816-5.418 12.13 1.826.815zm-14.055.592h13.142v-2H48.994v2zm13.602-16.325L48.279 70.62l1.43 1.399 14.316-14.626-1.429-1.399zm1.757-.74c-.661 0-1.309.267-1.768.752l1.452 1.376a.443.443 0 01.316-.129v-2zm4.508 0h-4.508v2h4.508v-2zm-.393 4.343l1.307-2.937-1.827-.813-1.307 2.937 1.827.813zm11.979 53.423a.258.258 0 01-.128-.027l-.949 1.761c.355.19.727.266 1.077.266v-2zm.127-.027a.258.258 0 01-.127.027v2c.35 0 .722-.076 1.076-.266l-.949-1.761zm2.454-7.734l-2.922 8.282 1.886.665 2.922-8.282-1.886-.665zM94.1 73.923l-11.072 31.335 1.886.667 11.072-31.336-1.886-.666zm-28.25 1.333h29.193v-2H65.85v2zm12.015 30.002L66.794 73.923l-1.886.666 11.072 31.336 1.885-.667zm2.923 8.283l-2.922-8.282-1.886.665 2.922 8.282 1.886-.665zm10.25-54.757l-1.308-2.937-1.827.813 1.307 2.937 1.827-.813zm5.403 12.128l-5.404-12.129-1.827.814 5.404 12.13 1.827-.815zM65.366 72.32h30.161v-2h-30.16v2zm4.49-13.536l-5.403 12.13 1.827.813 5.403-12.129-1.826-.814zm1.307-2.936l-1.307 2.937 1.828.813 1.307-2.937-1.828-.813zm17.654-.594h-16.74v2h16.74v-2z" mask="url(#a)"/></g><defs><linearGradient id="paint0_linear_431_875" x1=".336" y1="80" x2="160.336" y2="80" gradientUnits="userSpaceOnUse"><stop stop-color="#04E6E6"/><stop offset="1" stop-color="#009291"/></linearGradient></defs></svg>