<svg width="172" height="160" fill="none" xmlns="http://www.w3.org/2000/svg"><path opacity=".6" d="M30.638 18.376l.298-1.47-.298-.06-.299.06.299 1.47zm0 0a522.57 522.57 0 00-.3-1.47h0-.001l-.003.001-.01.002-.034.007a12.082 12.082 0 00-.528.123c-.34.084-.809.21-1.32.377a13.05 13.05 0 00-1.622.639c-.522.252-1.108.595-1.567 1.055a7.631 7.631 0 000 10.782 7.609 7.609 0 0010.77 0 7.63 7.63 0 000-10.782c-.46-.46-1.045-.803-1.568-1.055a13.048 13.048 0 00-1.621-.64 19.634 19.634 0 00-1.848-.499l-.034-.007-.01-.002h-.005v-.001l-.3 1.47zM12.295 47.502h-1.5v68.879c0 5.27 2.09 10.325 5.81 14.053a19.824 19.824 0 0014.033 5.822h55.028a4.61 4.61 0 013.262 1.354 4.63 4.63 0 010 6.543 4.61 4.61 0 01-3.262 1.354H30.638a29.043 29.043 0 01-20.556-8.53 29.154 29.154 0 01-8.516-20.596V30.626a29.154 29.154 0 018.516-20.596A29.043 29.043 0 0130.638 1.5h110.057a29.046 29.046 0 0120.556 8.53 29.155 29.155 0 018.515 20.596V79.63a4.629 4.629 0 01-1.352 3.271 4.61 4.61 0 01-6.524 0 4.633 4.633 0 01-1.352-3.271V47.502H12.295zm36.686-15.376c2.02 0 3.957-.804 5.385-2.234a7.63 7.63 0 000-10.782 7.609 7.609 0 00-10.77 0 7.631 7.631 0 000 10.782 7.609 7.609 0 005.385 2.235zm23.728-2.234a7.63 7.63 0 000-10.782 7.609 7.609 0 00-10.77 0 7.63 7.63 0 000 10.782 7.609 7.609 0 0010.77 0z" stroke="url(#paint0_linear_431_860)" stroke-width="3"/><path opacity=".8" d="M140.223 109.49c-11.744-3.34-22.595 7.48-19.24 19.169h0l4.852 16.911h0c3.257 11.363 17.578 15.061 25.969 6.702l.002-.001.712-.704.353-.349.351.35 6.539 6.514h0a4.869 4.869 0 006.87.002 4.825 4.825 0 001.423-3.418 4.827 4.827 0 00-1.421-3.419s0 0 0 0l-6.544-6.519-.356-.354.356-.355 3.845-3.824h.001m-23.712-30.705l24.064 31.059-.352-.354m-23.712-30.705v.002l16.976 4.833h0c11.416 3.246 15.123 17.509 6.736 25.87m-23.712-30.705l23.712 30.705m-62.219-58.943h0a4.866 4.866 0 00-6.866 0h6.866zm0 0l7.578 7.543m-7.578-7.543l7.578 7.543m-6.872 6.835h0a4.868 4.868 0 006.87.002 4.826 4.826 0 00.002-6.837s0 0 0 0m-6.872 6.835l7.225-7.19-.353.355m-6.872 6.835l-7.572-7.543m7.572 7.543l-7.572-7.543m0 0a4.824 4.824 0 01-1.421-3.418c0-1.281.51-2.51 1.42-3.417v6.835zm42.137-12.17a4.825 4.825 0 011.421 3.418v10.669a4.825 4.825 0 01-1.421 3.418 4.866 4.866 0 01-6.868 0 4.825 4.825 0 01-1.421-3.418v-10.67c0-1.281.511-2.51 1.421-3.417a4.868 4.868 0 016.868 0zM80.5 116.677c0-1.282.511-2.511 1.421-3.418a4.866 4.866 0 013.434-1.417h10.71c1.29 0 2.524.51 3.435 1.417a4.824 4.824 0 010 6.836 4.869 4.869 0 01-3.434 1.416h-10.71a4.869 4.869 0 01-3.435-1.416 4.826 4.826 0 01-1.421-3.418z" stroke="#fff"/><defs><linearGradient id="paint0_linear_431_860" x1=".066" y1="73.504" x2="171.266" y2="73.504" gradientUnits="userSpaceOnUse"><stop stop-color="#04E6E6"/><stop offset="1" stop-color="#009291"/></linearGradient></defs></svg>