<svg width="51" height="50" fill="none" xmlns="http://www.w3.org/2000/svg"><g opacity=".5" clip-path="url(#clip0_574_1644)" fill="#fff"><path d="M47.094 42.296h-1.593V13.798h-3.845v-1.642h4.642c.438 0 .796.37.796.82v29.32zM6.008 42.296H4.414v-29.32c0-.45.359-.82.797-.82H17.92v1.642H6.008v28.498z"/><path d="M46.288 50H5.222C2.752 50 .75 48.194.75 45.968v-3.672c0-.452.359-.82.797-.82H20.45c.438 0 .797.368.797.82v2.082h9.004v-2.082c0-.452.358-.82.797-.82h18.904c.438 0 .797.368.797.82v3.672C50.76 48.194 48.758 50 46.288 50zM2.344 43.117v2.851c0 1.313 1.294 2.39 2.878 2.39h41.066c1.584 0 2.878-1.066 2.878-2.39v-2.852h-17.31V45.2c0 .451-.359.82-.797.82H20.45a.811.811 0 01-.797-.82v-2.082H2.344zM9.672 20.917l-.129-1.631c.19-.02 18.675-1.765 26.056-18.588l1.454.677C29.284 19.09 9.872 20.896 9.673 20.917z"/><path d="M37.242 6.637l-1.384-4.585-4.442 1.436-.479-1.57L36.904 0l1.862 6.145-1.524.492zM17.922 33.853h-5.29a.811.811 0 01-.796-.82V23.87c0-.45.358-.82.797-.82h5.289c.438 0 .796.37.796.82v9.161c0 .452-.358.821-.796.821zm-4.492-1.641h3.695v-7.52H13.43v7.52zM28.398 33.853H23.11a.811.811 0 01-.797-.82v-13.88c0-.452.36-.821.797-.821h5.29c.437 0 .796.37.796.82v13.88c0 .452-.359.821-.797.821zm-4.492-1.641h3.695V19.973h-3.695v12.239zM38.36 33.853h-5.29a.811.811 0 01-.797-.82v-19.41c0-.451.359-.82.797-.82h5.29c.437 0 .796.369.796.82v19.41c0 .45-.359.82-.797.82zm-4.493-1.641h3.695V14.444h-3.695v17.768z"/></g><defs><clipPath id="clip0_574_1644"><path fill="#fff" transform="translate(.75)" d="M0 0h50v50H0z"/></clipPath></defs></svg>