<svg width="16" height="12" fill="none" xmlns="http://www.w3.org/2000/svg"><path d="M15.875 1.25c0 .316-.14.598-.352.809l-9 9a1.09 1.09 0 01-.773.316c-.316 0-.598-.105-.809-.316l-4.5-4.5a1.114 1.114 0 01-.316-.809A1.11 1.11 0 011.25 4.625c.281 0 .563.14.773.352L5.75 8.668 13.941.477c.211-.211.493-.352.809-.352.598 0 1.125.492 1.125 1.125z" fill="url(#paint0_linear_1615_2437)"/><defs><linearGradient id="paint0_linear_1615_2437" x1="-1" y1="5.5" x2="17" y2="5.5" gradientUnits="userSpaceOnUse"><stop stop-color="#04E6E6"/><stop offset="1" stop-color="#009291"/></linearGradient></defs></svg>