<svg width="20" height="21" fill="none" xmlns="http://www.w3.org/2000/svg"><path d="M2.031 12.18c.196 1.015.625 1.953 1.172 2.773a.892.892 0 01-.117 1.133l-.078.078c-.39.39-1.055.352-1.367-.117A9.58 9.58 0 01.195 12.53c-.117-.547.274-1.094.86-1.094h.117c.43 0 .781.313.86.743zm.977-7.305l.078.078a.892.892 0 01.117 1.133c-.547.82-.976 1.758-1.172 2.773-.078.43-.43.703-.86.703h-.116a.86.86 0 01-.86-1.054 9.58 9.58 0 011.446-3.516c.312-.469.976-.508 1.367-.117zM17.93 8.859c-.196-1.015-.625-1.953-1.172-2.773a.892.892 0 01.117-1.133l.078-.078c.39-.39 1.055-.352 1.367.117a9.58 9.58 0 011.446 3.516.86.86 0 01-.86 1.054h-.117a.881.881 0 01-.86-.703zm-9.61 9.61c.43.078.743.43.743.82v.156c0 .586-.547.977-1.094.86a9.58 9.58 0 01-3.516-1.446c-.469-.312-.508-.976-.117-1.367l.078-.078a.892.892 0 011.133-.117c.82.547 1.758.976 2.773 1.172zM11.992.734a9.58 9.58 0 013.516 1.446c.469.312.508.976.117 1.367l-.078.078a.892.892 0 01-1.133.117c-.82-.547-1.758-.976-2.773-1.172-.43-.078-.704-.43-.704-.86v-.155c0-.547.508-.938 1.055-.82zm-4.023 0c.547-.117 1.094.274 1.094.82v.157c0 .43-.313.781-.743.86-1.015.195-1.953.624-2.773 1.171a.892.892 0 01-1.133-.117l-.078-.078c-.39-.39-.352-1.055.117-1.367A9.58 9.58 0 017.97.734zm10.937 10.704c.586 0 .977.546.82 1.093a9.58 9.58 0 01-1.445 3.516c-.312.469-.976.508-1.367.117l-.078-.078c-.313-.313-.313-.781-.078-1.133a7.567 7.567 0 001.133-2.773c.078-.43.43-.742.859-.742h.156zm-3.36 5.976l.079.078c.39.39.352 1.055-.117 1.367a9.58 9.58 0 01-3.516 1.446.86.86 0 01-1.055-.86v-.117c0-.43.274-.781.704-.86 1.015-.195 1.953-.624 2.773-1.171a.892.892 0 011.133.117z" fill="url(#paint0_linear_932_839)"/><defs><linearGradient id="paint0_linear_932_839" x1=".175" y1="10.52" x2="19.787" y2="10.52" gradientUnits="userSpaceOnUse"><stop stop-color="#04E6E6"/><stop offset="1" stop-color="#009291"/></linearGradient></defs></svg>