<svg width="27" height="21" fill="none" xmlns="http://www.w3.org/2000/svg"><path d="M15.375 9.25c.313 0 .625.313.625.625l-.04 8.75c0 1.016-.82 1.875-1.835 1.875h-8.75A1.851 1.851 0 013.5 18.625v-8.75a.6.6 0 01.586-.586c.351 0 .625.274.625.586v4.375h10V9.875c0-.313.312-.625.664-.625zm-.625 9.375V15.5h-10v3.125c0 .352.273.625.625.625h8.75a.642.642 0 00.625-.625zm8.125-9.375c.313 0 .625.313.625.625l-.04 10a.617.617 0 01-.624.625c-.313 0-.586-.273-.586-.625v-10c0-.313.273-.625.625-.625zm2.813-3.828c.351.508.39 1.172.078 1.719-.274.546-.82.859-1.446.859H2.64c-.624 0-1.171-.313-1.445-.86a1.608 1.608 0 01.078-1.718l2.774-4.18C4.359.812 4.867.5 5.414.5h16.133c.547 0 1.055.313 1.367.742l2.773 4.18zM24.32 6.75c.313 0 .508-.352.352-.625l-2.774-4.18a.466.466 0 00-.351-.195H5.414a.466.466 0 00-.351.195l-2.774 4.18c-.156.273.04.625.352.625h21.68z" fill="url(#paint0_linear_610_2824)"/><defs><linearGradient id="paint0_linear_610_2824" x1="1" y1="10" x2="26" y2="10" gradientUnits="userSpaceOnUse"><stop stop-color="#04E6E6"/><stop offset="1" stop-color="#009291"/></linearGradient></defs></svg>