<svg width="78" height="56" fill="none" xmlns="http://www.w3.org/2000/svg"><path opacity=".5" fill-rule="evenodd" clip-rule="evenodd" d="M71.993 30.129l5.632 5.454c.145.14.145.366.002.508a.375.375 0 01-.523 0l-4.82-4.668a11.895 11.895 0 011.19 5.168v2.805a.364.364 0 01-.371.358.364.364 0 01-.37-.358V36.59a11.23 11.23 0 00-1.568-5.713c-1.79 1.234-4.286 1.086-5.892-.47a4.334 4.334 0 01-.963-4.893 12.279 12.279 0 00-3.554-.521H48.139l12.204 18.72a.35.35 0 01-.052.444l-8.72 8.444v3.04a.364.364 0 01-.37.358h-9.59a.364.364 0 01-.37-.359v-3.04l-8.721-8.443a.35.35 0 01-.052-.444l12.203-18.72h-26.97c-5.488 0-10.16-3.39-11.938-8.117a.556.556 0 00-.036.004v7.712a.364.364 0 01-.37.359.364.364 0 01-.371-.359v-7.712C2.63 16.696.77 14.806.77 12.477c0-2.33 1.86-4.22 4.215-4.406V.359c0-.2.165-.359.37-.359s.37.16.37.359V8.07c.063.005.125.01.187.018C7.797 3.57 12.367.367 17.702.367h10.85c.204 0 .37.16.37.36a.364.364 0 01-.37.358h-10.85c-4.977 0-9.253 2.957-11.058 7.15 1.902.542 3.298 2.226 3.298 4.242 0 2.065-1.464 3.786-3.436 4.282 1.71 4.385 6.076 7.517 11.196 7.517h43.052c1.36 0 2.67.214 3.901.599.097-.146.214-.28.332-.414l.049-.055-5.632-5.453a.35.35 0 010-.507.378.378 0 01.524 0l5.631 5.453c1.802-1.482 4.496-1.42 6.198.228 1.702 1.649 1.766 4.258.236 6.002zM50.728 55.283h.102V52.81h-8.849 8.747v2.472zm-8.964-3.188h9.282l8.511-8.242L48.031 26.17v.166L59.45 43.853l-8.512 8.242h-9.175zm2.908-25.76V38.69c-.896.543-1.443 1.483-1.443 2.506 0 1.638 1.376 2.971 3.069 2.971h.052c-1.666-.029-3.013-1.35-3.013-2.971 0-1.023.547-1.963 1.443-2.506V26.17l-.108.166zm4.062 14.86c0-.83-.477-1.589-1.247-1.984a.355.355 0 01-.196-.315V24.994H45.52v13.9a.356.356 0 01-.197.317c-.77.395-1.246 1.155-1.246 1.984 0 1.243 1.044 2.255 2.329 2.255 1.283 0 2.328-1.012 2.328-2.255z" fill="#fff"/></svg>