<svg width="51" height="60" fill="none" xmlns="http://www.w3.org/2000/svg"><g opacity=".5" fill="#fff"><path fill-rule="evenodd" clip-rule="evenodd" d="M33.891 3.143c4.776 2.738 8.154 7.164 9.552 12.465 1.398 5.3.641 10.833-2.096 15.55-.117.234-.35.292-.583.175-.233-.116-.291-.35-.175-.582 2.68-4.543 3.379-9.843 2.039-14.91A19.461 19.461 0 0033.484 3.9C28.94 1.22 23.64.523 18.574 1.862a19.46 19.46 0 00-11.94 9.144c-2.68 4.543-3.379 9.843-2.04 14.91a19.46 19.46 0 009.145 11.94c.233.117.291.35.175.583-.058.175-.175.233-.35.233-.116 0-.174 0-.232-.058C8.555 35.876 5.177 31.45 3.78 26.15a20.437 20.437 0 012.096-15.551C8.614 5.823 13.04 2.445 18.34 1.047a20.437 20.437 0 0115.551 2.096zM.941 4.206c.116-.174.407-.174.582 0l.873.874c.175.117.175.408 0 .582a.445.445 0 01-.29.117.445.445 0 01-.292-.117L.94 4.79c-.175-.117-.175-.408 0-.583zM3.792 7.06c.117-.174.408-.174.583 0l.873.874c.175.117.175.408 0 .582a.445.445 0 01-.29.117.445.445 0 01-.292-.117l-.874-.873c-.175-.117-.175-.408 0-.583zm-2.038 0l-.874.874c-.175.175-.175.466 0 .582a.445.445 0 00.291.117.445.445 0 00.291-.117l.874-.873c.175-.175.175-.466 0-.583-.116-.174-.408-.174-.582 0zm2.038-1.98l.874-.874c.175-.174.408-.174.582 0 .175.117.175.408 0 .583l-.873.873a.445.445 0 01-.292.117.445.445 0 01-.29-.117c-.175-.116-.175-.407 0-.582zm18.334 10.819V13.51c0-.233.233-.466.408-.408.233 0 .408.175.408.408v2.388a.398.398 0 01-.408.407.398.398 0 01-.408-.407zm-3.613 2.097a.444.444 0 00.291-.117c.175-.175.175-.466 0-.582l-1.689-1.69c-.174-.174-.465-.174-.582 0-.175.175-.175.466 0 .583l1.69 1.689a.444.444 0 00.29.116zM35.408 30.4a2.585 2.585 0 012.562 2.563v5.067c0 .05.007.19.018.402v.002c.064 1.292.258 5.218-.192 7.168-.525 2.097-1.107 3.145-1.69 4.077-.058.087-.116.19-.174.291a5.092 5.092 0 01-.175.291c-.524.932-.582 2.505-.582 2.505v.116c.35.408.582.99.524 1.573-.026.28-.04.527-.053.75v.002c-.017.286-.03.533-.064.762-.011.208-.023.395-.034.575v.002c-.045.727-.082 1.332-.082 2.685a.398.398 0 01-.408.408.398.398 0 01-.407-.408c0-1.379.038-2.02.084-2.78l.032-.54c.033-.229.047-.476.064-.762.013-.224.027-.471.052-.752.059-.408-.058-.758-.29-.99-.117-.117-.35-.292-.641-.292H20.963c-.291 0-.524.175-.64.292a1.61 1.61 0 00-.292.931c.02.544.046 1.088.072 1.631.051 1.088.103 2.175.103 3.262a.398.398 0 01-.408.408.398.398 0 01-.407-.408c0-1.573-.059-3.203-.175-4.834-.058-.583.116-1.165.524-1.573a.567.567 0 00.146-.116c.043-.044.087-.088.145-.117V51.37c0-1.281-.582-2.446-1.63-3.145a6.191 6.191 0 01-2.621-4.66V37.45a2.585 2.585 0 012.562-2.563c.641 0 1.223.233 1.69.64V21.142a2.586 2.586 0 012.562-2.563 2.585 2.585 0 012.563 2.563v7.047c.407-.408 1.048-.64 1.689-.64 1.165 0 2.097.757 2.446 1.747.466-.525 1.107-.816 1.864-.816a2.585 2.585 0 012.563 2.563c.407-.408 1.048-.64 1.689-.64zm0 18.813c.582-.932 1.106-1.864 1.572-3.844.466-2.039-.119-6.64-.233-7.28v-5.126a1.69 1.69 0 00-3.378 0V38.032a.398.398 0 01-.408.407.398.398 0 01-.407-.408v-6.989a1.69 1.69 0 00-3.378 0v5.65a.398.398 0 01-.408.407.398.398 0 01-.408-.407V30.11a1.69 1.69 0 00-3.378 0V36.983a.398.398 0 01-.408.408.398.398 0 01-.407-.408V21.14a1.69 1.69 0 00-3.379 0v15.843c0 .029-.014.058-.029.087a.207.207 0 00-.029.088c.058.058.058.174.058.29v3.32a.398.398 0 01-.407.408.398.398 0 01-.408-.407v-3.262a1.69 1.69 0 00-3.378 0v5.707c0 1.748.815 3.38 2.271 4.37a4.773 4.773 0 011.98 3.843v.932H33.953c.174 0 .29 0 .465.058.059-.582.175-1.747.641-2.562.058-.117.117-.219.175-.32.058-.103.116-.204.175-.321zM14.032 21.607c0-.233.175-.408.408-.408h2.388c.233 0 .408.175.408.408a.398.398 0 01-.408.407H14.44a.398.398 0 01-.408-.407zm14.616-6c-.175-.174-.466-.174-.583 0l-1.689 1.631c-.175.175-.175.466 0 .583a.445.445 0 00.291.116.445.445 0 00.292-.116l1.689-1.69c.175-.116.175-.407 0-.524zm2.1 6.466h-2.389c-.233 0-.466-.175-.408-.408 0-.233.175-.408.408-.408h2.388c.233 0 .408.175.408.408a.398.398 0 01-.408.408zm16.728-6.975a.444.444 0 01-.291-.117l-.874-.873c-.174-.117-.174-.408 0-.583.117-.174.408-.174.583 0l.873.874c.175.117.175.408 0 .582a.444.444 0 01-.29.117zm2.853 2.854a.445.445 0 01-.291-.117l-.874-.873c-.174-.117-.174-.408 0-.583.117-.174.408-.174.583 0l.873.874c.175.116.175.408 0 .582a.445.445 0 01-.29.117zm-3.727 0a.445.445 0 00.292-.117l.873-.873c.175-.175.175-.466 0-.583-.174-.174-.466-.174-.582 0l-.874.874c-.174.175-.174.466 0 .582a.445.445 0 00.291.117zm3.145-2.97a.445.445 0 01-.291.116.445.445 0 01-.292-.117c-.174-.116-.174-.407 0-.582l.874-.874c.117-.174.408-.174.582 0 .175.117.175.408 0 .583l-.873.873zM39.97 33.327c-.174-.175-.466-.175-.582 0-.175.175-.175.466 0 .583l.873.873a.444.444 0 00.292.117.444.444 0 00.29-.117c.176-.174.176-.466 0-.582l-.873-.874zm2.853 2.912c-.174-.174-.466-.174-.582 0-.175.175-.175.466 0 .583l.873.873a.445.445 0 00.292.117.445.445 0 00.29-.117c.176-.174.176-.465 0-.582l-.873-.874zm-3.494.874l.873-.874c.175-.174.466-.174.583 0 .174.117.174.408 0 .583l-.874.873a.444.444 0 01-.291.117.444.444 0 01-.291-.117c-.175-.116-.175-.407 0-.582zm3.785-3.786l-.873.874c-.175.175-.175.466 0 .582a.444.444 0 00.291.117.444.444 0 00.291-.117l.874-.873c.175-.175.175-.466 0-.583-.175-.175-.408-.175-.583 0zM32.028 6.405c-3.844-2.271-8.387-2.854-12.697-1.747-4.31 1.165-7.921 3.902-10.193 7.746-2.271 3.844-2.853 8.387-1.747 12.697 1.165 4.31 3.902 7.921 7.746 10.193.059.058.117.058.233.058.175 0 .292-.058.35-.233.116-.233.058-.466-.175-.582a16.022 16.022 0 01-7.397-9.669c-1.106-4.077-.524-8.387 1.631-12.056a16.021 16.021 0 019.669-7.397c4.077-1.107 8.387-.524 12.056 1.63a16.022 16.022 0 017.397 9.67c1.106 4.076.524 8.386-1.63 12.056-.117.233-.06.466.174.582.233.116.466.058.582-.175 2.272-3.844 2.854-8.387 1.748-12.697-1.107-4.193-3.903-7.804-7.747-10.076zm2.793 20.968c-.116.233-.407.29-.582.174-.233-.116-.291-.407-.233-.64 1.63-2.796 2.038-6.058 1.223-9.203a12.006 12.006 0 00-5.591-7.338c-2.796-1.631-6.058-2.039-9.203-1.224a12.006 12.006 0 00-7.338 5.592c-1.631 2.796-2.039 6.057-1.224 9.202a12.005 12.005 0 005.592 7.339c.233.117.291.35.175.583-.059.174-.175.232-.35.232-.116 0-.175 0-.233-.058-2.97-1.747-5.125-4.543-5.999-7.863-.874-3.378-.408-6.872 1.34-9.843 1.747-2.97 4.543-5.125 7.92-5.999 3.379-.874 6.873-.408 9.844 1.34 2.97 1.747 5.125 4.543 5.999 7.863.874 3.378.408 6.872-1.34 9.843z"/><path d="M43.443 15.608l-.241.063.241-.063zM33.891 3.143l-.125.217h.001l.124-.217zm7.456 28.016l-.217-.126-.004.007-.003.007.224.112zm-.758-.408l-.215-.127-.004.007-.004.008.223.112zm2.039-14.91l-.242.064.242-.064zM33.484 3.9l-.127.215.002.001.125-.216zm-14.91-2.039l-.065-.242.064.242zm-11.94 9.144l.215.127.001-.002-.217-.125zm-2.04 14.91l.243-.063-.242.064zm9.145 11.94l-.125.217.007.004.006.003.112-.223zm.175.583l-.224-.112-.008.016-.005.017.237.08zm-.582.175l.176-.177-.023-.023-.03-.017-.123.217zM5.875 10.599l.217.125v-.001l-.217-.124zM18.34 1.047l-.063-.242.063.242zM1.523 4.207l.176-.177-.176.176zm-.583 0l.177.176.017-.017.014-.021-.208-.139zm1.456.873l-.176.177.017.017.02.014.14-.208zm0 .582l-.176-.176.176.176zm-.582 0l.177-.176-.177.176zM.94 4.79l.177-.177-.018-.017-.02-.014-.139.208zM4.376 7.06l.176-.176-.176.176zm-.583 0l.177.177.018-.017L4 7.2l-.208-.14zm1.456.874l-.176.177.017.017.02.014.14-.208zm-.582.582l.177-.176-.177.176zm-.874-.873l.177-.177-.018-.017-.02-.014-.139.208zm-2.912.291l-.177-.177.177.177zm.874-.874l-.177-.176.177.176zM.88 8.516l.177-.176-.018-.018-.02-.014-.139.208zm.582 0l-.176-.176.176.176zm.874-.873l-.177-.177.177.177zm0-.583l-.208.14.028.04.041.028.14-.208zm2.33-2.854L4.49 4.03l.177.176zm-.874.874l.177.177-.177-.177zm1.456-.874l-.176.177.017.018.02.013.14-.208zm0 .583l.177.177-.177-.177zm-.873.873l-.177-.176.177.176zm-.583 0l.177-.176-.018-.018-.02-.014-.139.208zm18.742 7.441l-.08.237.04.013h.04v-.25zm-3.73 4.194l-.176.176.017.018.02.014.14-.208zm-1.689-1.69l-.176.177.176-.177zm-.582 0l.177.177.017-.017.014-.02-.208-.14zm0 .583l.177-.177-.018-.017-.02-.014-.139.208zm21.454 22.243l-.25.012.25-.012zm0 .002l-.25.013v.01l.25-.023zm0 0l.25-.012-.001-.01-.25.022zm-.192 7.168l.242.06.001-.004-.243-.056zm-1.69 4.077l.209.139.004-.007-.212-.132zm-.174.291l-.217-.124.217.124zm-.175.291l-.208-.138-.005.008-.005.008.218.122zm-.582 2.505l-.25-.01v.01h.25zm0 .116h-.25v.093l.06.07.19-.163zm.524 1.573l-.249-.025v.002l.249.023zm-.053.75l.25.017v-.002l-.25-.015zm0 0l-.25-.016v.003l.25.014zm0 .002l-.25-.014v.014h.25zm0 0l.25.014v-.014h-.25zm-.064.762l-.247-.035-.002.01v.011l.25.014zm-.034.575l.25.016-.25-.016zm0 0l-.25-.016v.002l.25.014zm0 .002l.25.015-.25-.015zm0 0l-.25-.015.25.015zm-.813-.094l.25.015v-.015h-.25zm0 0l-.25-.014v.014h.25zm0 0l-.25-.016v.002l.25.013zm.032-.541l-.248-.035-.001.01v.011l.249.014zm.064-.762l.25.014v-.014h-.25zm0 0l-.25-.014v.014h.25zm0 0l-.249-.028v.007l-.001.007.25.014zm0 0l.248.027.002-.014v-.014h-.25zm0 0l-.25-.015v.014h.25zm.052-.752l-.247-.036-.002.013.25.023zm-14.56-.99l-.177-.177-.013.012-.01.015.2.15zm-.292.931h-.25v.01l.25-.01zm.072 1.631l-.25.012.25-.012zm0 0l.25-.011v-.001l-.25.012zm-.887-1.572l.25-.018-.001-.007-.25.025zm.524-1.573l-.112-.224-.036.019-.029.028.177.177zm.146-.116l.177.176-.177-.176zm.145-.117l.112.224.138-.07v-.154h-.25zm-1.63-4.368l-.143.206.004.002.139-.208zm-2.621-4.66h-.25v.016l.25-.016zm4.251-8.037l-.164.188.414.363v-.551h-.25zm5.126-7.339h-.25v.604l.427-.427-.177-.177zm4.135 1.107l-.236.083.141.4.282-.317-.187-.166zm4.427 1.747h-.25v.604l.426-.427-.176-.177zM36.98 45.37l.244.057v-.001l-.244-.056zm-1.572 3.844l-.212-.133-.007.01-.005.011.224.112zm1.34-11.124h-.25v.021l.003.022.246-.044zm-16.018-.932h-.25v.103l.073.073.177-.176zm-1.864 10.425l.146-.203-.005-.004-.14.207zm1.98 4.776h-.25v.25h.25v-.25zm13.571.058l-.078.238.296.099.031-.312-.248-.025zm.641-2.562l.218.124.006-.012-.224-.112zm.175-.32l.217.123-.217-.124zm-7.168-33.927l.174.18.02-.02.014-.022-.208-.139zm.583 0l-.177.176.017.018.021.014.139-.209zm-2.272 1.63l-.173-.18-.003.004.176.176zm0 .583l.177-.177-.018-.017-.02-.014-.139.208zm.583 0l-.177-.177.177.177zm1.689-1.69l-.139-.207-.02.013-.018.018.177.177zm-.697 5.534l.243.06.008-.03v-.03h-.25zm19.234-6.684l-.177.177.177-.177zm-.874-.873l.177-.177-.017-.017-.021-.014-.139.208zm0-.583l.177.177.018-.017.013-.021-.208-.139zm.583 0l-.177.177.177-.177zm.873.874l-.176.177.017.017.02.014.14-.208zm0 .582l-.176-.176.176.176zm1.397 1.98l.177-.176-.017-.018-.021-.013-.139.208zm0-.582l.177.177.018-.017.013-.021-.208-.139zm.583 0l.176-.176-.176.176zm.873.874l-.176.177.017.017.02.014.14-.208zm0 .582l.177.177-.177-.177zm-2.853-.873l-.176-.177.176.177zm0-.583l-.176.177.017.018.02.013.14-.208zm-.582 0l.177.177.017-.017.014-.02-.208-.14zm-.874.874l-.176-.177.176.177zm0 .582l.177-.176-.017-.018-.021-.013-.139.207zm3.436-2.854l.176.177-.176-.177zm-.583 0l.177-.176-.017-.018-.021-.014-.139.208zm0-.582l.177.177-.177-.177zm.874-.874l.177.177.017-.017.014-.021-.208-.139zm.582 0l-.176.177.017.018.02.013.14-.208zm0 .583l.177.177-.177-.177zM39.39 33.328l.176.177.018-.018.014-.02-.208-.139zm0 .583l.176-.177-.017-.018-.02-.013-.14.208zm.873.873l.177-.176-.177.176zm.583 0l-.177-.176.177.176zm0-.582l-.177.177.018.017.02.014.139-.208zm1.397 2.038l.177.177.017-.017.014-.02-.208-.14zm0 .583l.177-.177-.018-.017-.02-.014-.14.208zm1.456.873l-.177-.176.177.176zm0-.582l-.177.177.018.017.02.014.139-.208zm-3.495-.874l-.177-.176.177.176zm-.873.874l-.177-.177.177.177zm1.456-.874l-.208.14.027.04.042.028.139-.208zm0 .583l-.177-.177.177.177zm-.874.873l-.177-.176.177.176zm-.582 0l.176-.176-.017-.018-.02-.014-.14.209zm2.912-3.494l-.177-.177.177.177zm.873-.874l-.176-.177.176.177zm-.873 1.456l.177-.176-.018-.018-.02-.014-.14.208zm.582 0l-.177-.176.177.176zm.874-.873l-.177-.177.177.177zm0-.583l-.177.177.018.017.02.014.139-.208zM19.33 4.658l-.062-.242h-.003l.065.242zm12.697 1.747l-.127.215.127-.215zm-22.89 6l-.215-.128.215.127zM7.391 25.1l-.242.062v.003l.242-.065zm7.746 10.193l.177-.177-.022-.022-.027-.016-.128.215zm.583-.175l-.224-.112-.008.016-.005.017.237.08zm-.175-.582l-.126.215.007.005.007.003.112-.223zm-7.397-9.669l-.241.066.241-.066zM9.78 12.812l-.215-.127.215.127zm9.669-7.397l-.066-.241.066.24zm12.056 1.63l-.127.216.127-.215zm7.397 9.67l-.241.065.24-.066zM37.27 28.77l-.217-.127-.004.007-.003.008.223.112zm.756.407l-.215-.127-.004.008-.004.008.223.111zm1.748-12.697l.242-.062v-.002l-.242.064zm-5.536 11.066l.139-.208-.013-.008-.014-.007-.112.223zm.582-.174l-.215-.127-.004.007-.004.008.223.112zm-.815-.466l-.216-.126-.018.03-.008.035.242.06zm1.223-9.203l.242-.062v-.002l-.242.064zm-5.591-7.338l-.126.216.126-.216zm-9.203-1.224l-.063-.242.063.242zm-7.338 5.592l-.216-.126.216.126zm-1.224 9.202l-.242.063V24l.242-.064zm5.592 7.339l-.126.216.007.004.007.004.112-.224zm.175.583l-.224-.112-.008.016-.006.016.238.08zm-.583.174l.177-.177-.023-.022-.027-.016-.127.215zm-5.999-7.863l-.242.063.242-.063zm1.34-9.843l.215.127-.215-.127zm7.92-5.999l.063.242-.062-.242zm9.844 1.34l-.127.215.127-.215zm5.999 7.863l.242-.063v-.001l-.242.064zm7.524-1.986c-1.415-5.365-4.835-9.847-9.67-12.617l-.248.433c4.718 2.704 8.054 7.076 9.435 12.311l.483-.127zm-2.122 15.74a20.687 20.687 0 002.122-15.74l-.483.127a20.187 20.187 0 01-2.072 15.362l.433.251zm-.91.273c.16.08.341.11.515.06a.65.65 0 00.402-.347l-.447-.223c-.03.061-.066.082-.093.09-.03.008-.082.009-.154-.027l-.224.447zm-.287-.918a.712.712 0 00-.06.515.65.65 0 00.346.403l.224-.447c-.061-.031-.082-.066-.09-.093-.008-.03-.01-.082.027-.154l-.447-.224zm2.02-14.734c1.323 5.003.633 10.234-2.012 14.719l.43.254c2.714-4.601 3.422-9.97 2.066-15.101l-.484.128zM33.36 4.117a19.211 19.211 0 019.027 11.788l.484-.128a19.711 19.711 0 00-9.261-12.093l-.25.433zM18.637 2.104C23.641.78 28.872 1.47 33.357 4.116l.254-.43C29.009.971 23.64.263 18.51 1.62l.127.484zM6.85 11.13a19.21 19.21 0 0111.787-9.027l-.128-.484a19.71 19.71 0 00-12.092 9.261l.433.25zM4.837 25.853c-1.323-5.004-.633-10.235 2.012-14.72l-.43-.254c-2.715 4.602-3.422 9.97-2.066 15.102l.484-.128zm9.027 11.787a19.21 19.21 0 01-9.027-11.787l-.484.128a19.71 19.71 0 009.261 12.092l.25-.433zm.273.91c.08-.16.11-.34.06-.514a.65.65 0 00-.346-.403l-.224.447c.062.031.083.066.09.093.009.03.01.082-.027.154l.447.224zm-.573.372a.651.651 0 00.351-.089.57.57 0 00.236-.315l-.474-.158a.154.154 0 01-.02.042.022.022 0 01-.007.007c-.003.002-.023.013-.086.013v.5zm-.41-.131c.144.143.314.131.41.131v-.5a1.707 1.707 0 01-.089-.002.078.078 0 01.033.017l-.353.354zM3.539 26.213c1.415 5.365 4.835 9.847 9.67 12.618l.248-.434c-4.718-2.704-8.054-7.075-9.435-12.311l-.483.127zm2.122-15.74a20.687 20.687 0 00-2.122 15.74l.483-.127a20.187 20.187 0 012.072-15.362l-.433-.25zM18.277.805C12.912 2.22 8.43 5.64 5.659 10.475l.434.248c2.704-4.718 7.075-8.054 12.311-9.435l-.127-.483zm15.74 2.122A20.687 20.687 0 0018.277.805l.127.483A20.187 20.187 0 0133.766 3.36l.25-.433zM1.699 4.03a.698.698 0 00-.49-.205.565.565 0 00-.477.243l.416.277c.002-.002.016-.02.062-.02.045 0 .097.02.136.058l.353-.353zm.874.873L1.7 4.03l-.353.353.874.874.353-.354zm0 .936a.698.698 0 00.204-.49.565.565 0 00-.242-.477l-.277.416c.002.002.02.015.02.061a.198.198 0 01-.058.137l.353.353zm-.468.19a.693.693 0 00.468-.19l-.353-.353h-.001l-.003.003a.213.213 0 01-.11.04v.5zm-.468-.19c.102.102.281.19.468.19v-.5a.212.212 0 01-.114-.042v-.001l-.354.353zm-.874-.873l.874.873.354-.353-.874-.874-.354.354zm0-.936a.698.698 0 00-.204.49c0 .172.07.362.243.477l.277-.416c-.003-.002-.02-.016-.02-.062 0-.045.02-.097.058-.136L.763 4.03zm3.79 2.854a.698.698 0 00-.49-.205.565.565 0 00-.478.243l.416.277c.002-.002.016-.02.062-.02.045 0 .097.02.136.058l.353-.353zm.873.873l-.874-.873-.353.353.874.874.353-.354zm0 .936a.698.698 0 00.204-.49.565.565 0 00-.242-.477l-.277.416c.002.002.02.015.02.061a.198.198 0 01-.058.137l.353.353zm-.468.19a.693.693 0 00.468-.19l-.353-.353h-.001l-.003.003a.214.214 0 01-.11.04v.5zm-.468-.19c.102.102.281.19.468.19v-.5a.213.213 0 01-.114-.042V8.34l-.354.353zm-.874-.873l.874.873.354-.353-.874-.874-.354.354zm0-.936a.698.698 0 00-.204.49c0 .172.07.362.243.477l.277-.416c-.002-.002-.02-.016-.02-.062 0-.045.02-.097.058-.136l-.354-.353zM1.058 8.11l.873-.874-.353-.353-.874.873.354.354zm-.038.197c-.003-.001-.02-.015-.02-.06 0-.046.019-.098.058-.137l-.354-.354a.698.698 0 00-.204.49c0 .172.07.363.242.478l.278-.417zm.152.075a.213.213 0 01-.114-.042V8.34l-.354.353c.102.102.281.19.468.19v-.5zm.115-.043h-.001l-.003.003a.213.213 0 01-.11.04v.5a.693.693 0 00.467-.19l-.353-.353zm.873-.874l-.873.874.353.353.874-.873-.354-.354zm.038-.198c.003.002.02.016.02.062a.198.198 0 01-.058.136l.354.354a.698.698 0 00.204-.49.565.565 0 00-.242-.478l-.278.416zm-.267-.03a.198.198 0 01.137-.059c.046 0 .06.018.061.02l.416-.277a.565.565 0 00-.477-.243.698.698 0 00-.49.205l.353.353zm2.56-3.208l-.875.873.354.354.874-.874-.354-.353zm.935 0a.661.661 0 00-.468-.205.661.661 0 00-.468.205l.354.353c.047-.047.087-.058.114-.058.027 0 .067.011.115.058l.353-.353zm0 .936a.698.698 0 00.204-.49.565.565 0 00-.242-.478l-.277.416c.002.002.02.016.02.062a.198.198 0 01-.058.136l.353.354zm-.874.873l.874-.873-.353-.354-.874.874.353.353zm-.468.19a.693.693 0 00.468-.19L4.2 5.486h-.001l-.003.003a.213.213 0 01-.11.04v.5zm-.468-.19c.102.102.281.19.468.19v-.5a.212.212 0 01-.114-.042v-.001l-.354.353zm0-.936a.698.698 0 00-.204.49c0 .172.07.363.243.477l.277-.416c-.002-.001-.02-.015-.02-.06 0-.046.02-.098.058-.137l-.354-.354zm18.261 8.608v2.388h.5V13.51h-.5zm.737-.645c-.219-.073-.416.046-.525.155a.71.71 0 00-.212.49h.5a.213.213 0 01.108-.167c.006-.002-.007.004-.03-.004l.159-.474zm.579.645a.648.648 0 00-.658-.658v.5c.095 0 .158.063.158.158h.5zm0 2.388V13.51h-.5v2.388h.5zm-.658.657a.648.648 0 00.658-.657h-.5c0 .095-.063.157-.158.157v.5zm-.658-.657c0 .37.287.657.658.657v-.5c-.095 0-.158-.062-.158-.157h-.5zm-3.248 1.803l-.001.001-.003.002a.203.203 0 01-.11.04v.5a.693.693 0 00.467-.19l-.353-.353zm.038-.197c.002.001.02.015.02.061a.197.197 0 01-.058.136l.353.354a.698.698 0 00.205-.49.565.565 0 00-.243-.477l-.277.416zm-1.727-1.72l1.689 1.688.353-.353-1.689-1.69-.353.354zm-.198-.039c.002-.002.015-.02.061-.02s.098.02.137.058l.353-.353a.698.698 0 00-.49-.204.565.565 0 00-.477.242l.416.277zm-.07.236c-.002-.002-.019-.015-.019-.061s.019-.098.058-.137l-.354-.353a.698.698 0 00-.204.49c0 .172.07.362.242.477l.278-.416zm1.728 1.72l-1.69-1.689-.353.354 1.69 1.689.353-.354zm.114.043a.209.209 0 01-.11-.04c-.002 0-.003-.001-.003-.002H18.4l-.354.353c.102.102.281.19.468.19v-.5zm19.706 15.22c0-1.537-1.276-2.814-2.812-2.814v.5a2.336 2.336 0 012.312 2.313h.5zm0 5.066v-5.067h-.5v5.067h.5zm.017.39a14.59 14.59 0 01-.017-.39h-.5c0 .058.008.208.018.414l.5-.025zm0 .001v-.002l-.499.026v.002l.5-.026zm0-.01l-.498.046.498-.046zm-.198 7.247c.232-1.006.296-2.5.295-3.887 0-1.393-.065-2.703-.096-3.35l-.5.025c.032.646.096 1.945.096 3.325 0 1.387-.064 2.83-.282 3.775l.487.112zm-1.72 4.154c.593-.95 1.187-2.023 1.72-4.15l-.486-.12c-.517 2.066-1.087 3.09-1.658 4.005l.424.264zm-.17.282a4.86 4.86 0 01.166-.276l-.416-.278c-.064.096-.127.206-.184.306l.434.248zm-.184.306c.064-.096.127-.206.184-.306l-.434-.248a4.92 4.92 0 01-.166.277l.416.277zm-.79 2.366l.25.01v-.001-.003a.847.847 0 01.003-.06c.002-.044.007-.107.013-.185.013-.158.036-.377.075-.625.08-.502.22-1.092.459-1.518l-.436-.245c-.285.506-.435 1.168-.517 1.685a9.414 9.414 0 00-.097.927v.005l.25.01zm.25.116v-.116h-.5v.116h.5zm.523 1.598c.066-.662-.198-1.31-.584-1.76l-.38.325c.314.365.516.882.466 1.385l.498.05zm-.052.74c.013-.224.027-.467.052-.742l-.498-.046c-.026.285-.04.536-.053.759l.499.029zm0 .002l-.5-.033.5.033zm0-.002l-.5-.028.5.029zm0-.013h-.5.5zm0 0h-.5.5zm-.066.798c.034-.242.05-.5.066-.784l-.5-.029a9.12 9.12 0 01-.061.742l.495.07zm-.032.554l.034-.576-.5-.028c-.01.207-.022.394-.033.573l.499.031zm0 .002l-.5-.034v.001l.5.033zm0 0v-.001l-.5-.03.5.03zm0 0l-.5-.03.5.03zm-.082 2.67c0-1.346.037-1.946.082-2.67l-.5-.03c-.044.73-.082 1.34-.082 2.7h.5zm-.658.658a.648.648 0 00.658-.658h-.5c0 .095-.063.158-.158.158v.5zm-.657-.658c0 .371.286.658.657.658v-.5c-.095 0-.157-.063-.157-.158h-.5zm.085-2.794a38.932 38.932 0 00-.085 2.794h.5c0-1.372.038-2.008.084-2.764l-.5-.03zm0 .015h.5-.5zm0-.014l.499.027-.5-.027zm.031-.54c-.01.191-.021.367-.031.538l.499.03.032-.541-.5-.028zm.064-.764c-.017.29-.03.525-.062.742l.495.07c.035-.24.05-.5.066-.783l-.499-.029zm0 .015h.5-.5zm0-.014l.5.027-.5-.027zm.001-.014l.497.055-.497-.055zm-.001.027h.5-.5zm.053-.774c-.026.285-.04.536-.053.76l.5.029c.012-.224.026-.467.051-.744l-.497-.045zm-.218-.79c.17.17.269.438.22.777l.495.071c.068-.476-.067-.907-.362-1.202l-.353.353zm-.464-.219c.194 0 .366.121.464.218l.353-.353c-.136-.136-.429-.365-.817-.365v.5zm-12.989 0h12.989v-.5H20.963v.5zm-.464.218c.098-.097.27-.218.464-.218v-.5c-.388 0-.681.23-.817.365l.353.353zm-.218.755c0-.3.102-.596.242-.781l-.4-.3a1.86 1.86 0 00-.342 1.081h.5zm.071 1.62c-.026-.544-.052-1.087-.07-1.629l-.5.018c.019.546.045 1.09.07 1.634l.5-.024zm0-.001l-.5.025.5-.025zm.104 3.274c0-1.094-.052-2.187-.104-3.273l-.5.023c.053 1.089.104 2.17.104 3.25h.5zm-.658.658a.648.648 0 00.658-.658h-.5c0 .095-.063.158-.158.158v.5zm-.657-.658c0 .371.286.658.657.658v-.5c-.095 0-.157-.063-.157-.158h-.5zm-.174-4.816c.116 1.625.174 3.25.174 4.816h.5c0-1.579-.059-3.215-.176-4.852l-.498.035zm.596-1.768c-.468.468-.66 1.129-.596 1.775l.498-.05c-.052-.52.105-1.024.452-1.371l-.354-.354zm.146-.116a.356.356 0 01-.08.07l.223.447c.1-.05.17-.124.21-.164l-.353-.353zm.21-.163c-.1.05-.17.123-.21.163l.354.353a.356.356 0 01.08-.07l-.224-.447zm-.138-1v1.223h.5V51.37h-.5zm-1.52-2.937c.974.649 1.52 1.733 1.52 2.937h.5c0-1.358-.619-2.604-1.742-3.353l-.277.416zm-2.73-4.852a6.44 6.44 0 002.727 4.85l.285-.412a5.94 5.94 0 01-2.514-4.47l-.499.032zm-.001-.132v.116h.5v-.116h-.5zm0-.291v.29h.5v-.29h-.5zm0-5.592v5.592h.5v-5.592h-.5zm0-.116v.116h.5v-.116h-.5zm2.812-2.813c-1.536 0-2.812 1.277-2.812 2.813h.5a2.336 2.336 0 012.312-2.313v-.5zm1.854.703a2.788 2.788 0 00-1.854-.703v.5c.578 0 1.102.21 1.525.579l.329-.376zm-.415-14.198v14.386h.5V21.14h-.5zm2.813-2.813c-1.536 0-2.813 1.277-2.813 2.813h.5a2.336 2.336 0 012.313-2.313v-.5zm2.813 2.813c0-1.536-1.277-2.813-2.813-2.813v.5a2.336 2.336 0 012.313 2.313h.5zm0 7.047v-7.047h-.5v7.047h.5zm1.439-.89c-.694 0-1.403.25-1.866.713l.354.354c.352-.353.925-.568 1.512-.568v-.5zm2.682 1.914c-.382-1.082-1.402-1.915-2.682-1.915v.5c1.05 0 1.893.682 2.21 1.58l.472-.165zm1.628-.983c-.826 0-1.536.32-2.05.9l.373.332c.417-.47.989-.732 1.677-.732v-.5zm2.813 2.813c0-1.536-1.277-2.813-2.813-2.813v.5a2.336 2.336 0 012.313 2.313h.5zm1.439-.89c-.695 0-1.403.25-1.866.713l.353.354c.353-.353.925-.568 1.513-.568v-.5zm1.329 15.16c-.458 1.949-.97 2.855-1.541 3.77l.424.264c.593-.949 1.13-1.906 1.604-3.919l-.487-.114zm-.236-7.179c.055.31.229 1.61.33 3.09.103 1.488.13 3.113-.095 4.091l.488.112c.242-1.06.209-2.755.107-4.238-.103-1.49-.279-2.81-.338-3.142l-.492.087zm-.004-.102v.059h.5v-.059h-.5zm0-5.067v5.067h.5v-5.067h-.5zm-1.439-1.439c.794 0 1.44.645 1.44 1.44h.5c0-1.07-.87-1.94-1.94-1.94v.5zm-1.439 1.44c0-.795.645-1.44 1.44-1.44v-.5c-1.07 0-1.94.87-1.94 1.94h.5zm0 3.727v-3.728h-.5v3.728h.5zm0 1.34v-1.34h-.5v1.34h.5zm-.658.657a.648.648 0 00.658-.658h-.5c0 .095-.063.158-.158.158v.5zm-.657-.658c0 .371.286.658.657.658v-.5c-.094 0-.157-.063-.157-.158h-.5zm0-1.34v1.34h.5v-1.34h-.5zm0-3.727v3.728h.5v-3.728h-.5zm0-1.922v1.922h.5v-1.922h-.5zm-1.44-1.439c.794 0 1.44.645 1.44 1.439h.5a1.94 1.94 0 00-1.94-1.939v.5zm-1.438 1.439a1.44 1.44 0 011.439-1.439v-.5a1.94 1.94 0 00-1.94 1.939h.5zm0 3.902v-3.902h-.5v3.902h.5zm0 1.748v-1.748h-.5v1.748h.5zm-.658.657a.648.648 0 00.658-.657h-.5c0 .095-.063.157-.158.157v.5zm-.658-.657c0 .37.287.657.658.657v-.5c-.095 0-.158-.062-.158-.157h-.5zm0-1.748v1.748h.5v-1.748h-.5zm0-3.902v3.902h.5v-3.902h-.5zm0-.932v.932h.5v-.932h-.5zm-1.439-1.439c.794 0 1.44.645 1.44 1.44h.5a1.94 1.94 0 00-1.94-1.94v.5zm-1.439 1.44a1.44 1.44 0 011.44-1.44v-.5c-1.07 0-1.94.87-1.94 1.94h.5zm0 4.833V30.11h-.5v4.834h.5zm0 2.039v-2.039h-.5v2.039h.5zm-.658.658a.648.648 0 00.658-.658h-.5c0 .095-.063.158-.158.158v.5zm-.657-.658c0 .37.286.658.657.658v-.5c-.095 0-.157-.063-.157-.158h-.5zm0-2.039v2.039h.5v-2.039h-.5zm0-4.834v4.834h.5V30.11h-.5zm0-8.97v8.97h.5v-8.97h-.5zm-1.44-1.438a1.44 1.44 0 011.44 1.439h.5a1.94 1.94 0 00-1.94-1.94v.5zm-1.439 1.439a1.44 1.44 0 011.44-1.44v-.5c-1.07 0-1.94.87-1.94 1.94h.5zm0 15.842V21.14h-.5v15.842h.5zm-.055.199c.007-.015.055-.1.055-.2h-.5a.146.146 0 01.007-.043l-.001.003a.49.49 0 01-.008.016l.447.224zm-.003-.024a.146.146 0 01-.003.031l-.003.013.001-.004a.587.587 0 01.008-.016l-.447-.224c-.008.015-.056.1-.056.2h.5zm.058.29c0-.053.001-.13-.01-.202a.459.459 0 00-.121-.265l-.354.353a.101.101 0 01-.022-.032l.003.015a2.36 2.36 0 01.005.132h.5zm0 3.32v-3.32h-.5v3.32h.5zm-.657.658a.648.648 0 00.657-.657h-.5c0 .095-.062.157-.157.157v.5zm-.658-.657c0 .37.287.657.658.657v-.5c-.095 0-.158-.062-.158-.157h-.5zm0-3.262v3.262h.5v-3.262h-.5zm-1.439-1.439c.794 0 1.44.645 1.44 1.44h.5c0-1.07-.87-1.94-1.94-1.94v.5zm-1.439 1.44c0-.795.645-1.44 1.439-1.44v-.5a1.94 1.94 0 00-1.939 1.94h.5zm0 .116v-.117h-.5v.117h.5zm0 5.59v-5.59h-.5v5.59h.5zm2.162 4.163c-1.384-.942-2.162-2.493-2.162-4.162h-.5c0 1.826.853 3.536 2.38 4.575l.282-.413zm2.09 4.05a5.023 5.023 0 00-2.085-4.047l-.29.407a4.523 4.523 0 011.875 3.64h.5zm0 .932v-.932h-.5v.932h.5zm-.134-.25h-.116v.5h.116v-.5zm12.989 0H20.963v.5h12.989v-.5zm0 0v.5-.5zm.545.071c-.216-.072-.368-.07-.545-.07v.5c.172 0 .253 0 .387.045l.158-.475zm.344-2.45c-.497.87-.615 2.092-.672 2.663l.497.05c.06-.595.174-1.703.61-2.464l-.435-.248zm.175-.32c-.058.102-.12.21-.181.333l.447.224c.055-.11.11-.206.168-.309l-.434-.248zm.168-.308c-.055.11-.11.206-.168.308l.434.248c.058-.101.12-.209.181-.332l-.447-.224zM14.44 20.95a.648.648 0 00-.658.658h.5c0-.095.063-.158.158-.158v-.5zm2.388 0H14.44v.5h2.388v-.5zm.658.658a.648.648 0 00-.658-.658v.5c.095 0 .158.063.158.158h.5zm-.658.657a.648.648 0 00.658-.657h-.5c0 .095-.063.157-.158.157v.5zm-2.388 0h2.388v-.5H14.44v.5zm-.658-.657c0 .37.287.657.658.657v-.5c-.095 0-.158-.063-.158-.157h-.5zm14.491-5.86c.002-.003.016-.02.062-.02.045 0 .097.018.136.057l.354-.353a.698.698 0 00-.49-.204.565.565 0 00-.478.242l.416.277zm-1.723 1.671l1.689-1.63-.347-.36-1.69 1.63.348.36zm-.035.195c-.003-.002-.02-.016-.02-.062 0-.045.02-.097.058-.136l-.354-.353a.697.697 0 00-.204.49c0 .172.07.362.243.477l.277-.416zm.152.074a.185.185 0 01-.069-.016.228.228 0 01-.041-.024c-.002 0-.002-.002-.003-.002l-.001-.001-.354.354c.102.101.281.19.468.19v-.5zm.115-.043l-.004.003a.222.222 0 01-.11.04v.5a.694.694 0 00.468-.19l-.354-.353zm1.689-1.69l-1.69 1.69.355.354 1.689-1.69-.354-.353zm.038-.139c.005.004.02.019.02.055 0 .035-.015.05-.02.054l.277.416a.56.56 0 00.243-.47.56.56 0 00-.243-.47l-.277.415zm-.15 6.508h2.388v-.5H28.36v.5zm-.65-.719a.538.538 0 00.169.537c.13.118.307.182.481.182v-.5a.226.226 0 01-.145-.052.073.073 0 01-.02-.027c-.001-.003-.003-.008 0-.018l-.485-.122zm.65-.597a.648.648 0 00-.658.658h.5c0-.095.063-.158.158-.158v-.5zm2.388 0H28.36v.5h2.388v-.5zm.658.658a.648.648 0 00-.658-.658v.5c.095 0 .158.063.158.158h.5zm-.658.658a.648.648 0 00.658-.658h-.5c0 .095-.063.158-.158.158v.5zm16.261-7.165c.102.102.281.19.468.19v-.5a.209.209 0 01-.11-.04l-.003-.003h-.001l-.354.353zm-.873-.873l.873.873.354-.353-.874-.874-.353.354zm0-.936a.698.698 0 00-.205.49c0 .172.07.362.243.477l.277-.416c-.002-.002-.02-.016-.02-.062 0-.045.02-.097.058-.136l-.353-.353zm.936 0a.697.697 0 00-.49-.205.565.565 0 00-.478.243l.416.277c.002-.002.016-.02.062-.02.045 0 .097.02.136.058l.354-.353zm.873.873l-.873-.873-.354.353.874.874.353-.354zm0 .936a.698.698 0 00.204-.49.565.565 0 00-.242-.477l-.277.416c.002.002.02.015.02.061a.198.198 0 01-.058.137l.353.353zm-.468.19a.693.693 0 00.468-.19l-.353-.353h-.001l-.003.003a.2.2 0 01-.042.024.182.182 0 01-.069.016v.5zm2.385 2.664c.102.102.281.19.468.19v-.5a.217.217 0 01-.11-.04l-.003-.002-.001-.001-.354.353zm-.873-.873l.873.873.354-.353-.874-.874-.353.354zm0-.936a.697.697 0 00-.205.49c0 .172.07.362.243.477l.277-.416c-.002-.002-.02-.016-.02-.062 0-.045.02-.097.058-.136l-.353-.353zm.935 0a.697.697 0 00-.49-.205.565.565 0 00-.477.243l.416.277c.002-.002.016-.02.062-.02.045 0 .097.02.136.058l.353-.353zm.874.873l-.873-.873-.354.353.874.874.353-.354zm0 .936a.697.697 0 00.205-.49.565.565 0 00-.243-.477l-.277.416c.002.002.02.015.02.061a.198.198 0 01-.058.137l.353.353zm-.468.19a.693.693 0 00.468-.19l-.353-.353h-.001l-.003.003a.217.217 0 01-.11.04v.5zm-3.612-.543l-.004.003a.217.217 0 01-.11.04v.5a.693.693 0 00.468-.19l-.354-.353zm.874-.874l-.874.874.354.353.873-.873-.353-.354zm.038-.198c.002.002.02.016.02.062a.197.197 0 01-.058.136l.353.354a.698.698 0 00.204-.49.565.565 0 00-.242-.478l-.277.416zm-.236-.069c.002-.002.015-.02.061-.02s.098.02.137.058l.353-.353a.698.698 0 00-.49-.205.565.565 0 00-.477.243l.416.277zm-.905.912l.874-.874-.354-.353-.873.873.353.354zm-.038.198c-.002-.002-.02-.016-.02-.062 0-.045.02-.097.058-.136l-.353-.354a.698.698 0 00-.205.49c0 .172.07.363.243.478l.277-.416zm.152.074a.212.212 0 01-.11-.04l-.003-.002v-.001l-.354.353c.102.102.28.19.468.19v-.5zm2.854-2.354a.693.693 0 00.467-.19l-.353-.353-.004.003a.209.209 0 01-.11.04v.5zm-.468-.19c.102.102.28.19.468.19v-.5a.209.209 0 01-.11-.04l-.004-.003-.354.353zm0-.936a.698.698 0 00-.205.49c0 .172.07.363.243.478l.277-.417c-.002-.001-.02-.015-.02-.06 0-.046.02-.098.058-.137l-.353-.354zm.873-.873l-.873.873.353.354.874-.874-.354-.353zm.936 0a.697.697 0 00-.49-.205.565.565 0 00-.477.243l.416.277c.002-.002.015-.02.061-.02s.098.02.137.058l.353-.353zm0 .936a.698.698 0 00.205-.49.565.565 0 00-.243-.478l-.277.416c.002.002.02.016.02.062a.198.198 0 01-.058.136l.353.354zm-.873.873l.873-.873-.353-.354-.874.874.353.353zM39.596 33.467c.001-.002.015-.02.061-.02.045 0 .097.02.136.058l.354-.354a.698.698 0 00-.49-.204.565.565 0 00-.477.243l.416.277zm-.07.236c-.002-.002-.02-.016-.02-.062 0-.045.02-.097.059-.136l-.354-.354a.697.697 0 00-.204.49c0 .173.07.363.242.478l.277-.416zm.912.905l-.873-.874-.354.353.874.874.353-.353zm.115.043a.207.207 0 01-.11-.04l-.004-.003-.354.353c.102.102.28.19.468.19v-.5zm.114-.043l-.004.003a.209.209 0 01-.11.04v.5a.693.693 0 00.468-.19l-.354-.353zm.038-.198c.002.002.02.015.02.061a.198.198 0 01-.058.137l.354.353a.697.697 0 00.204-.49.565.565 0 00-.242-.477l-.278.416zm-.912-.905l.874.874.354-.354-.874-.873-.354.353zm2.656 2.874c.001-.002.015-.02.061-.02.045 0 .098.02.136.058l.354-.353a.698.698 0 00-.49-.205.565.565 0 00-.477.243l.416.277zm-.07.236c-.002-.002-.02-.016-.02-.062 0-.045.02-.097.059-.136l-.354-.353a.698.698 0 00-.204.49c0 .172.07.362.242.477l.277-.416zm.912.905l-.873-.874-.354.354.874.873.353-.353zm.115.043a.209.209 0 01-.11-.04l-.004-.002v-.001l-.354.353c.102.102.28.19.468.19v-.5zm.114-.043l-.004.003a.209.209 0 01-.11.04v.5a.693.693 0 00.468-.19l-.354-.353zm.038-.198c.003.002.02.015.02.061a.197.197 0 01-.058.137l.354.353a.697.697 0 00.204-.49.565.565 0 00-.242-.477l-.278.416zm-.912-.905l.874.874.354-.354-.874-.873-.354.353zm-2.62-.353l-.874.873.353.354.874-.874-.354-.353zm.967.038a.565.565 0 00-.478-.243.698.698 0 00-.49.205l.354.353a.198.198 0 01.136-.058c.046 0 .06.018.062.02l.416-.277zm-.032.898a.698.698 0 00.205-.49.565.565 0 00-.243-.478l-.277.416c.002.002.02.016.02.062a.198.198 0 01-.058.136l.353.354zm-.873.873l.873-.873-.353-.354-.874.874.354.353zm-.468.19a.693.693 0 00.468-.19l-.354-.353-.003.003a.209.209 0 01-.11.04v.5zm-.468-.19c.102.102.28.19.468.19v-.5a.203.203 0 01-.11-.04l-.004-.002v-.001l-.354.353zm0-.936a.698.698 0 00-.204.49c0 .172.07.363.242.477l.277-.416c-.002-.001-.02-.015-.02-.06 0-.046.02-.098.058-.137l-.353-.354zm3.266-2.558l.873-.874-.353-.354-.874.874.354.354zm-.039.197c-.002-.001-.02-.015-.02-.061 0-.045.02-.098.059-.136l-.354-.354a.698.698 0 00-.204.49c0 .172.07.362.242.477l.277-.416zm.153.075a.209.209 0 01-.11-.04l-.004-.003-.354.353c.102.102.28.19.468.19v-.5zm.114-.043l-.003.003a.203.203 0 01-.11.04v.5a.693.693 0 00.467-.19l-.354-.353zm.874-.874l-.874.874.354.353.874-.873-.354-.354zm.038-.198c.003.002.02.016.02.062a.198.198 0 01-.058.136l.354.353a.698.698 0 00.204-.49.565.565 0 00-.242-.477l-.278.416zm-.267-.031c.047-.047.088-.058.115-.058.026 0 .067.01.114.058l.354-.354a.66.66 0 00-.468-.204.661.661 0 00-.468.204l.353.354zM19.393 4.9c4.248-1.09 8.723-.516 12.508 1.72l.254-.43c-3.903-2.307-8.514-2.897-12.886-1.774l.124.484zM9.353 12.53C11.593 8.744 15.15 6.047 19.397 4.9l-.13-.483c-4.373 1.182-8.038 3.96-10.343 7.861l.43.254zM7.634 25.04c-1.09-4.248-.516-8.723 1.72-12.508l-.43-.254C6.617 16.18 6.027 20.792 7.15 25.163l.484-.124zm7.632 10.04c-3.788-2.239-6.485-5.796-7.633-10.043l-.482.13c1.182 4.373 3.96 8.038 7.86 10.343l.255-.43zm.105.023h-.067a.266.266 0 01-.022-.002.078.078 0 01.033.017l-.353.354c.143.143.313.131.41.131v-.5zm.113-.062a.154.154 0 01-.02.042.023.023 0 01-.007.007c-.003.002-.023.013-.085.013v.5a.651.651 0 00.35-.089.57.57 0 00.236-.315l-.474-.158zm-.05-.28c.062.031.083.066.09.093.009.03.01.082-.027.154l.448.224c.08-.16.11-.342.06-.515a.65.65 0 00-.347-.403l-.224.447zm-7.526-9.826a16.272 16.272 0 007.512 9.818l.253-.43a15.772 15.772 0 01-7.282-9.52l-.483.132zm1.657-12.249c-2.19 3.727-2.781 8.106-1.657 12.249l.483-.131C7.3 20.79 7.873 16.55 9.995 12.938l-.431-.253zm9.818-7.511a16.271 16.271 0 00-9.818 7.511l.43.253a15.772 15.772 0 019.519-7.282l-.13-.482zM31.631 6.83c-3.727-2.189-8.107-2.78-12.249-1.656l.131.482c4.012-1.089 8.253-.516 11.864 1.605l.254-.43zm7.511 9.819a16.272 16.272 0 00-7.511-9.819l-.254.431a15.771 15.771 0 017.283 9.519l.482-.131zm-1.656 12.248c2.189-3.727 2.78-8.106 1.656-12.248l-.482.13c1.089 4.012.516 8.253-1.605 11.865l.43.253zm.07.232c-.06-.03-.082-.066-.09-.092-.008-.03-.008-.082.028-.155l-.447-.223a.712.712 0 00-.061.515.65.65 0 00.347.403l.224-.448zm.248-.063c-.031.062-.066.083-.093.09-.03.009-.082.01-.154-.027l-.224.448c.16.08.342.11.515.06a.65.65 0 00.403-.347l-.447-.223zm1.728-12.523c1.091 4.249.517 8.723-1.72 12.508l.43.255c2.307-3.904 2.897-8.515 1.775-12.887l-.485.124zM31.901 6.62c3.79 2.24 6.543 5.798 7.632 9.925l.483-.128c-1.124-4.26-3.963-7.924-7.86-10.227l-.255.43zm2.2 21.136c.3.2.76.096.944-.271l-.447-.224a.17.17 0 01-.11.089.14.14 0 01-.11-.01l-.278.416zm-.337-.91c-.073.29-.02.734.363.925l.224-.447c-.083-.042-.147-.18-.102-.357l-.486-.12zm1.223-9.079c.8 3.084.4 6.277-1.197 9.014l.432.252c1.665-2.855 2.08-6.185 1.25-9.391l-.485.125zm-5.475-7.185a11.756 11.756 0 015.475 7.186l.484-.128a12.256 12.256 0 00-5.707-7.49l-.252.431zm-9.014-1.198c3.084-.799 6.277-.399 9.014 1.197l.252-.431c-2.855-1.666-6.185-2.08-9.392-1.25l.126.484zm-7.186 5.476A11.756 11.756 0 0120.5 9.384l-.128-.483a12.256 12.256 0 00-7.49 5.707l.431.252zm-1.197 9.014c-.8-3.084-.399-6.278 1.197-9.014l-.431-.252c-1.666 2.855-2.08 6.185-1.25 9.391l.484-.125zm5.476 7.185a11.756 11.756 0 01-5.476-7.187l-.483.128a12.256 12.256 0 005.707 7.491l.252-.432zm.272.91c.08-.16.11-.341.06-.515a.65.65 0 00-.346-.403l-.224.448c.061.03.082.066.09.092.008.03.01.082-.027.155l.447.223zm-.573.371a.651.651 0 00.351-.089.57.57 0 00.236-.314l-.475-.159a.158.158 0 01-.02.043.025.025 0 01-.006.006c-.003.002-.023.013-.086.013v.5zm-.41-.131c.143.143.314.131.41.131v-.5h-.067a.262.262 0 01-.022-.002c.001 0 .008.002.018.007.01.005.014.01.015.01l-.354.354zm-6.064-7.976c.891 3.385 3.089 6.235 6.114 8.015l.254-.431c-2.915-1.715-5.028-4.457-5.884-7.711l-.484.127zm1.366-10.034c-1.782 3.03-2.256 6.592-1.366 10.033l.484-.125c-.857-3.316-.4-6.742 1.313-9.654l-.43-.254zm8.074-6.114c-3.444.89-6.294 3.088-8.074 6.114l.431.254c1.715-2.915 4.456-5.027 7.768-5.884l-.125-.484zM30.29 9.451c-3.03-1.782-6.592-2.256-10.033-1.366l.125.484c3.316-.857 6.742-.4 9.654 1.313l.254-.43zm6.114 8.015c-.891-3.385-3.088-6.235-6.114-8.015l-.254.431c2.915 1.715 5.028 4.457 5.884 7.711l.484-.127zM35.037 27.5c1.782-3.03 2.256-6.592 1.366-10.033l-.484.125c.858 3.316.4 6.742-1.313 9.654l.43.254z"/></g></svg>