<svg width="160" height="160" fill="none" xmlns="http://www.w3.org/2000/svg"><path opacity=".8" d="M63.518 100.851v.001a9.167 9.167 0 00-2.685 6.481 4.166 4.166 0 11-8.333 0 17.5 17.5 0 0117.5-17.5h20a17.5 17.5 0 0117.5 17.5 4.166 4.166 0 11-8.333 0A9.169 9.169 0 0090 98.167H70a9.17 9.17 0 00-6.482 2.684zM66.5 66c0-7.456 6.044-13.5 13.5-13.5S93.5 58.544 93.5 66v4.667c0 7.456-6.044 13.5-13.5 13.5s-13.5-6.044-13.5-13.5V66z" stroke="#fff"/><path opacity=".6" d="M75.786 11.663v-1.629l-1.624.134c-34.044 2.809-61.185 29.95-63.994 63.994l-.134 1.624h7.109a4.214 4.214 0 010 8.428h-7.109l.134 1.624c2.809 34.044 29.95 61.185 63.994 63.993l1.624.134V142.857a4.214 4.214 0 018.428 0V149.965l1.624-.134c34.044-2.808 61.185-29.949 63.993-63.993l.134-1.624H142.857a4.214 4.214 0 010-8.428H149.965l-.134-1.624c-2.808-34.044-29.949-61.185-63.993-63.994l-1.624-.134v7.109a4.214 4.214 0 01-8.428 0v-5.48zM1.5 80C1.5 36.646 36.646 1.5 80 1.5s78.5 35.146 78.5 78.5-35.146 78.5-78.5 78.5S1.5 123.354 1.5 80z" stroke="url(#paint0_linear_431_868)" stroke-width="3"/><defs><linearGradient id="paint0_linear_431_868" x1="0" y1="80" x2="160" y2="80" gradientUnits="userSpaceOnUse"><stop stop-color="#04E6E6"/><stop offset="1" stop-color="#009291"/></linearGradient></defs></svg>