<svg width="53" height="74" fill="none" xmlns="http://www.w3.org/2000/svg"><g opacity=".5" stroke="#fff" stroke-width="1.51" stroke-miterlimit="10" stroke-linecap="round" stroke-linejoin="round"><path d="M37.75 68.088c-1.026 1.531-.872 4.45-1 5M43.573 23.708c1.034 2.32 2.27 6.236 2.068 7.602-.188 1.283-1.114 2.714-.497 4.146.605 1.382 3.304 5.1 5.533 8.128 2.686 3.67-.403 4.08-1.316 4.509-.644.296-1.746 1.349-.43 3.307s-1.087 3.274-1.087 3.274c1.007.51 2.135 2.617.201 3.768-1.142.691-1.598 1.695-1.142 3.34.538 1.926.551 2.847.363 3.57-.738 2.897-4.74 2.946-6.365 2.716-3.962-.56-13.161-1.498-14.706-10.975M8.702 73.088c3.725-14.75-3.478-18.198-6.099-27.628-1.071-3.87-1.104-7.356-.264-10.372M18.736 29.532l-4.368 2.788c-2.792 1.793-6.465.823-8.156-2.149-1.68-2.972-.777-6.865 2.027-8.646l4.368-2.787 6.13 10.794zM19.33 28.765c7.305-4.464 18.344-2.622 18.344-2.622l-1.977-3.342-4.84-8.16-6.816-11.5S20.469 13.91 13.164 18.372"/><path d="M18.238 29.879l1.567 7.449a2.136 2.136 0 01-1.672 2.53 2.148 2.148 0 01-2.546-1.66l-1.306-6.204M28.762 11.451c1.74-1.023 4.003-.463 5.047 1.23 1.045 1.704.473 3.92-1.255 4.943M38.79 10.939l4.455-3.342M30.992 6.483l1.114-5.57M44.36 19.852l-5.57-1.114M23.19 13.168c-1.2 1.913-2.685 3.899-4.456 5.57"/></g></svg>