<svg width="21" height="15" fill="none" xmlns="http://www.w3.org/2000/svg"><path d="M18 0c1.367 0 2.5 1.133 2.5 2.5v10c0 1.406-1.133 2.5-2.5 2.5H3a2.468 2.468 0 01-2.5-2.5v-10C.5 1.133 1.594 0 3 0h15zM3 1.25c-.703 0-1.25.586-1.25 1.25v1.406l7.617 5.742a1.818 1.818 0 002.227 0l7.656-5.703V2.5c0-.664-.586-1.25-1.25-1.25H3zM19.25 12.5V5.469l-6.875 5.156c-.586.43-1.25.664-1.875.664a3.052 3.052 0 01-1.875-.664L1.75 5.469V12.5c0 .703.547 1.25 1.25 1.25h15c.664 0 1.25-.547 1.25-1.25z" fill="url(#paint0_linear_610_2816)"/><defs><linearGradient id="paint0_linear_610_2816" x1=".5" y1="7" x2="20.5" y2="7" gradientUnits="userSpaceOnUse"><stop stop-color="#04E6E6"/><stop offset="1" stop-color="#009291"/></linearGradient></defs></svg>