<svg width="26" height="21" fill="none" xmlns="http://www.w3.org/2000/svg"><path d="M23 5.5c1.367 0 2.5 1.133 2.5 2.5v7.54c0 1.366-1.133 2.46-2.5 2.46h-1.25v2.031c0 .313-.234.469-.469.469-.117 0-.195 0-.312-.078L16.75 18h-3.79c-1.366 0-2.46-1.094-2.46-2.5v-1.25h1.25v1.25c0 .703.547 1.25 1.25 1.25h4.063l3.437 1.953V16.75H23c.664 0 1.25-.547 1.25-1.25V8c0-.664-.586-1.25-1.25-1.25h-5V5.5h5zm-6.25 5c0 1.406-1.133 2.5-2.5 2.5h-5l-4.258 2.422c-.117.078-.195.078-.273.078-.274 0-.469-.156-.469-.469V13.04L3 13a2.468 2.468 0 01-2.5-2.5V3C.5 1.633 1.594.5 3 .5h11.25c1.367 0 2.5 1.133 2.5 2.5v7.5zm-7.852 1.25h5.352c.664 0 1.25-.547 1.25-1.25V3c0-.664-.586-1.25-1.25-1.25H3c-.703 0-1.25.586-1.25 1.25v7.5c0 .703.547 1.25 1.25 1.25h2.5v1.953l3.398-1.953z" fill="url(#paint0_linear_610_2828)"/><defs><linearGradient id="paint0_linear_610_2828" x1=".5" y1="10" x2="25.5" y2="10" gradientUnits="userSpaceOnUse"><stop stop-color="#04E6E6"/><stop offset="1" stop-color="#009291"/></linearGradient></defs></svg>