<svg width="51" height="40" fill="none" xmlns="http://www.w3.org/2000/svg"><path opacity=".5" d="M49.651.37H.85A.598.598 0 00.25.968v38.064a.598.598 0 00.598.598H49.65a.596.596 0 00.599-.598V.968a.598.598 0 00-.599-.598zm-.597 1.195v6.953H1.446V1.565h47.608zM1.446 38.435V9.713h47.608v28.722H1.446zM44.391 6.977a1.935 1.935 0 10-.002-3.87 1.935 1.935 0 00.003 3.87h-.001zm0-2.675a.74.74 0 11-.523.216.741.741 0 01.524-.216h-.001zm-6.17 2.675a1.935 1.935 0 100-3.87 1.935 1.935 0 000 3.87zm0-2.675a.74.74 0 110 1.48.74.74 0 010-1.48zm-6.172 2.675a1.936 1.936 0 100-3.871 1.936 1.936 0 000 3.871zm0-2.675a.74.74 0 110 1.48.74.74 0 010-1.48zm3.325 16.213a3.542 3.542 0 00-3.479-2.601l-.737-2.747a1.666 1.666 0 00-3.24.07l-10.197 5.89a3.5 3.5 0 01-.889.368l-3.18.85a3.853 3.853 0 00-.974 7.102 3.856 3.856 0 002.968.342l.09-.024 2.232 3.868c.231.41.586.737 1.014.933.207.092.432.14.66.142.242.002.48-.06.69-.18a1.488 1.488 0 00.71-1.151c.044-.469-.062-.94-.302-1.344l-1.803-3.122c.277-.068.56-.101.845-.1h11.774a1.666 1.666 0 002.841-1.56l-.736-2.744a3.54 3.54 0 001.713-3.992zM20.24 27.618l-1.524-5.688 9.352-5.4 2.971 11.088H20.24zm-6.919.75a2.66 2.66 0 01.64-4.868l3.178-.853c.165-.044.328-.097.487-.157l1.389 5.187a4.96 4.96 0 00-.5.108l-3.18.852a2.641 2.641 0 01-2.014-.27zm6.532 4.878a.242.242 0 01-.393.226 1.037 1.037 0 01-.456-.434l-2.073-3.59.81-.218 1.964 3.403c.112.184.164.398.148.613zm13.056-5.103a.476.476 0 01-.58-.333l-3.24-12.088a.476.476 0 01.454-.596.478.478 0 01.46.351l3.238 12.088a.473.473 0 01-.333.578zm.43-4.843l-1.12-4.179a2.313 2.313 0 011.12 4.179zm7.254-4.184a.6.6 0 01-.423.732l-2.907.778a.6.6 0 01-.683-.878.599.599 0 01.373-.276l2.908-.778a.598.598 0 01.73.422h.002zm-1.083 8.217a.596.596 0 01-.817.219l-2.606-1.505a.595.595 0 01-.22-.816.596.596 0 01.817-.22l2.607 1.506a.599.599 0 01.219.816zm-3.746-13.977l-1.505 2.606a.596.596 0 01-1.094-.143.594.594 0 01.06-.454l1.504-2.607a.598.598 0 011.035.598z" fill="#fff"/></svg>