<svg width="18" height="21" fill="none" xmlns="http://www.w3.org/2000/svg"><path d="M8.75 10.5c-2.773 0-5-2.227-5-5 0-2.734 2.227-5 5-5 2.734 0 5 2.266 5 5 0 2.773-2.266 5-5 5zm0-8.75C6.68 1.75 5 3.469 5 5.5c0 2.07 1.68 3.75 3.75 3.75 2.031 0 3.75-1.68 3.75-3.75 0-2.031-1.719-3.75-3.75-3.75zm1.953 10.625a6.802 6.802 0 016.797 6.797c0 .742-.625 1.328-1.367 1.328H1.328A1.317 1.317 0 010 19.172c0-3.75 3.008-6.797 6.758-6.797h3.945zm5.43 6.875c.039 0 .117-.04.117-.078 0-3.047-2.5-5.547-5.547-5.547H6.758c-3.047 0-5.508 2.5-5.508 5.547 0 .039.04.078.078.078h14.805z" fill="url(#paint0_linear_610_2812)"/><defs><linearGradient id="paint0_linear_610_2812" x1="0" y1="10" x2="18" y2="10" gradientUnits="userSpaceOnUse"><stop stop-color="#04E6E6"/><stop offset="1" stop-color="#009291"/></linearGradient></defs></svg>