<svg width="20" height="21" fill="none" xmlns="http://www.w3.org/2000/svg"><path d="M6.094 8.156L4.648 8a9.204 9.204 0 000 5.04l1.446-.157a1.449 1.449 0 011.523.937l1.25 3.086c.274.664 0 1.446-.586 1.836l-2.5 1.563c-.234.156-.508.195-.781.195-.39 0-.781-.117-1.055-.469C1.367 17.492 0 14.094 0 10.5 0 6.906 1.367 3.508 3.945.969A1.486 1.486 0 015.781.734l2.5 1.563c.586.39.86 1.133.586 1.836l-1.25 3.086a1.449 1.449 0 01-1.523.937zm-2.5 5.742a10.533 10.533 0 010-6.757.684.684 0 01.664-.43l1.953.195h.039c.078 0 .195-.039.234-.156l1.172-3.125c.078-.117 0-.234-.078-.313l-2.5-1.523C5.04 1.75 5 1.75 4.961 1.75c-.078 0-.117 0-.195.078C2.46 4.133 1.21 7.218 1.21 10.5c0 3.281 1.289 6.367 3.594 8.672.117.117.234.117.312.039l2.5-1.523a.304.304 0 00.078-.313l-1.21-3.086c-.04-.117-.196-.195-.274-.156l-1.953.195c-.274.04-.547-.156-.664-.43zm12.07-11.992A10.676 10.676 0 0120 10.5c0 3.438-1.602 6.602-4.336 8.633a.63.63 0 01-.86-.117.584.584 0 01.118-.86c2.422-1.836 3.828-4.61 3.828-7.656 0-3.008-1.406-5.781-3.828-7.617a.584.584 0 01-.117-.86.584.584 0 01.86-.117zm-2.656 2.461c2.031 1.406 3.242 3.711 3.242 6.133 0 2.46-1.21 4.766-3.242 6.172-.117.078-.235.078-.352.078a.77.77 0 01-.547-.234.638.638 0 01.196-.899A6.159 6.159 0 0015 10.5a6.14 6.14 0 00-2.695-5.078.638.638 0 01-.196-.899.665.665 0 01.899-.156zm-2.383 3.086a3.414 3.414 0 011.836 3.047c0 1.328-.703 2.5-1.836 3.086-.117.039-.195.039-.313.039a.673.673 0 01-.546-.313.641.641 0 01.273-.859c.742-.351 1.211-1.094 1.211-1.953 0-.82-.469-1.563-1.21-1.914a.641.641 0 01-.274-.86.641.641 0 01.859-.273z" fill="url(#paint0_linear_610_2820)"/><defs><linearGradient id="paint0_linear_610_2820" x1="0" y1="10" x2="20" y2="10" gradientUnits="userSpaceOnUse"><stop stop-color="#04E6E6"/><stop offset="1" stop-color="#009291"/></linearGradient></defs></svg>