<svg width="125" height="125" fill="none" xmlns="http://www.w3.org/2000/svg"><path d="M52.99 86.881l30.643-19.579c1.195-.779 1.793-1.857 1.793-3.234 0-1.376-.598-2.48-1.793-3.312l-30.642-19.5c-1.247-.86-2.56-.912-3.936-.159-1.377.753-2.065 1.884-2.065 3.393V83.53c0 1.586.688 2.756 2.065 3.509 1.377.753 2.689.7 3.936-.159zM4.864 68.693c1.509 0 2.815.5 3.92 1.501 1.103 1.001 1.85 2.256 2.238 3.764a53.036 53.036 0 002.459 8.653 40.924 40.924 0 004.07 7.985c.81 1.429 1.168 2.884 1.077 4.366-.09 1.48-.695 2.78-1.813 3.898-1.17 1.066-2.482 1.572-3.937 1.52-1.455-.052-2.612-.728-3.471-2.027a56.547 56.547 0 01-5.945-11.53A59.834 59.834 0 01.225 74.31c-.31-1.456.001-2.756.936-3.9.935-1.144 2.169-1.716 3.702-1.716zm11.951-42.825c1.118 1.17 1.755 2.535 1.91 4.094.156 1.558-.183 3.026-1.017 4.403a47.183 47.183 0 00-4.149 8.044 48.246 48.246 0 00-2.537 8.597 8.152 8.152 0 01-2.257 3.743c-1.092 1.04-2.392 1.56-3.9 1.56-1.507 0-2.741-.533-3.703-1.599-.962-1.065-1.326-2.365-1.092-3.898.574-4.213 1.66-8.385 3.254-12.516A57.52 57.52 0 019.484 26.57c.859-1.17 2.003-1.832 3.432-1.988 1.429-.156 2.728.273 3.898 1.287zm9.17 82.477c1.118-1.145 2.464-1.828 4.037-2.048 1.573-.221 3.113.086 4.62.92a73.356 73.356 0 007.983 4.013 57.369 57.369 0 008.455 2.871c1.456.388 2.678 1.167 3.665 2.336.987 1.169 1.48 2.468 1.48 3.897 0 1.377-.558 2.52-1.676 3.428-1.117.909-2.352 1.195-3.704.859a81.694 81.694 0 01-12.49-3.353 59.191 59.191 0 01-11.545-5.552c-1.3-.754-2.028-1.885-2.186-3.393-.158-1.507.296-2.833 1.361-3.978zM56.62 4.589c0 1.482-.48 2.807-1.443 3.976a6.293 6.293 0 01-3.665 2.22 48.637 48.637 0 00-8.477 2.772 73.44 73.44 0 00-7.809 3.955c-1.533.886-3.131 1.265-4.794 1.135-1.663-.13-3.106-.831-4.328-2.106-1.17-1.118-1.664-2.411-1.48-3.88.182-1.469.936-2.659 2.26-3.57A57.115 57.115 0 0138.61 3.58 90.962 90.962 0 0151.474.265c1.325-.232 2.514.1 3.567.995 1.053.895 1.58 2.005 1.58 3.33zm58.054 57.912c0-12.471-3.876-23.523-11.63-33.156C95.29 19.712 85.4 13.499 73.373 10.707c-1.325-.285-2.384-1.018-3.178-2.2a6.878 6.878 0 01-1.191-3.918c0-1.377.495-2.533 1.484-3.467.99-.935 2.186-1.286 3.59-1.052 14.885 2.688 27.093 9.9 36.625 21.637C120.234 33.444 125 47.043 125 62.501c0 15.51-4.792 29.128-14.376 40.851-9.583 11.723-21.818 18.916-36.703 21.579-1.351.234-2.509-.129-3.472-1.09-.963-.961-1.445-2.13-1.445-3.507 0-1.325.37-2.591 1.112-3.8.742-1.209 1.75-1.955 3.022-2.239 12.079-2.74 22.021-8.927 29.827-18.56 7.806-9.633 11.709-20.711 11.709-33.234z" fill="#fff"/></svg>