<svg width="161" height="161" fill="none" xmlns="http://www.w3.org/2000/svg"><path opacity=".6" d="M143.862 63.507l.003.01c.537 1.933 1.955 3.604 3.508 5.05 1.322 1.232 2.897 2.438 4.409 3.595.283.216.564.431.84.644 1.8 1.387 3.432 2.706 4.617 4.048 1.19 1.348 1.761 2.533 1.761 3.646s-.571 2.298-1.761 3.646c-1.185 1.342-2.817 2.66-4.617 4.048-.276.213-.557.428-.84.644-1.512 1.157-3.087 2.363-4.409 3.595-1.553 1.446-2.971 3.117-3.508 5.05l-.003.01c-.533 1.97-.171 4.148.434 6.2.532 1.806 1.317 3.712 2.064 5.528l.326.792c.859 2.101 1.613 4.047 1.973 5.787.363 1.749.271 3.027-.261 3.952-.533.925-1.595 1.651-3.29 2.219-1.684.564-3.747.892-5.993 1.199-.333.046-.671.091-1.012.136-1.894.254-3.871.518-5.644.931-2.07.482-4.132 1.221-5.573 2.609-1.46 1.405-2.227 3.467-2.719 5.535-.433 1.824-.698 3.871-.95 5.825l-.111.854c-.297 2.259-.611 4.338-1.163 6.037-.557 1.71-1.274 2.773-2.191 3.301l-.009.005-.009.006c-.871.517-2.114.615-3.862.251-1.733-.361-3.686-1.116-5.798-1.975a674.21 674.21 0 01-.762-.312c-1.838-.752-3.769-1.542-5.598-2.078-2.063-.604-4.25-.966-6.221-.433l-.01.003c-1.933.537-3.604 1.955-5.05 3.508-1.232 1.322-2.438 2.897-3.595 4.409-.216.283-.431.564-.644.84-1.387 1.8-2.706 3.432-4.048 4.617-1.348 1.19-2.533 1.761-3.646 1.761s-2.298-.571-3.646-1.761c-1.342-1.185-2.66-2.817-4.048-4.617-.213-.276-.428-.557-.644-.84-1.157-1.512-2.363-3.087-3.595-4.409-1.446-1.553-3.117-2.971-5.05-3.508l-.01-.003c-1.97-.533-4.148-.171-6.2.434-1.806.532-3.712 1.317-5.528 2.064l-.792.326c-2.1.859-4.047 1.613-5.787 1.973-1.749.363-3.027.271-3.952-.261-.92-.53-1.637-1.587-2.192-3.281-.552-1.684-.865-3.746-1.162-5.995l-.113-.868c-.252-1.941-.516-3.976-.948-5.8-.491-2.074-1.254-4.138-2.688-5.579-1.406-1.452-3.463-2.217-5.526-2.708-1.824-.433-3.87-.698-5.825-.95l-.854-.111c-2.26-.297-4.338-.611-6.037-1.163-1.71-.557-2.773-1.274-3.301-2.191l-.005-.009-.005-.009c-.518-.871-.616-2.114-.252-3.862.361-1.733 1.116-3.686 1.976-5.798l.311-.763c.752-1.837 1.542-3.768 2.078-5.597.604-2.063.966-4.25.433-6.221l-.003-.01c-.537-1.933-1.955-3.604-3.508-5.05-1.322-1.232-2.897-2.438-4.41-3.595l-.84-.644c-1.8-1.387-3.431-2.706-4.616-4.048C2.57 82.798 2 81.613 2 80.5s.57-2.298 1.76-3.646c1.186-1.342 2.818-2.66 4.618-4.048.276-.213.557-.428.84-.644 1.512-1.157 3.087-2.363 4.409-3.595 1.553-1.446 2.971-3.117 3.508-5.05h0l.003-.01c.533-1.97.17-4.148-.434-6.2-.532-1.806-1.317-3.712-2.064-5.528l-.325-.792c-.86-2.1-1.614-4.047-1.974-5.787-.363-1.749-.271-3.027.26-3.952.534-.925 1.596-1.651 3.29-2.218 1.685-.565 3.748-.893 5.994-1.2.333-.046.671-.09 1.012-.136 1.894-.254 3.87-.518 5.644-.93 2.07-.483 4.132-1.222 5.573-2.61 1.46-1.405 2.227-3.467 2.719-5.535.433-1.824.698-3.87.95-5.825l.111-.854c.297-2.26.61-4.338 1.163-6.037.557-1.71 1.274-2.773 2.191-3.301l.01-.005.008-.005c.87-.518 2.114-.616 3.862-.252 1.733.361 3.686 1.116 5.798 1.976l.763.311c1.837.752 3.768 1.542 5.597 2.078 2.063.604 4.25.966 6.221.433h0l.01-.003c1.933-.537 3.604-1.955 5.05-3.508 1.232-1.322 2.438-2.897 3.595-4.409.216-.283.431-.564.644-.84 1.387-1.8 2.706-3.432 4.048-4.617C78.202 2.57 79.387 2 80.5 2s2.298.57 3.646 1.76c1.342 1.186 2.66 2.818 4.048 4.618.213.276.428.557.644.84 1.157 1.512 2.363 3.087 3.595 4.409 1.446 1.553 3.117 2.971 5.05 3.508l.01.003c1.97.533 4.148.17 6.2-.434 1.806-.532 3.712-1.317 5.528-2.064l.792-.325c2.101-.86 4.047-1.614 5.787-1.974 1.749-.363 3.027-.271 3.952.26.921.531 1.637 1.588 2.192 3.282.552 1.684.865 3.746 1.162 5.995l.113.868c.252 1.94.516 3.976.948 5.8.491 2.074 1.254 4.138 2.689 5.578 1.405 1.453 3.462 2.218 5.525 2.709 1.824.433 3.871.698 5.824.95l.855.111c2.259.297 4.338.61 6.037 1.163 1.71.557 2.773 1.274 3.301 2.191l.005.01.006.008c.517.87.615 2.114.251 3.862-.361 1.733-1.116 3.686-1.975 5.798l-.312.762c-.752 1.838-1.542 3.769-2.078 5.598-.604 2.063-.966 4.25-.433 6.221zM29.042 80.5c0 28.339 22.95 51.289 51.29 51.289 28.338 0 51.288-22.95 51.288-51.289 0-28.339-22.95-51.289-51.289-51.289-28.339 0-51.289 22.95-51.289 51.289z" stroke="url(#paint0_linear_603_2264)" stroke-width="3"/><path opacity=".8" d="M73.06 84.058l.417.313.295-.429C94.692 53.564 108.63 52 109.156 52c.221 0 .415.108.51.298l.014.028.017.026c.004.005.028.054.008.157a.524.524 0 01-.13.258C97.41 63.829 88.79 77.737 83.202 88.902a155.959 155.959 0 00-6.184 14.021 118.57 118.57 0 00-1.51 4.173 78.066 78.066 0 00-.48 1.461l-.025.08c-.134.242-.356.363-.494.363-.286 0-.44-.165-.472-.291l-.003-.011-.003-.011c-4.613-15.472-10.43-22.602-15.188-25.848-2.38-1.624-4.482-2.266-6.01-2.498a9.674 9.674 0 00-1.816-.113 6.542 6.542 0 00-.65.057l-.012.002h-.026l-.06.015c-.171.043-.405-.058-.484-.217l-.02-.04-.028-.036c-.114-.153-.091-.355.05-.495h0l.004-.005c3.274-3.363 8.123-2.976 12.763-1.29 4.61 1.673 8.799 4.559 10.507 5.84z" fill="#fff" stroke="#fff"/><defs><linearGradient id="paint0_linear_603_2264" x1=".5" y1="80.5" x2="160.5" y2="80.5" gradientUnits="userSpaceOnUse"><stop stop-color="#04E6E6"/><stop offset="1" stop-color="#009291"/></linearGradient></defs></svg>