<svg width="221" height="121" fill="none" xmlns="http://www.w3.org/2000/svg"><path opacity=".6" fill-rule="evenodd" clip-rule="evenodd" d="M3.324 60.834C45.99 22.472 78.899 3.625 111.4 3.625c32.308 0 64.674 18.624 106.283 56.535-41.967 38.368-74.527 57.215-107.027 57.215-32.313 0-65.027-18.628-107.333-56.541zm-1.49-.747l-.969-1.076C43.822 20.31 77.584.625 111.401.625c33.822 0 67.23 19.692 109.481 58.394l-1.728 1.887.984 1.075c-42.251 38.702-75.659 58.394-109.481 58.394-33.817 0-67.579-19.687-110.536-58.386l1.714-1.902z" fill="url(#paint0_linear_574_1773)"/><circle opacity=".8" cx="110" cy="61" r="38.5" stroke="#fff"/><circle opacity=".8" cx="109.5" cy="61.5" r="28" stroke="url(#paint1_linear_574_1773)"/><path opacity=".8" d="M126.5 61c0 9.1-7.597 16.5-17 16.5-9.403 0-17-7.4-17-16.5s7.597-16.5 17-16.5c9.403 0 17 7.4 17 16.5z" stroke="#fff"/><defs><linearGradient id="paint0_linear_574_1773" x1=".121" y1="60.5" x2="220.882" y2="60.5" gradientUnits="userSpaceOnUse"><stop stop-color="#04E6E6"/><stop offset="1" stop-color="#009291"/></linearGradient><linearGradient id="paint1_linear_574_1773" x1="81" y1="61.5" x2="138" y2="61.5" gradientUnits="userSpaceOnUse"><stop stop-color="#04E6E6"/><stop offset="1" stop-color="#009291"/></linearGradient></defs></svg>