<svg width="16" height="14" fill="none" xmlns="http://www.w3.org/2000/svg"><path d="M14.59 11.636a1.35 1.35 0 010 1.97 1.358 1.358 0 01-.963.394c-.394 0-.744-.131-1.007-.394L8.023 9.009l-4.641 4.597a1.358 1.358 0 01-.964.394c-.394 0-.744-.131-1.007-.394a1.35 1.35 0 010-1.97L6.01 6.995 1.41 2.397a1.35 1.35 0 010-1.97 1.35 1.35 0 011.97 0l4.642 4.597L12.62.427a1.35 1.35 0 011.97 0 1.35 1.35 0 010 1.97L9.993 7.038l4.597 4.598z" fill="url(#paint0_linear_1833_123)"/><defs><linearGradient id="paint0_linear_1833_123" x1=".984" y1="7" x2="15.017" y2="7" gradientUnits="userSpaceOnUse"><stop stop-color="#04E6E6"/><stop offset="1" stop-color="#009291"/></linearGradient></defs></svg>