<svg width="42" height="50" fill="none" xmlns="http://www.w3.org/2000/svg"><g opacity=".5" clip-path="url(#clip0_574_1667)" fill="#fff"><path d="M39.52 16.676H8.75l29.002-7.77a2.251 2.251 0 001.59-2.754l-1.35-5.04A1.525 1.525 0 0036.15.049L1.591 9.31a1.495 1.495 0 00-.912.7c-.201.348-.254.753-.15 1.14l1.773 6.621c-.037.131-.063.267-.063.41V47.006A2.997 2.997 0 005.232 50H38.03a2.997 2.997 0 002.994-2.993V18.18c0-.83-.674-1.504-1.503-1.504zm-7.371 1.506l2.59 5.948h-4.667l-2.59-5.947 4.667-.001zm-6.32.002l2.59 5.946H23.75l-2.59-5.945 4.668-.001zm-6.32.002l2.589 5.944H17.43l-2.588-5.942 4.667-.002zm-6.32.002l2.588 5.942h-4.668L8.52 18.19l4.668-.002zM33.523 2.31l3.005-.806 1.35 5.04a.734.734 0 01-.518.898l-4.8 1.286.963-6.418zm-6.106 1.638l4.51-1.21-.963 6.418-4.51 1.208.963-6.416zm-6.106 1.639l4.51-1.21-.963 6.415L20.348 12l.963-6.413zm-6.106 1.638l4.51-1.21-.962 6.413-4.51 1.208.962-6.41zM9.1 8.864l4.51-1.21-.962 6.41-4.51 1.208.962-6.408zm-7.116 1.909l5.52-1.481L6.54 15.7l-3.01.806-1.548-5.733zm1.759 7.418h3.126l2.587 5.939H3.752l-.01-5.939zm35.766 28.816a1.48 1.48 0 01-1.479 1.478H5.232a1.48 1.48 0 01-1.478-1.478V25.645h35.754v21.362zm0-22.877h-3.115l-2.591-5.949 5.706-.002v5.95z"/><path d="M21.63 44.642c4.178 0 7.577-3.399 7.577-7.577 0-4.177-3.399-7.576-7.576-7.576-4.178 0-7.576 3.399-7.576 7.576 0 4.178 3.398 7.577 7.576 7.577zm0-13.638a6.068 6.068 0 016.062 6.061 6.068 6.068 0 01-6.061 6.061 6.068 6.068 0 01-6.061-6.06 6.068 6.068 0 016.06-6.062z"/><path d="M20.074 40.853c.249 0 .498-.064.716-.182l4.224-2.275a1.513 1.513 0 00-.002-2.662l-4.219-2.272a1.509 1.509 0 00-.719-.185c-.833 0-1.512.68-1.512 1.515v4.547c0 .835.679 1.514 1.512 1.514zm4.22-3.79l-4.216 2.27-.007-4.539 4.223 2.27zM6.46 32.682c.42 0 .758-.34.758-.758v-2.273a.758.758 0 00-1.515 0v2.273c0 .418.34.758.758.758zM6.46 38.77c.42 0 .758-.339.758-.757v-3.03a.758.758 0 00-1.515 0v3.03c0 .418.34.757.758.757z"/></g><defs><clipPath id="clip0_574_1667"><path fill="#fff" transform="translate(.477)" d="M0 0h40.547v50H0z"/></clipPath></defs></svg>