<svg width="51" height="52" fill="none" xmlns="http://www.w3.org/2000/svg"><g opacity=".5" fill="#fff"><path d="M5.114 27.63c-2.407 0-4.364-2.152-4.364-4.8 0-2.648 1.957-4.8 4.364-4.8 2.408 0 4.365 2.152 4.365 4.8 0 2.648-1.957 4.8-4.365 4.8zm0-7.514c-1.364 0-2.466 1.214-2.466 2.714s1.102 2.713 2.466 2.713 2.467-1.213 2.467-2.713-1.103-2.714-2.467-2.714zM18.872 17.507c-2.407 0-4.364-2.152-4.364-4.8 0-2.649 1.957-4.801 4.364-4.801 2.408 0 4.364 2.152 4.364 4.8 0 2.649-1.956 4.801-4.364 4.801zm0-7.514c-1.364 0-2.467 1.213-2.467 2.713s1.103 2.714 2.467 2.714 2.467-1.213 2.467-2.713-1.103-2.714-2.467-2.714zM32.188 21.382c-2.407 0-4.364-2.152-4.364-4.8 0-2.649 1.957-4.802 4.364-4.802 2.408 0 4.365 2.153 4.365 4.801 0 2.649-1.957 4.801-4.364 4.801zm0-7.514c-1.363 0-2.466 1.213-2.466 2.713s1.103 2.714 2.466 2.714c1.364 0 2.467-1.214 2.467-2.714s-1.103-2.713-2.467-2.713zM46.388 10.58c-2.408 0-4.365-2.152-4.365-4.8 0-2.649 1.957-4.801 4.365-4.801 2.407 0 4.364 2.152 4.364 4.8 0 2.649-1.969 4.801-4.364 4.801zm0-7.514c-1.364 0-2.467 1.213-2.467 2.713s1.103 2.714 2.467 2.714 2.467-1.213 2.467-2.714c0-1.5-1.115-2.713-2.467-2.713z"/><path d="M15.739 13.756l-8.29 6.102 1.056 1.735 8.289-6.102-1.056-1.735zM22.411 12.66l-.485 2.018 6.603 1.923.486-2.018-6.604-1.923zM43.033 7.058l-8.572 6.526 1.08 1.716 8.572-6.526-1.08-1.716zM6.062 38.654H4.164v12.367h1.898V38.654zM12.944 33.449h-1.897v17.559h1.897v-17.56zM19.82 24.004h-1.898V51.01h1.897V24.004zM26.698 28.387h-1.897v22.635h1.897V28.388zM33.577 34.297H31.68V51.02h1.897V34.297zM40.456 26.587H38.56V51.02h1.897V26.587zM47.335 17.677h-1.898v33.33h1.898v-33.33z"/></g></svg>