<svg width="51" height="44" fill="none" xmlns="http://www.w3.org/2000/svg"><g opacity=".5" fill="#fff"><path fill-rule="evenodd" clip-rule="evenodd" d="M11.883 12.414h-4.99v7.508h6.84V16.82c0-.21.171-.383.382-.383h11.25v-4.023h-4.988a.383.383 0 01-.383-.383V1.453c0-.21.172-.383.383-.383H31.12c.211 0 .383.172.383.383v10.57a.374.374 0 01-.375.391h-4.996v4.023h11.547c.21 0 .382.172.382.383v3.102h6.544v-7.508h-4.989a.383.383 0 01-.382-.383V1.453c0-.21.172-.383.383-.383h10.742c.218 0 .39.172.39.383v10.57c0 .22-.172.391-.383.391H45.37v7.89a.372.372 0 01-.375.384H38.06v3.945h6.941c.21 0 .383.172.383.383v7.49a5.23 5.23 0 014.83 5.205 5.223 5.223 0 01-5.22 5.219 5.228 5.228 0 01-5.218-5.22 5.23 5.23 0 014.834-5.204v-7.108h-6.55v3.125c0 .211-.172.383-.383.383H26.132v3.6a5.23 5.23 0 014.838 5.205 5.228 5.228 0 01-5.219 5.219 5.228 5.228 0 01-5.218-5.22 5.23 5.23 0 014.834-5.204v-3.6H14.115a.383.383 0 01-.383-.383V25.39h-6.84v7.116a5.23 5.23 0 014.833 5.205 5.228 5.228 0 01-5.22 5.219 5.228 5.228 0 01-5.218-5.22 5.23 5.23 0 014.84-5.204v-7.498c0-.211.172-.383.383-.383h7.222v-3.938H6.51a.383.383 0 01-.383-.382v-7.89H1.133a.383.383 0 01-.383-.384V1.453c0-.21.172-.383.383-.383h10.742c.21 0 .383.172.383.383v10.57a.374.374 0 01-.375.391zm-10.367-.773h9.976V1.844H1.516v9.797zm12.982 13.425v3.075H37.295v-7.789a.373.373 0 010-.095v-3.054H14.498v7.747a.384.384 0 010 .116zM30.744 11.64h-9.976V1.844h9.976v9.797zm9.262 0h9.977V1.844h-9.977v9.797zM2.053 37.71c0-2.453 2-4.453 4.453-4.453 2.453 0 4.453 2 4.453 4.453 0 2.453-2 4.453-4.453 4.453-2.453 0-4.453-2-4.453-4.453zm23.697-4.453c-2.453 0-4.453 2-4.453 4.453 0 2.453 2 4.453 4.453 4.453 2.453 0 4.453-2 4.453-4.453 0-2.453-2-4.453-4.453-4.453zm14.791 4.453c0-2.453 2-4.453 4.454-4.453 2.453 0 4.453 2 4.453 4.453 0 2.453-2 4.453-4.453 4.453-2.453 0-4.453-2-4.453-4.453zM18.845 25.898a.383.383 0 01-.383-.382v-5.72a.383.383 0 01.766 0v5.72a.374.374 0 01-.383.382zm4.006-.382a.383.383 0 00.765 0v-5.72a.384.384 0 00-.765 0v5.72zm5.406.414a.383.383 0 01-.383-.383v-5.719a.383.383 0 01.766 0v5.719c0 .21-.172.383-.383.383zm4.305-.414a.383.383 0 00.765 0v-5.72a.383.383 0 00-.765 0v5.72z"/><path d="M6.893 12.414v-.25h-.25v.25h.25zm0 7.508h-.25v.25h.25v-.25zm6.84 0v.25h.25v-.25h-.25zm11.633-3.485v.25h.25v-.25h-.25zm0-4.023h.25v-.25h-.25v.25zm6.136-.39h-.25v.008l.25-.009zm-5.37.39v-.25h-.25v.25h.25zm0 4.023h-.25v.25h.25v-.25zm11.928 3.485h-.25v.25h.25v-.25zm6.544 0v.25h.25v-.25h-.25zm0-7.508h.25v-.25h-.25v.25zm.766 0v-.25h-.25v.25h.25zm0 7.89h-.25v.01l.25-.01zm-7.31.384v-.25h-.25v.25h.25zm0 3.945h-.25v.25h.25v-.25zm7.324 7.874h-.25v.232l.231.017.019-.25zm-.774 0l.019.248.231-.017v-.232h-.25zm0-7.109h.25v-.25h-.25v.25zm-6.55 0v-.25h-.25v.25h.25zm-11.929 3.508v-.25h-.25v.25h.25zm0 3.6h-.25v.232l.232.017.018-.249zm-.765 0l.018.25.232-.017v-.233h-.25zm0-3.6h.25v-.25h-.25v.25zm-11.634-3.515h.25v-.25h-.25v.25zm-6.84 0v-.25h-.25v.25h.25zm0 7.115h-.25v.233l.232.017.019-.25zm-.765 0l.018.25.232-.018v-.232h-.25zm7.605-7.881v.25h.25v-.25h-.25zm0-3.938h.25v-.25h-.25v.25zm-7.605-8.273h.25v-.25h-.25v.25zm6.13-.39h-.25l.001.008.25-.009zm-.765-.383v.25h.25v-.25h-.25zm-9.976 0h-.25v.25h.25v-.25zm9.976-9.797h.25v-.25h-.25v.25zm-9.976 0v-.25h-.25v.25h.25zM14.498 28.14h-.25v.25h.25v-.25zm0-3.075l-.247-.038-.003.019v.019h.25zm11.247 3.075v.25-.25zm.003 0l.002-.25h-.003l.001.25zm.004 0l-.001.25v-.25zm11.543 0v.25h.25v-.25h-.25zm0-7.789h.25v-.015l-.002-.016-.248.031zm0-.095l.248.031.002-.015v-.016h-.25zm0-3.054h.25v-.25h-.25v.25zm-11.538 0v-.25h-.003l.003.25zm-.009 0l-.002.25h.005l-.003-.25zm-.008 0l.003-.25h-.003v.25zm-11.242 0v-.25h-.25v.25h.25zm0 7.747h-.25v.019l.003.018.247-.037zm6.27-13.31h-.25v.25h.25v-.25zm9.976 0v.25h.25v-.25h-.25zm-9.976-9.796v-.25h-.25v.25h.25zm9.976 0h.25v-.25h-.25v.25zm19.239 9.797v.25h.25v-.25h-.25zm-9.977 0h-.25v.25h.25v-.25zm9.977-9.797h.25v-.25h-.25v.25zm-9.977 0v-.25h-.25v.25h.25zM19.228 25.516h-.25v.009l.25-.01zM6.893 12.664h4.99v-.5h-4.99v.5zm.25 7.258v-7.508h-.5v7.508h.5zm6.59-.25h-6.84v.5h6.84v-.5zm-.25-2.852v3.102h.5V16.82h-.5zm.632-.633a.633.633 0 00-.633.633h.5c0-.073.06-.133.133-.133v-.5zm11.25 0h-11.25v.5h11.25v-.5zm-.25-3.773v4.023h.5v-4.023h-.5zm-4.738.25h4.989v-.5h-4.989v.5zm-.633-.633c0 .35.284.633.633.633v-.5a.133.133 0 01-.133-.133h-.5zm0-10.578v10.578h.5V1.453h-.5zm.633-.633a.633.633 0 00-.633.633h.5c0-.073.06-.133.133-.133v-.5zm10.742 0H20.377v.5H31.12v-.5zm.633.633A.633.633 0 0031.12.82v.5c.073 0 .133.06.133.133h.5zm0 10.57V1.453h-.5v10.57h.5zm-.625.641c.35 0 .638-.287.625-.65l-.5.018a.124.124 0 01-.125.132v.5zm-4.996 0h4.996v-.5h-4.996v.5zm.25 3.773v-4.023h-.5v4.023h.5zm11.297-.25H26.13v.5h11.547v-.5zm.632.633a.633.633 0 00-.633-.633v.5c.073 0 .133.06.133.133h.5zm0 3.102V16.82h-.5v3.102h.5zm6.294-.25H38.06v.5h6.544v-.5zm-.25-7.258v7.508h.5v-7.508h-.5zm-4.739.25h4.99v-.5h-4.99v.5zm-.632-.633c0 .35.284.633.633.633v-.5a.133.133 0 01-.133-.133h-.5zm0-10.578v10.578h.5V1.453h-.5zm.633-.633a.633.633 0 00-.633.633h.5c0-.073.06-.133.133-.133v-.5zm10.742 0H39.616v.5h10.742v-.5zm.64.633a.635.635 0 00-.64-.633v.5c.084 0 .14.064.14.133h.5zm0 10.57V1.453h-.5v10.57h.5zm-.633.641a.635.635 0 00.633-.64h-.5c0 .083-.063.14-.133.14v.5zm-4.995 0h4.995v-.5H45.37v.5zm.25 7.64v-7.89h-.5v7.89h.5zm-.625.634a.622.622 0 00.625-.642l-.5.018a.122.122 0 01-.125.123v.5zm-6.935 0h6.935v-.5H38.06v.5zm.25 3.695v-3.945h-.5v3.945h.5zm6.691-.25h-6.94v.5H45v-.5zm.633.633a.634.634 0 00-.633-.633v.5c.073 0 .133.06.133.133h.5zm0 7.49v-7.49h-.5v7.49h.5zm4.83 5.205a5.48 5.48 0 00-5.062-5.454l-.037.499a4.98 4.98 0 014.598 4.955h.5zm-5.47 5.469a5.473 5.473 0 005.47-5.47h-.5a4.973 4.973 0 01-4.97 4.97v.5zm-5.468-5.47a5.478 5.478 0 005.469 5.47v-.5a4.978 4.978 0 01-4.97-4.97h-.5zm5.066-5.453a5.48 5.48 0 00-5.066 5.454h.5a4.98 4.98 0 014.603-4.956l-.037-.498zm-.232-6.859v7.108h.5v-7.108h-.5zm-6.3.25h6.55v-.5h-6.55v.5zm.25 2.875v-3.125h-.5v3.125h.5zm-.633.633a.633.633 0 00.633-.633h-.5c0 .073-.06.133-.133.133v.5zm-11.546 0h11.547v-.5H26.13v.5zm.25 3.35v-3.6h-.5v3.6h.5zm4.838 5.205a5.48 5.48 0 00-5.07-5.454l-.036.498a4.98 4.98 0 014.606 4.956h.5zM25.75 43.18a5.478 5.478 0 005.469-5.47h-.5a4.978 4.978 0 01-4.969 4.97v.5zm-5.468-5.47a5.478 5.478 0 005.468 5.47v-.5a4.978 4.978 0 01-4.968-4.97h-.5zm5.065-5.453a5.48 5.48 0 00-5.066 5.454h.5a4.98 4.98 0 014.603-4.955l-.037-.5zm-.232-3.35v3.6h.5v-3.6h-.5zm-11 .25h11.25v-.5h-11.25v.5zm-.633-.634c0 .35.284.633.633.633v-.5a.133.133 0 01-.133-.133h-.5zm0-3.133v3.133h.5V25.39h-.5zm-6.59.25h6.84v-.5h-6.84v.5zm.25 6.866V25.39h-.5v7.116h.5zm4.833 5.205a5.48 5.48 0 00-5.064-5.454l-.037.499a4.98 4.98 0 014.6 4.955h.5zm-5.47 5.469a5.478 5.478 0 005.47-5.47h-.5a4.978 4.978 0 01-4.97 4.97v.5zm-5.468-5.47a5.478 5.478 0 005.469 5.47v-.5a4.978 4.978 0 01-4.969-4.97h-.5zm5.072-5.454a5.48 5.48 0 00-5.072 5.455h.5a4.98 4.98 0 014.608-4.956l-.036-.499zm-.232-7.248v7.498h.5v-7.498h-.5zm.633-.633a.633.633 0 00-.633.633h.5c0-.073.06-.133.133-.133v-.5zm7.222 0H6.51v.5h7.222v-.5zm-.25-3.688v3.938h.5v-3.938h-.5zm-6.972.25h7.222v-.5H6.51v.5zm-.633-.632c0 .349.284.633.633.633v-.5a.133.133 0 01-.133-.133h-.5zm0-7.89v7.89h.5v-7.89h-.5zm-4.744.25h4.994v-.5H1.133v.5zM.5 12.03c0 .35.284.633.633.633v-.5A.133.133 0 011 12.031H.5zm0-10.578v10.578H1V1.453H.5zM1.133.82a.633.633 0 00-.633.633H1c0-.073.06-.133.133-.133v-.5zm10.742 0H1.133v.5h10.742v-.5zm.633.633a.633.633 0 00-.633-.633v.5c.073 0 .133.06.133.133h.5zm0 10.57V1.453h-.5v10.57h.5zm-.625.641c.35 0 .638-.287.625-.65l-.5.018a.124.124 0 01-.125.132v.5zm-.39-1.273H1.515v.5h9.976v-.5zm-.25-9.547v9.797h.5V1.844h-.5zm-9.727.25h9.976v-.5H1.516v.5zm.25 9.547V1.844h-.5v9.797h.5zm12.982 16.5v-3.075h-.5v3.075h.5zm10.997-.25H14.498v.5h11.247v-.5zm.002 0h-.003l.002.5h.004l-.003-.5zm.006 0h-.003l-.003.5h.004l.002-.5zm11.542 0H25.752v.5h11.543v-.5zm-.25-7.539v7.789h.5v-7.789h-.5zm-.003-.047c0 .026.001.052.005.078l.496-.062a.127.127 0 01-.001-.016h-.5zm.005-.079a.636.636 0 00-.005.079h.5v-.017l-.495-.062zm-.002-3.023v3.054h.5v-3.054h-.5zm-11.288.25h11.538v-.5H25.757v.5zm-.006 0h.008l-.005-.5h-.008l.005.5zm-.014 0h.009l.005-.5h-.008l-.006.5zm-11.24 0H25.74v-.5H14.498v.5zm.25 7.497v-7.747h-.5v7.747h.5zm.005.058a.634.634 0 00-.007-.096l-.494.076a.132.132 0 01.001.02h.5zm-.007.096a.632.632 0 00.007-.096h-.5l-.001.02.494.076zm6.023-13.213h9.976v-.5h-9.976v.5zm-.25-10.047v9.797h.5V1.844h-.5zm10.226-.25h-9.976v.5h9.976v-.5zm.25 10.047V1.844h-.5v9.797h.5zm18.989-.25h-9.977v.5h9.977v-.5zm-.25-9.547v9.797h.5V1.844h-.5zm-9.727.25h9.977v-.5h-9.977v.5zm.25 9.547V1.844h-.5v9.797h.5zM6.506 33.008a4.711 4.711 0 00-4.703 4.703h.5a4.211 4.211 0 014.203-4.203v-.5zm4.703 4.703a4.711 4.711 0 00-4.703-4.703v.5a4.211 4.211 0 014.203 4.203h.5zm-4.703 4.703a4.711 4.711 0 004.703-4.703h-.5a4.211 4.211 0 01-4.203 4.203v.5zm-4.703-4.703a4.711 4.711 0 004.703 4.703v-.5a4.211 4.211 0 01-4.203-4.203h-.5zm19.744 0a4.211 4.211 0 014.203-4.203v-.5a4.711 4.711 0 00-4.703 4.703h.5zm4.203 4.203a4.211 4.211 0 01-4.203-4.203h-.5a4.711 4.711 0 004.703 4.703v-.5zm4.203-4.203a4.211 4.211 0 01-4.203 4.203v.5a4.711 4.711 0 004.703-4.703h-.5zm-4.203-4.203a4.211 4.211 0 014.203 4.203h.5a4.711 4.711 0 00-4.703-4.703v.5zm19.245-.5a4.711 4.711 0 00-4.703 4.703h.5a4.211 4.211 0 014.203-4.203v-.5zm4.703 4.703a4.711 4.711 0 00-4.703-4.703v.5a4.211 4.211 0 014.203 4.203h.5zm-4.703 4.703a4.711 4.711 0 004.703-4.703h-.5a4.211 4.211 0 01-4.203 4.203v.5zm-4.703-4.703a4.711 4.711 0 004.703 4.703v-.5a4.211 4.211 0 01-4.203-4.203h-.5zm-22.08-12.195c0 .349.284.632.633.632v-.5a.133.133 0 01-.133-.132h-.5zm0-5.72v5.72h.5v-5.72h-.5zm.633-.632a.634.634 0 00-.633.633h.5c0-.073.06-.133.133-.133v-.5zm.633.633a.634.634 0 00-.633-.633v.5c.073 0 .133.06.133.133h.5zm0 5.719v-5.72h-.5v5.72h.5zm-.633.632c.352 0 .646-.28.633-.642l-.5.019c.002.06-.047.123-.133.123v.5zm4.389-.5a.133.133 0 01-.133-.132h-.5c0 .349.284.632.633.632v-.5zm.132-.132c0 .073-.06.132-.132.132v.5c.349 0 .632-.283.632-.632h-.5zm0-5.72v5.72h.5v-5.72h-.5zm-.132-.132c.072 0 .132.06.132.133h.5a.634.634 0 00-.632-.633v.5zm-.133.133c0-.073.06-.133.133-.133v-.5a.634.634 0 00-.633.633h.5zm0 5.719v-5.72h-.5v5.72h.5zm4.523.03c0 .35.284.634.633.634v-.5a.133.133 0 01-.133-.133h-.5zm0-5.718v5.719h.5v-5.719h-.5zm.633-.633a.633.633 0 00-.633.633h.5c0-.073.06-.133.133-.133v-.5zm.633.633a.633.633 0 00-.633-.633v.5c.073 0 .133.06.133.133h.5zm0 5.719v-5.719h-.5v5.719h.5zm-.633.633a.633.633 0 00.633-.633h-.5c0 .073-.06.133-.133.133v.5zm4.687-.532a.133.133 0 01-.133-.132h-.5c0 .349.284.632.633.632v-.5zm.133-.132c0 .073-.06.132-.133.132v.5a.633.633 0 00.633-.632h-.5zm0-5.72v5.72h.5v-5.72h-.5zm-.133-.132c.073 0 .133.06.133.133h.5a.634.634 0 00-.633-.633v.5zm-.133.133c0-.073.06-.133.133-.133v-.5a.634.634 0 00-.633.633h.5zm0 5.719v-5.72h-.5v5.72h.5z"/></g></svg>