<svg width="1920" height="6576" fill="none" xmlns="http://www.w3.org/2000/svg"><g opacity=".6"><path d="M95.979 0v89.128m0-89.128H0v89.128M95.979 0h95.979M95.979 89.128v89.128m0-89.128H0m95.979 0h95.979m-95.979 89.128v89.129m0-89.129H0m95.979 0h95.979m-95.979 89.129v89.128m0-89.128H0m95.979 0h95.979m-95.979 89.128v89.128m0-89.128H0m95.979 0h95.979m-95.979 89.128v89.128m0-89.128H0m95.979 0h95.979m-95.979 89.128v89.128m0-89.128H0m95.979 0h95.979m-95.979 89.128v89.129m0-89.129H0m95.979 0h95.979m-95.979 89.129v89.128m0-89.128H0m95.979 0h95.979m-95.979 89.128v89.128m0-89.128H0m95.979 0h95.979m-95.979 89.128v89.128m0-89.128H0m95.979 0h95.979M95.979 980.41v89.13m0-89.13H0m95.979 0h95.979m-95.979 89.13v89.13m0-89.13H0m95.979 0h95.979m-95.979 89.13H0v-89.13m95.979 89.13h95.979M0 89.128v89.128m0 0v89.129m0 0v89.128m0 0v89.128m0 0v89.128m0 0v89.128m0 0v89.129m0 0v89.128m0 0v89.128m0 0v89.128m0 0v89.13M191.958 0v89.128m0-89.128h95.979m-95.979 89.128v89.128m0-89.128h95.979m-95.979 89.128v89.129m0-89.129h95.979m-95.979 89.129v89.128m0-89.128h95.979m-95.979 89.128v89.128m0-89.128h95.979m-95.979 89.128v89.128m0-89.128h95.979m-95.979 89.128v89.128m0-89.128h95.979m-95.979 89.128v89.129m0-89.129h95.979m-95.979 89.129v89.128m0-89.128h95.979m-95.979 89.128v89.128m0-89.128h95.979m-95.979 89.128v89.128m0-89.128h95.979m-95.979 89.128v89.13m0-89.13h95.979m-95.979 89.13v89.13m0-89.13h95.979m-95.979 89.13h95.979m0-1158.67v89.128m0-89.128h95.979m-95.979 89.128v89.128m0-89.128h95.979m-95.979 89.128v89.129m0-89.129h95.979m-95.979 89.129v89.128m0-89.128h95.979m-95.979 89.128v89.128m0-89.128h95.979m-95.979 89.128v89.128m0-89.128h95.979m-95.979 89.128v89.128m0-89.128h95.979m-95.979 89.128v89.129m0-89.129h95.979m-95.979 89.129v89.128m0-89.128h95.979m-95.979 89.128v89.128m0-89.128h95.979m-95.979 89.128v89.128m0-89.128h95.979m-95.979 89.128v89.13m0-89.13h95.979m-95.979 89.13v89.13m0-89.13h95.979m-95.979 89.13h95.979m0-1158.67v89.128m0-89.128h95.979m-95.979 89.128v89.128m0-89.128h95.979m-95.979 89.128v89.129m0-89.129h95.979m-95.979 89.129v89.128m0-89.128h95.979m-95.979 89.128v89.128m0-89.128h95.979m-95.979 89.128v89.128m0-89.128h95.979m-95.979 89.128v89.128m0-89.128h95.979m-95.979 89.128v89.129m0-89.129h95.979m-95.979 89.129v89.128m0-89.128h95.979m-95.979 89.128v89.128m0-89.128h95.979m-95.979 89.128v89.128m0-89.128h95.979m-95.979 89.128v89.13m0-89.13h95.979m-95.979 89.13v89.13m0-89.13h95.979m-95.979 89.13h95.979M671.853 0v89.128m0-89.128h-95.979m95.979 0h95.979m-95.979 89.128v89.128m0-89.128h-95.979m95.979 0h95.979m-95.979 89.128v89.129m0-89.129h-95.979m95.979 0h95.979m-95.979 89.129v89.128m0-89.128h-95.979m95.979 0h95.979m-95.979 89.128v89.128m0-89.128h-95.979m95.979 0h95.979m-95.979 89.128v89.128m0-89.128h-95.979m95.979 0h95.979m-95.979 89.128v89.128m0-89.128h-95.979m95.979 0h95.979m-95.979 89.128v89.129m0-89.129h-95.979m95.979 0h95.979m-95.979 89.129v89.128m0-89.128h-95.979m95.979 0h95.979m-95.979 89.128v89.128m0-89.128h-95.979m95.979 0h95.979m-95.979 89.128v89.128m0-89.128h-95.979m95.979 0h95.979m-95.979 89.128v89.13m0-89.13h-95.979m95.979 0h95.979m-95.979 89.13v89.13m0-89.13h-95.979m95.979 0h95.979m-95.979 89.13h-95.979m95.979 0h95.979M959.79 0v89.128m0-89.128h-95.979m95.979 0h95.98m-95.98 89.128v89.128m0-89.128h-95.979m95.979 0h95.98m-95.98 89.128v89.129m0-89.129h-95.979m95.979 0h95.98m-95.98 89.129v89.128m0-89.128h-95.979m95.979 0h95.98m-95.98 89.128v89.128m0-89.128h-95.979m95.979 0h95.98m-95.98 89.128v89.128m0-89.128h-95.979m95.979 0h95.98m-95.98 89.128v89.128m0-89.128h-95.979m95.979 0h95.98m-95.98 89.128v89.129m0-89.129h-95.979m95.979 0h95.98m-95.98 89.129v89.128m0-89.128h-95.979m95.979 0h95.98m-95.98 89.128v89.128m0-89.128h-95.979m95.979 0h95.98m-95.98 89.128v89.128m0-89.128h-95.979m95.979 0h95.98m-95.98 89.128v89.13m0-89.13h-95.979m95.979 0h95.98m-95.98 89.13v89.13m0-89.13h-95.979m95.979 0h95.98m-95.98 89.13h-95.979m95.979 0h95.98M479.895 0v89.128m0-89.128h95.979m-95.979 89.128v89.128m0-89.128h95.979m-95.979 89.128v89.129m0-89.129h95.979m-95.979 89.129v89.128m0-89.128h95.979m-95.979 89.128v89.128m0-89.128h95.979m-95.979 89.128v89.128m0-89.128h95.979m-95.979 89.128v89.128m0-89.128h95.979m-95.979 89.128v89.129m0-89.129h95.979m-95.979 89.129v89.128m0-89.128h95.979m-95.979 89.128v89.128m0-89.128h95.979m-95.979 89.128v89.128m0-89.128h95.979m-95.979 89.128v89.13m0-89.13h95.979m-95.979 89.13v89.13m0-89.13h95.979m-95.979 89.13h95.979M767.832 0v89.128m0-89.128h95.979m-95.979 89.128v89.128m0-89.128h95.979m-95.979 89.128v89.129m0-89.129h95.979m-95.979 89.129v89.128m0-89.128h95.979m-95.979 89.128v89.128m0-89.128h95.979m-95.979 89.128v89.128m0-89.128h95.979m-95.979 89.128v89.128m0-89.128h95.979m-95.979 89.128v89.129m0-89.129h95.979m-95.979 89.129v89.128m0-89.128h95.979m-95.979 89.128v89.128m0-89.128h95.979m-95.979 89.128v89.128m0-89.128h95.979m-95.979 89.128v89.13m0-89.13h95.979m-95.979 89.13v89.13m0-89.13h95.979m-95.979 89.13h95.979M1055.77 0v89.128m0-89.128h95.98m-95.98 89.128v89.128m0-89.128h95.98m-95.98 89.128v89.129m0-89.129h95.98m-95.98 89.129v89.128m0-89.128h95.98m-95.98 89.128v89.128m0-89.128h95.98m-95.98 89.128v89.128m0-89.128h95.98m-95.98 89.128v89.128m0-89.128h95.98m-95.98 89.128v89.129m0-89.129h95.98m-95.98 89.129v89.128m0-89.128h95.98m-95.98 89.128v89.128m0-89.128h95.98m-95.98 89.128v89.128m0-89.128h95.98m-95.98 89.128v89.13m0-89.13h95.98m-95.98 89.13v89.13m0-89.13h95.98m-95.98 89.13h95.98M575.874 0v89.128m0 0v89.128m0 0v89.129m0 0v89.128m0 0v89.128m0 0v89.128m0 0v89.128m0 0v89.129m0 0v89.128m0 0v89.128m0 0v89.128m0 0v89.13m0 0v89.13M863.811 0v89.128m0 0v89.128m0 0v89.129m0 0v89.128m0 0v89.128m0 0v89.128m0 0v89.128m0 0v89.129m0 0v89.128m0 0v89.128m0 0v89.128m0 0v89.13m0 0v89.13M1151.75 0v89.128m0-89.128h95.98v1158.67h-95.98m0-1069.542v89.128m0-89.128h95.98m-95.98 89.128v89.129m0-89.129h95.98m-95.98 89.129v89.128m0-89.128h95.98m-95.98 89.128v89.128m0-89.128h95.98m-95.98 89.128v89.128m0-89.128h95.98m-95.98 89.128v89.128m0-89.128h95.98m-95.98 89.128v89.129m0-89.129h95.98m-95.98 89.129v89.128m0-89.128h95.98m-95.98 89.128v89.128m0-89.128h95.98m-95.98 89.128v89.128m0-89.128h95.98m-95.98 89.128v89.13m0-89.13h95.98m-95.98 89.13v89.13m0-89.13h95.98M768.252 0v89.128m0-89.128h-95.979v89.128M768.252 0h95.979m-95.979 89.128v89.128m0-89.128h-95.979m95.979 0h95.979m-95.979 89.128v89.129m0-89.129h-95.979m95.979 0h95.979m-95.979 89.129v89.128m0-89.128h-95.979m95.979 0h95.979m-95.979 89.128v89.128m0-89.128h-95.979m95.979 0h95.979m-95.979 89.128v89.128m0-89.128h-95.979m95.979 0h95.979m-95.979 89.128v89.128m0-89.128h-95.979m95.979 0h95.979m-95.979 89.128v89.129m0-89.129h-95.979m95.979 0h95.979m-95.979 89.129v89.128m0-89.128h-95.979m95.979 0h95.979m-95.979 89.128v89.128m0-89.128h-95.979m95.979 0h95.979m-95.979 89.128v89.128m0-89.128h-95.979m95.979 0h95.979m-95.979 89.128v89.13m0-89.13h-95.979m95.979 0h95.979m-95.979 89.13v89.13m0-89.13h-95.979m95.979 0h95.979m-95.979 89.13h-95.979v-89.13m95.979 89.13h95.979M672.273 89.128v89.128m0 0v89.129m0 0v89.128m0 0v89.128m0 0v89.128m0 0v89.128m0 0v89.129m0 0v89.128m0 0v89.128m0 0v89.128m0 0v89.13M864.231 0v89.128m0-89.128h95.979m-95.979 89.128v89.128m0-89.128h95.979m-95.979 89.128v89.129m0-89.129h95.979m-95.979 89.129v89.128m0-89.128h95.979m-95.979 89.128v89.128m0-89.128h95.979m-95.979 89.128v89.128m0-89.128h95.979m-95.979 89.128v89.128m0-89.128h95.979m-95.979 89.128v89.129m0-89.129h95.979m-95.979 89.129v89.128m0-89.128h95.979m-95.979 89.128v89.128m0-89.128h95.979m-95.979 89.128v89.128m0-89.128h95.979m-95.979 89.128v89.13m0-89.13h95.979m-95.979 89.13v89.13m0-89.13h95.979m-95.979 89.13h95.979M960.21 0v89.128m0-89.128h95.98m-95.98 89.128v89.128m0-89.128h95.98m-95.98 89.128v89.129m0-89.129h95.98m-95.98 89.129v89.128m0-89.128h95.98m-95.98 89.128v89.128m0-89.128h95.98m-95.98 89.128v89.128m0-89.128h95.98m-95.98 89.128v89.128m0-89.128h95.98m-95.98 89.128v89.129m0-89.129h95.98m-95.98 89.129v89.128m0-89.128h95.98m-95.98 89.128v89.128m0-89.128h95.98m-95.98 89.128v89.128m0-89.128h95.98m-95.98 89.128v89.13m0-89.13h95.98m-95.98 89.13v89.13m0-89.13h95.98m-95.98 89.13h95.98m0-1158.67v89.128m0-89.128h95.98m-95.98 89.128v89.128m0-89.128h95.98m-95.98 89.128v89.129m0-89.129h95.98m-95.98 89.129v89.128m0-89.128h95.98m-95.98 89.128v89.128m0-89.128h95.98m-95.98 89.128v89.128m0-89.128h95.98m-95.98 89.128v89.128m0-89.128h95.98m-95.98 89.128v89.129m0-89.129h95.98m-95.98 89.129v89.128m0-89.128h95.98m-95.98 89.128v89.128m0-89.128h95.98m-95.98 89.128v89.128m0-89.128h95.98m-95.98 89.128v89.13m0-89.13h95.98m-95.98 89.13v89.13m0-89.13h95.98m-95.98 89.13h95.98M1344.13 0v89.128m0-89.128h-95.98m95.98 0h95.97m-95.97 89.128v89.128m0-89.128h-95.98m95.98 0h95.97m-95.97 89.128v89.129m0-89.129h-95.98m95.98 0h95.97m-95.97 89.129v89.128m0-89.128h-95.98m95.98 0h95.97m-95.97 89.128v89.128m0-89.128h-95.98m95.98 0h95.97m-95.97 89.128v89.128m0-89.128h-95.98m95.98 0h95.97m-95.97 89.128v89.128m0-89.128h-95.98m95.98 0h95.97m-95.97 89.128v89.129m0-89.129h-95.98m95.98 0h95.97m-95.97 89.129v89.128m0-89.128h-95.98m95.98 0h95.97m-95.97 89.128v89.128m0-89.128h-95.98m95.98 0h95.97m-95.97 89.128v89.128m0-89.128h-95.98m95.98 0h95.97m-95.97 89.128v89.13m0-89.13h-95.98m95.98 0h95.97m-95.97 89.13v89.13m0-89.13h-95.98m95.98 0h95.97m-95.97 89.13h-95.98m95.98 0h95.97M1632.06 0v89.128m0-89.128h-95.98m95.98 0h95.98m-95.98 89.128v89.128m0-89.128h-95.98m95.98 0h95.98m-95.98 89.128v89.129m0-89.129h-95.98m95.98 0h95.98m-95.98 89.129v89.128m0-89.128h-95.98m95.98 0h95.98m-95.98 89.128v89.128m0-89.128h-95.98m95.98 0h95.98m-95.98 89.128v89.128m0-89.128h-95.98m95.98 0h95.98m-95.98 89.128v89.128m0-89.128h-95.98m95.98 0h95.98m-95.98 89.128v89.129m0-89.129h-95.98m95.98 0h95.98m-95.98 89.129v89.128m0-89.128h-95.98m95.98 0h95.98m-95.98 89.128v89.128m0-89.128h-95.98m95.98 0h95.98m-95.98 89.128v89.128m0-89.128h-95.98m95.98 0h95.98m-95.98 89.128v89.13m0-89.13h-95.98m95.98 0h95.98m-95.98 89.13v89.13m0-89.13h-95.98m95.98 0h95.98m-95.98 89.13h-95.98m95.98 0h95.98M1152.17 0v89.128m0-89.128h95.98m-95.98 89.128v89.128m0-89.128h95.98m-95.98 89.128v89.129m0-89.129h95.98m-95.98 89.129v89.128m0-89.128h95.98m-95.98 89.128v89.128m0-89.128h95.98m-95.98 89.128v89.128m0-89.128h95.98m-95.98 89.128v89.128m0-89.128h95.98m-95.98 89.128v89.129m0-89.129h95.98m-95.98 89.129v89.128m0-89.128h95.98m-95.98 89.128v89.128m0-89.128h95.98m-95.98 89.128v89.128m0-89.128h95.98m-95.98 89.128v89.13m0-89.13h95.98m-95.98 89.13v89.13m0-89.13h95.98m-95.98 89.13h95.98M1440.1 0v89.128m0-89.128h95.98m-95.98 89.128v89.128m0-89.128h95.98m-95.98 89.128v89.129m0-89.129h95.98m-95.98 89.129v89.128m0-89.128h95.98m-95.98 89.128v89.128m0-89.128h95.98m-95.98 89.128v89.128m0-89.128h95.98m-95.98 89.128v89.128m0-89.128h95.98m-95.98 89.128v89.129m0-89.129h95.98m-95.98 89.129v89.128m0-89.128h95.98m-95.98 89.128v89.128m0-89.128h95.98m-95.98 89.128v89.128m0-89.128h95.98m-95.98 89.128v89.13m0-89.13h95.98m-95.98 89.13v89.13m0-89.13h95.98m-95.98 89.13h95.98M1728.04 0v89.128m0-89.128h95.98m-95.98 89.128v89.128m0-89.128h95.98m-95.98 89.128v89.129m0-89.129h95.98m-95.98 89.129v89.128m0-89.128h95.98m-95.98 89.128v89.128m0-89.128h95.98m-95.98 89.128v89.128m0-89.128h95.98m-95.98 89.128v89.128m0-89.128h95.98m-95.98 89.128v89.129m0-89.129h95.98m-95.98 89.129v89.128m0-89.128h95.98m-95.98 89.128v89.128m0-89.128h95.98m-95.98 89.128v89.128m0-89.128h95.98m-95.98 89.128v89.13m0-89.13h95.98m-95.98 89.13v89.13m0-89.13h95.98m-95.98 89.13h95.98M1248.15 0v89.128m0 0v89.128m0 0v89.129m0 0v89.128m0 0v89.128m0 0v89.128m0 0v89.128m0 0v89.129m0 0v89.128m0 0v89.128m0 0v89.128m0 0v89.13m0 0v89.13M1536.08 0v89.128m0 0v89.128m0 0v89.129m0 0v89.128m0 0v89.128m0 0v89.128m0 0v89.128m0 0v89.129m0 0v89.128m0 0v89.128m0 0v89.128m0 0v89.13m0 0v89.13M1824.02 0v89.128m0-89.128H1920v1158.67h-95.98m0-1069.542v89.128m0-89.128H1920m-95.98 89.128v89.129m0-89.129H1920m-95.98 89.129v89.128m0-89.128H1920m-95.98 89.128v89.128m0-89.128H1920m-95.98 89.128v89.128m0-89.128H1920m-95.98 89.128v89.128m0-89.128H1920m-95.98 89.128v89.129m0-89.129H1920m-95.98 89.129v89.128m0-89.128H1920m-95.98 89.128v89.128m0-89.128H1920m-95.98 89.128v89.128m0-89.128H1920m-95.98 89.128v89.13m0-89.13H1920m-95.98 89.13v89.13m0-89.13H1920" stroke="url(#paint0_linear_431_790)"/><path d="M95.979 1158.67v89.12m0-89.12H0v89.12m95.979-89.12h95.979m-95.979 89.12v89.13m0-89.13H0m95.979 0h95.979m-95.979 89.13v89.13m0-89.13H0m95.979 0h95.979m-95.979 89.13v89.13m0-89.13H0m95.979 0h95.979m-95.979 89.13v89.13m0-89.13H0m95.979 0h95.979m-95.979 89.13v89.13m0-89.13H0m95.979 0h95.979m-95.979 89.13v89.12m0-89.12H0m95.979 0h95.979m-95.979 89.12v89.13m0-89.13H0m95.979 0h95.979m-95.979 89.13v89.13m0-89.13H0m95.979 0h95.979m-95.979 89.13v89.13m0-89.13H0m95.979 0h95.979m-95.979 89.13v89.13m0-89.13H0m95.979 0h95.979m-95.979 89.13v89.12m0-89.12H0m95.979 0h95.979m-95.979 89.12v89.13m0-89.13H0m95.979 0h95.979m-95.979 89.13H0v-89.13m95.979 89.13h95.979M0 1247.79v89.13m0 0v89.13m0 0v89.13m0 0v89.13m0 0v89.13m0 0v89.12m0 0v89.13m0 0v89.13m0 0v89.13m0 0v89.13m0 0v89.12m191.958-1069.53v89.12m0-89.12h95.979m-95.979 89.12v89.13m0-89.13h95.979m-95.979 89.13v89.13m0-89.13h95.979m-95.979 89.13v89.13m0-89.13h95.979m-95.979 89.13v89.13m0-89.13h95.979m-95.979 89.13v89.13m0-89.13h95.979m-95.979 89.13v89.12m0-89.12h95.979m-95.979 89.12v89.13m0-89.13h95.979m-95.979 89.13v89.13m0-89.13h95.979m-95.979 89.13v89.13m0-89.13h95.979m-95.979 89.13v89.13m0-89.13h95.979m-95.979 89.13v89.12m0-89.12h95.979m-95.979 89.12v89.13m0-89.13h95.979m-95.979 89.13h95.979m0-1158.66v89.12m0-89.12h95.979m-95.979 89.12v89.13m0-89.13h95.979m-95.979 89.13v89.13m0-89.13h95.979m-95.979 89.13v89.13m0-89.13h95.979m-95.979 89.13v89.13m0-89.13h95.979m-95.979 89.13v89.13m0-89.13h95.979m-95.979 89.13v89.12m0-89.12h95.979m-95.979 89.12v89.13m0-89.13h95.979m-95.979 89.13v89.13m0-89.13h95.979m-95.979 89.13v89.13m0-89.13h95.979m-95.979 89.13v89.13m0-89.13h95.979m-95.979 89.13v89.12m0-89.12h95.979m-95.979 89.12v89.13m0-89.13h95.979m-95.979 89.13h95.979m0-1158.66v89.12m0-89.12h95.979m-95.979 89.12v89.13m0-89.13h95.979m-95.979 89.13v89.13m0-89.13h95.979m-95.979 89.13v89.13m0-89.13h95.979m-95.979 89.13v89.13m0-89.13h95.979m-95.979 89.13v89.13m0-89.13h95.979m-95.979 89.13v89.12m0-89.12h95.979m-95.979 89.12v89.13m0-89.13h95.979m-95.979 89.13v89.13m0-89.13h95.979m-95.979 89.13v89.13m0-89.13h95.979m-95.979 89.13v89.13m0-89.13h95.979m-95.979 89.13v89.12m0-89.12h95.979m-95.979 89.12v89.13m0-89.13h95.979m-95.979 89.13h95.979m191.958-1158.66v89.12m0-89.12h-95.979m95.979 0h95.979m-95.979 89.12v89.13m0-89.13h-95.979m95.979 0h95.979m-95.979 89.13v89.13m0-89.13h-95.979m95.979 0h95.979m-95.979 89.13v89.13m0-89.13h-95.979m95.979 0h95.979m-95.979 89.13v89.13m0-89.13h-95.979m95.979 0h95.979m-95.979 89.13v89.13m0-89.13h-95.979m95.979 0h95.979m-95.979 89.13v89.12m0-89.12h-95.979m95.979 0h95.979m-95.979 89.12v89.13m0-89.13h-95.979m95.979 0h95.979m-95.979 89.13v89.13m0-89.13h-95.979m95.979 0h95.979m-95.979 89.13v89.13m0-89.13h-95.979m95.979 0h95.979m-95.979 89.13v89.13m0-89.13h-95.979m95.979 0h95.979m-95.979 89.13v89.12m0-89.12h-95.979m95.979 0h95.979m-95.979 89.12v89.13m0-89.13h-95.979m95.979 0h95.979m-95.979 89.13h-95.979m95.979 0h95.979M959.79 1158.67v89.12m0-89.12h-95.979m95.979 0h95.98m-95.98 89.12v89.13m0-89.13h-95.979m95.979 0h95.98m-95.98 89.13v89.13m0-89.13h-95.979m95.979 0h95.98m-95.98 89.13v89.13m0-89.13h-95.979m95.979 0h95.98m-95.98 89.13v89.13m0-89.13h-95.979m95.979 0h95.98m-95.98 89.13v89.13m0-89.13h-95.979m95.979 0h95.98m-95.98 89.13v89.12m0-89.12h-95.979m95.979 0h95.98m-95.98 89.12v89.13m0-89.13h-95.979m95.979 0h95.98m-95.98 89.13v89.13m0-89.13h-95.979m95.979 0h95.98m-95.98 89.13v89.13m0-89.13h-95.979m95.979 0h95.98m-95.98 89.13v89.13m0-89.13h-95.979m95.979 0h95.98m-95.98 89.13v89.12m0-89.12h-95.979m95.979 0h95.98m-95.98 89.12v89.13m0-89.13h-95.979m95.979 0h95.98m-95.98 89.13h-95.979m95.979 0h95.98M479.895 1158.67v89.12m0-89.12h95.979m-95.979 89.12v89.13m0-89.13h95.979m-95.979 89.13v89.13m0-89.13h95.979m-95.979 89.13v89.13m0-89.13h95.979m-95.979 89.13v89.13m0-89.13h95.979m-95.979 89.13v89.13m0-89.13h95.979m-95.979 89.13v89.12m0-89.12h95.979m-95.979 89.12v89.13m0-89.13h95.979m-95.979 89.13v89.13m0-89.13h95.979m-95.979 89.13v89.13m0-89.13h95.979m-95.979 89.13v89.13m0-89.13h95.979m-95.979 89.13v89.12m0-89.12h95.979m-95.979 89.12v89.13m0-89.13h95.979m-95.979 89.13h95.979m191.958-1158.66v89.12m0-89.12h95.979m-95.979 89.12v89.13m0-89.13h95.979m-95.979 89.13v89.13m0-89.13h95.979m-95.979 89.13v89.13m0-89.13h95.979m-95.979 89.13v89.13m0-89.13h95.979m-95.979 89.13v89.13m0-89.13h95.979m-95.979 89.13v89.12m0-89.12h95.979m-95.979 89.12v89.13m0-89.13h95.979m-95.979 89.13v89.13m0-89.13h95.979m-95.979 89.13v89.13m0-89.13h95.979m-95.979 89.13v89.13m0-89.13h95.979m-95.979 89.13v89.12m0-89.12h95.979m-95.979 89.12v89.13m0-89.13h95.979m-95.979 89.13h95.979m191.959-1158.66v89.12m0-89.12h95.98m-95.98 89.12v89.13m0-89.13h95.98m-95.98 89.13v89.13m0-89.13h95.98m-95.98 89.13v89.13m0-89.13h95.98m-95.98 89.13v89.13m0-89.13h95.98m-95.98 89.13v89.13m0-89.13h95.98m-95.98 89.13v89.12m0-89.12h95.98m-95.98 89.12v89.13m0-89.13h95.98m-95.98 89.13v89.13m0-89.13h95.98m-95.98 89.13v89.13m0-89.13h95.98m-95.98 89.13v89.13m0-89.13h95.98m-95.98 89.13v89.12m0-89.12h95.98m-95.98 89.12v89.13m0-89.13h95.98m-95.98 89.13h95.98M575.874 1158.67v89.12m0 0v89.13m0 0v89.13m0 0v89.13m0 0v89.13m0 0v89.13m0 0v89.12m0 0v89.13m0 0v89.13m0 0v89.13m0 0v89.13m0 0v89.12m0 0v89.13m287.937-1158.66v89.12m0 0v89.13m0 0v89.13m0 0v89.13m0 0v89.13m0 0v89.13m0 0v89.12m0 0v89.13m0 0v89.13m0 0v89.13m0 0v89.13m0 0v89.12m0 0v89.13m287.939-1158.66v89.12m0-89.12h95.98v1158.66h-95.98m0-1069.54v89.13m0-89.13h95.98m-95.98 89.13v89.13m0-89.13h95.98m-95.98 89.13v89.13m0-89.13h95.98m-95.98 89.13v89.13m0-89.13h95.98m-95.98 89.13v89.13m0-89.13h95.98m-95.98 89.13v89.12m0-89.12h95.98m-95.98 89.12v89.13m0-89.13h95.98m-95.98 89.13v89.13m0-89.13h95.98m-95.98 89.13v89.13m0-89.13h95.98m-95.98 89.13v89.13m0-89.13h95.98m-95.98 89.13v89.12m0-89.12h95.98m-95.98 89.12v89.13m0-89.13h95.98M768.252 1158.67v89.12m0-89.12h-95.979v89.12m95.979-89.12h95.979m-95.979 89.12v89.13m0-89.13h-95.979m95.979 0h95.979m-95.979 89.13v89.13m0-89.13h-95.979m95.979 0h95.979m-95.979 89.13v89.13m0-89.13h-95.979m95.979 0h95.979m-95.979 89.13v89.13m0-89.13h-95.979m95.979 0h95.979m-95.979 89.13v89.13m0-89.13h-95.979m95.979 0h95.979m-95.979 89.13v89.12m0-89.12h-95.979m95.979 0h95.979m-95.979 89.12v89.13m0-89.13h-95.979m95.979 0h95.979m-95.979 89.13v89.13m0-89.13h-95.979m95.979 0h95.979m-95.979 89.13v89.13m0-89.13h-95.979m95.979 0h95.979m-95.979 89.13v89.13m0-89.13h-95.979m95.979 0h95.979m-95.979 89.13v89.12m0-89.12h-95.979m95.979 0h95.979m-95.979 89.12v89.13m0-89.13h-95.979m95.979 0h95.979m-95.979 89.13h-95.979v-89.13m95.979 89.13h95.979M672.273 1247.79v89.13m0 0v89.13m0 0v89.13m0 0v89.13m0 0v89.13m0 0v89.12m0 0v89.13m0 0v89.13m0 0v89.13m0 0v89.13m0 0v89.12m191.958-1069.53v89.12m0-89.12h95.979m-95.979 89.12v89.13m0-89.13h95.979m-95.979 89.13v89.13m0-89.13h95.979m-95.979 89.13v89.13m0-89.13h95.979m-95.979 89.13v89.13m0-89.13h95.979m-95.979 89.13v89.13m0-89.13h95.979m-95.979 89.13v89.12m0-89.12h95.979m-95.979 89.12v89.13m0-89.13h95.979m-95.979 89.13v89.13m0-89.13h95.979m-95.979 89.13v89.13m0-89.13h95.979m-95.979 89.13v89.13m0-89.13h95.979m-95.979 89.13v89.12m0-89.12h95.979m-95.979 89.12v89.13m0-89.13h95.979m-95.979 89.13h95.979m0-1158.66v89.12m0-89.12h95.98m-95.98 89.12v89.13m0-89.13h95.98m-95.98 89.13v89.13m0-89.13h95.98m-95.98 89.13v89.13m0-89.13h95.98m-95.98 89.13v89.13m0-89.13h95.98m-95.98 89.13v89.13m0-89.13h95.98m-95.98 89.13v89.12m0-89.12h95.98m-95.98 89.12v89.13m0-89.13h95.98m-95.98 89.13v89.13m0-89.13h95.98m-95.98 89.13v89.13m0-89.13h95.98m-95.98 89.13v89.13m0-89.13h95.98m-95.98 89.13v89.12m0-89.12h95.98m-95.98 89.12v89.13m0-89.13h95.98m-95.98 89.13h95.98m0-1158.66v89.12m0-89.12h95.98m-95.98 89.12v89.13m0-89.13h95.98m-95.98 89.13v89.13m0-89.13h95.98m-95.98 89.13v89.13m0-89.13h95.98m-95.98 89.13v89.13m0-89.13h95.98m-95.98 89.13v89.13m0-89.13h95.98m-95.98 89.13v89.12m0-89.12h95.98m-95.98 89.12v89.13m0-89.13h95.98m-95.98 89.13v89.13m0-89.13h95.98m-95.98 89.13v89.13m0-89.13h95.98m-95.98 89.13v89.13m0-89.13h95.98m-95.98 89.13v89.12m0-89.12h95.98m-95.98 89.12v89.13m0-89.13h95.98m-95.98 89.13h95.98m191.96-1158.66v89.12m0-89.12h-95.98m95.98 0h95.97m-95.97 89.12v89.13m0-89.13h-95.98m95.98 0h95.97m-95.97 89.13v89.13m0-89.13h-95.98m95.98 0h95.97m-95.97 89.13v89.13m0-89.13h-95.98m95.98 0h95.97m-95.97 89.13v89.13m0-89.13h-95.98m95.98 0h95.97m-95.97 89.13v89.13m0-89.13h-95.98m95.98 0h95.97m-95.97 89.13v89.12m0-89.12h-95.98m95.98 0h95.97m-95.97 89.12v89.13m0-89.13h-95.98m95.98 0h95.97m-95.97 89.13v89.13m0-89.13h-95.98m95.98 0h95.97m-95.97 89.13v89.13m0-89.13h-95.98m95.98 0h95.97m-95.97 89.13v89.13m0-89.13h-95.98m95.98 0h95.97m-95.97 89.13v89.12m0-89.12h-95.98m95.98 0h95.97m-95.97 89.12v89.13m0-89.13h-95.98m95.98 0h95.97m-95.97 89.13h-95.98m95.98 0h95.97m191.96-1158.66v89.12m0-89.12h-95.98m95.98 0h95.98m-95.98 89.12v89.13m0-89.13h-95.98m95.98 0h95.98m-95.98 89.13v89.13m0-89.13h-95.98m95.98 0h95.98m-95.98 89.13v89.13m0-89.13h-95.98m95.98 0h95.98m-95.98 89.13v89.13m0-89.13h-95.98m95.98 0h95.98m-95.98 89.13v89.13m0-89.13h-95.98m95.98 0h95.98m-95.98 89.13v89.12m0-89.12h-95.98m95.98 0h95.98m-95.98 89.12v89.13m0-89.13h-95.98m95.98 0h95.98m-95.98 89.13v89.13m0-89.13h-95.98m95.98 0h95.98m-95.98 89.13v89.13m0-89.13h-95.98m95.98 0h95.98m-95.98 89.13v89.13m0-89.13h-95.98m95.98 0h95.98m-95.98 89.13v89.12m0-89.12h-95.98m95.98 0h95.98m-95.98 89.12v89.13m0-89.13h-95.98m95.98 0h95.98m-95.98 89.13h-95.98m95.98 0h95.98m-575.87-1158.66v89.12m0-89.12h95.98m-95.98 89.12v89.13m0-89.13h95.98m-95.98 89.13v89.13m0-89.13h95.98m-95.98 89.13v89.13m0-89.13h95.98m-95.98 89.13v89.13m0-89.13h95.98m-95.98 89.13v89.13m0-89.13h95.98m-95.98 89.13v89.12m0-89.12h95.98m-95.98 89.12v89.13m0-89.13h95.98m-95.98 89.13v89.13m0-89.13h95.98m-95.98 89.13v89.13m0-89.13h95.98m-95.98 89.13v89.13m0-89.13h95.98m-95.98 89.13v89.12m0-89.12h95.98m-95.98 89.12v89.13m0-89.13h95.98m-95.98 89.13h95.98m191.95-1158.66v89.12m0-89.12h95.98m-95.98 89.12v89.13m0-89.13h95.98m-95.98 89.13v89.13m0-89.13h95.98m-95.98 89.13v89.13m0-89.13h95.98m-95.98 89.13v89.13m0-89.13h95.98m-95.98 89.13v89.13m0-89.13h95.98m-95.98 89.13v89.12m0-89.12h95.98m-95.98 89.12v89.13m0-89.13h95.98m-95.98 89.13v89.13m0-89.13h95.98m-95.98 89.13v89.13m0-89.13h95.98m-95.98 89.13v89.13m0-89.13h95.98m-95.98 89.13v89.12m0-89.12h95.98m-95.98 89.12v89.13m0-89.13h95.98m-95.98 89.13h95.98m191.96-1158.66v89.12m0-89.12h95.98m-95.98 89.12v89.13m0-89.13h95.98m-95.98 89.13v89.13m0-89.13h95.98m-95.98 89.13v89.13m0-89.13h95.98m-95.98 89.13v89.13m0-89.13h95.98m-95.98 89.13v89.13m0-89.13h95.98m-95.98 89.13v89.12m0-89.12h95.98m-95.98 89.12v89.13m0-89.13h95.98m-95.98 89.13v89.13m0-89.13h95.98m-95.98 89.13v89.13m0-89.13h95.98m-95.98 89.13v89.13m0-89.13h95.98m-95.98 89.13v89.12m0-89.12h95.98m-95.98 89.12v89.13m0-89.13h95.98m-95.98 89.13h95.98m-575.87-1158.66v89.12m0 0v89.13m0 0v89.13m0 0v89.13m0 0v89.13m0 0v89.13m0 0v89.12m0 0v89.13m0 0v89.13m0 0v89.13m0 0v89.13m0 0v89.12m0 0v89.13m287.93-1158.66v89.12m0 0v89.13m0 0v89.13m0 0v89.13m0 0v89.13m0 0v89.13m0 0v89.12m0 0v89.13m0 0v89.13m0 0v89.13m0 0v89.13m0 0v89.12m0 0v89.13m287.94-1158.66v89.12m0-89.12H1920v1158.66h-95.98m0-1069.54v89.13m0-89.13H1920m-95.98 89.13v89.13m0-89.13H1920m-95.98 89.13v89.13m0-89.13H1920m-95.98 89.13v89.13m0-89.13H1920m-95.98 89.13v89.13m0-89.13H1920m-95.98 89.13v89.12m0-89.12H1920m-95.98 89.12v89.13m0-89.13H1920m-95.98 89.13v89.13m0-89.13H1920m-95.98 89.13v89.13m0-89.13H1920m-95.98 89.13v89.13m0-89.13H1920m-95.98 89.13v89.12m0-89.12H1920m-95.98 89.12v89.13m0-89.13H1920" stroke="url(#paint1_linear_431_790)"/><path d="M95.979 2317.33v89.13m0-89.13H0v89.13m95.979-89.13h95.979m-95.979 89.13v89.13m0-89.13H0m95.979 0h95.979m-95.979 89.13v89.13m0-89.13H0m95.979 0h95.979m-95.979 89.13v89.13m0-89.13H0m95.979 0h95.979m-95.979 89.13v89.12m0-89.12H0m95.979 0h95.979m-95.979 89.12v89.13m0-89.13H0m95.979 0h95.979m-95.979 89.13v89.13m0-89.13H0m95.979 0h95.979m-95.979 89.13v89.13m0-89.13H0m95.979 0h95.979m-95.979 89.13v89.13m0-89.13H0m95.979 0h95.979m-95.979 89.13v89.13m0-89.13H0m95.979 0h95.979m-95.979 89.13v89.12m0-89.12H0m95.979 0h95.979m-95.979 89.12v89.13m0-89.13H0m95.979 0h95.979m-95.979 89.13V3476m0-89.13H0m95.979 0h95.979M95.979 3476H0v-89.13M95.979 3476h95.979M0 2406.46v89.13m0 0v89.13m0 0v89.13m0 0v89.12m0 0v89.13m0 0v89.13m0 0v89.13m0 0v89.13m0 0v89.13m0 0v89.12m0 0v89.13m191.958-1069.54v89.13m0-89.13h95.979m-95.979 89.13v89.13m0-89.13h95.979m-95.979 89.13v89.13m0-89.13h95.979m-95.979 89.13v89.13m0-89.13h95.979m-95.979 89.13v89.12m0-89.12h95.979m-95.979 89.12v89.13m0-89.13h95.979m-95.979 89.13v89.13m0-89.13h95.979m-95.979 89.13v89.13m0-89.13h95.979m-95.979 89.13v89.13m0-89.13h95.979m-95.979 89.13v89.13m0-89.13h95.979m-95.979 89.13v89.12m0-89.12h95.979m-95.979 89.12v89.13m0-89.13h95.979m-95.979 89.13V3476m0-89.13h95.979M191.958 3476h95.979m0-1158.67v89.13m0-89.13h95.979m-95.979 89.13v89.13m0-89.13h95.979m-95.979 89.13v89.13m0-89.13h95.979m-95.979 89.13v89.13m0-89.13h95.979m-95.979 89.13v89.12m0-89.12h95.979m-95.979 89.12v89.13m0-89.13h95.979m-95.979 89.13v89.13m0-89.13h95.979m-95.979 89.13v89.13m0-89.13h95.979m-95.979 89.13v89.13m0-89.13h95.979m-95.979 89.13v89.13m0-89.13h95.979m-95.979 89.13v89.12m0-89.12h95.979m-95.979 89.12v89.13m0-89.13h95.979m-95.979 89.13V3476m0-89.13h95.979M287.937 3476h95.979m0-1158.67v89.13m0-89.13h95.979m-95.979 89.13v89.13m0-89.13h95.979m-95.979 89.13v89.13m0-89.13h95.979m-95.979 89.13v89.13m0-89.13h95.979m-95.979 89.13v89.12m0-89.12h95.979m-95.979 89.12v89.13m0-89.13h95.979m-95.979 89.13v89.13m0-89.13h95.979m-95.979 89.13v89.13m0-89.13h95.979m-95.979 89.13v89.13m0-89.13h95.979m-95.979 89.13v89.13m0-89.13h95.979m-95.979 89.13v89.12m0-89.12h95.979m-95.979 89.12v89.13m0-89.13h95.979m-95.979 89.13V3476m0-89.13h95.979M383.916 3476h95.979m191.958-1158.67v89.13m0-89.13h-95.979m95.979 0h95.979m-95.979 89.13v89.13m0-89.13h-95.979m95.979 0h95.979m-95.979 89.13v89.13m0-89.13h-95.979m95.979 0h95.979m-95.979 89.13v89.13m0-89.13h-95.979m95.979 0h95.979m-95.979 89.13v89.12m0-89.12h-95.979m95.979 0h95.979m-95.979 89.12v89.13m0-89.13h-95.979m95.979 0h95.979m-95.979 89.13v89.13m0-89.13h-95.979m95.979 0h95.979m-95.979 89.13v89.13m0-89.13h-95.979m95.979 0h95.979m-95.979 89.13v89.13m0-89.13h-95.979m95.979 0h95.979m-95.979 89.13v89.13m0-89.13h-95.979m95.979 0h95.979m-95.979 89.13v89.12m0-89.12h-95.979m95.979 0h95.979m-95.979 89.12v89.13m0-89.13h-95.979m95.979 0h95.979m-95.979 89.13V3476m0-89.13h-95.979m95.979 0h95.979M671.853 3476h-95.979m95.979 0h95.979M959.79 2317.33v89.13m0-89.13h-95.979m95.979 0h95.98m-95.98 89.13v89.13m0-89.13h-95.979m95.979 0h95.98m-95.98 89.13v89.13m0-89.13h-95.979m95.979 0h95.98m-95.98 89.13v89.13m0-89.13h-95.979m95.979 0h95.98m-95.98 89.13v89.12m0-89.12h-95.979m95.979 0h95.98m-95.98 89.12v89.13m0-89.13h-95.979m95.979 0h95.98m-95.98 89.13v89.13m0-89.13h-95.979m95.979 0h95.98m-95.98 89.13v89.13m0-89.13h-95.979m95.979 0h95.98m-95.98 89.13v89.13m0-89.13h-95.979m95.979 0h95.98m-95.98 89.13v89.13m0-89.13h-95.979m95.979 0h95.98m-95.98 89.13v89.12m0-89.12h-95.979m95.979 0h95.98m-95.98 89.12v89.13m0-89.13h-95.979m95.979 0h95.98m-95.98 89.13V3476m0-89.13h-95.979m95.979 0h95.98M959.79 3476h-95.979m95.979 0h95.98M479.895 2317.33v89.13m0-89.13h95.979m-95.979 89.13v89.13m0-89.13h95.979m-95.979 89.13v89.13m0-89.13h95.979m-95.979 89.13v89.13m0-89.13h95.979m-95.979 89.13v89.12m0-89.12h95.979m-95.979 89.12v89.13m0-89.13h95.979m-95.979 89.13v89.13m0-89.13h95.979m-95.979 89.13v89.13m0-89.13h95.979m-95.979 89.13v89.13m0-89.13h95.979m-95.979 89.13v89.13m0-89.13h95.979m-95.979 89.13v89.12m0-89.12h95.979m-95.979 89.12v89.13m0-89.13h95.979m-95.979 89.13V3476m0-89.13h95.979M479.895 3476h95.979m191.958-1158.67v89.13m0-89.13h95.979m-95.979 89.13v89.13m0-89.13h95.979m-95.979 89.13v89.13m0-89.13h95.979m-95.979 89.13v89.13m0-89.13h95.979m-95.979 89.13v89.12m0-89.12h95.979m-95.979 89.12v89.13m0-89.13h95.979m-95.979 89.13v89.13m0-89.13h95.979m-95.979 89.13v89.13m0-89.13h95.979m-95.979 89.13v89.13m0-89.13h95.979m-95.979 89.13v89.13m0-89.13h95.979m-95.979 89.13v89.12m0-89.12h95.979m-95.979 89.12v89.13m0-89.13h95.979m-95.979 89.13V3476m0-89.13h95.979M767.832 3476h95.979m191.959-1158.67v89.13m0-89.13h95.98m-95.98 89.13v89.13m0-89.13h95.98m-95.98 89.13v89.13m0-89.13h95.98m-95.98 89.13v89.13m0-89.13h95.98m-95.98 89.13v89.12m0-89.12h95.98m-95.98 89.12v89.13m0-89.13h95.98m-95.98 89.13v89.13m0-89.13h95.98m-95.98 89.13v89.13m0-89.13h95.98m-95.98 89.13v89.13m0-89.13h95.98m-95.98 89.13v89.13m0-89.13h95.98m-95.98 89.13v89.12m0-89.12h95.98m-95.98 89.12v89.13m0-89.13h95.98m-95.98 89.13V3476m0-89.13h95.98m-95.98 89.13h95.98M575.874 2317.33v89.13m0 0v89.13m0 0v89.13m0 0v89.13m0 0v89.12m0 0v89.13m0 0v89.13m0 0v89.13m0 0v89.13m0 0v89.13m0 0v89.12m0 0v89.13m0 0V3476m287.937-1158.67v89.13m0 0v89.13m0 0v89.13m0 0v89.13m0 0v89.12m0 0v89.13m0 0v89.13m0 0v89.13m0 0v89.13m0 0v89.13m0 0v89.12m0 0v89.13m0 0V3476m287.939-1158.67v89.13m0-89.13h95.98V3476h-95.98m0-1069.54v89.13m0-89.13h95.98m-95.98 89.13v89.13m0-89.13h95.98m-95.98 89.13v89.13m0-89.13h95.98m-95.98 89.13v89.12m0-89.12h95.98m-95.98 89.12v89.13m0-89.13h95.98m-95.98 89.13v89.13m0-89.13h95.98m-95.98 89.13v89.13m0-89.13h95.98m-95.98 89.13v89.13m0-89.13h95.98m-95.98 89.13v89.13m0-89.13h95.98m-95.98 89.13v89.12m0-89.12h95.98m-95.98 89.12v89.13m0-89.13h95.98m-95.98 89.13V3476m0-89.13h95.98M768.252 2317.33v89.13m0-89.13h-95.979v89.13m95.979-89.13h95.979m-95.979 89.13v89.13m0-89.13h-95.979m95.979 0h95.979m-95.979 89.13v89.13m0-89.13h-95.979m95.979 0h95.979m-95.979 89.13v89.13m0-89.13h-95.979m95.979 0h95.979m-95.979 89.13v89.12m0-89.12h-95.979m95.979 0h95.979m-95.979 89.12v89.13m0-89.13h-95.979m95.979 0h95.979m-95.979 89.13v89.13m0-89.13h-95.979m95.979 0h95.979m-95.979 89.13v89.13m0-89.13h-95.979m95.979 0h95.979m-95.979 89.13v89.13m0-89.13h-95.979m95.979 0h95.979m-95.979 89.13v89.13m0-89.13h-95.979m95.979 0h95.979m-95.979 89.13v89.12m0-89.12h-95.979m95.979 0h95.979m-95.979 89.12v89.13m0-89.13h-95.979m95.979 0h95.979m-95.979 89.13V3476m0-89.13h-95.979m95.979 0h95.979M768.252 3476h-95.979v-89.13m95.979 89.13h95.979M672.273 2406.46v89.13m0 0v89.13m0 0v89.13m0 0v89.12m0 0v89.13m0 0v89.13m0 0v89.13m0 0v89.13m0 0v89.13m0 0v89.12m0 0v89.13m191.958-1069.54v89.13m0-89.13h95.979m-95.979 89.13v89.13m0-89.13h95.979m-95.979 89.13v89.13m0-89.13h95.979m-95.979 89.13v89.13m0-89.13h95.979m-95.979 89.13v89.12m0-89.12h95.979m-95.979 89.12v89.13m0-89.13h95.979m-95.979 89.13v89.13m0-89.13h95.979m-95.979 89.13v89.13m0-89.13h95.979m-95.979 89.13v89.13m0-89.13h95.979m-95.979 89.13v89.13m0-89.13h95.979m-95.979 89.13v89.12m0-89.12h95.979m-95.979 89.12v89.13m0-89.13h95.979m-95.979 89.13V3476m0-89.13h95.979M864.231 3476h95.979m0-1158.67v89.13m0-89.13h95.98m-95.98 89.13v89.13m0-89.13h95.98m-95.98 89.13v89.13m0-89.13h95.98m-95.98 89.13v89.13m0-89.13h95.98m-95.98 89.13v89.12m0-89.12h95.98m-95.98 89.12v89.13m0-89.13h95.98m-95.98 89.13v89.13m0-89.13h95.98m-95.98 89.13v89.13m0-89.13h95.98m-95.98 89.13v89.13m0-89.13h95.98m-95.98 89.13v89.13m0-89.13h95.98m-95.98 89.13v89.12m0-89.12h95.98m-95.98 89.12v89.13m0-89.13h95.98m-95.98 89.13V3476m0-89.13h95.98M960.21 3476h95.98m0-1158.67v89.13m0-89.13h95.98m-95.98 89.13v89.13m0-89.13h95.98m-95.98 89.13v89.13m0-89.13h95.98m-95.98 89.13v89.13m0-89.13h95.98m-95.98 89.13v89.12m0-89.12h95.98m-95.98 89.12v89.13m0-89.13h95.98m-95.98 89.13v89.13m0-89.13h95.98m-95.98 89.13v89.13m0-89.13h95.98m-95.98 89.13v89.13m0-89.13h95.98m-95.98 89.13v89.13m0-89.13h95.98m-95.98 89.13v89.12m0-89.12h95.98m-95.98 89.12v89.13m0-89.13h95.98m-95.98 89.13V3476m0-89.13h95.98m-95.98 89.13h95.98m191.96-1158.67v89.13m0-89.13h-95.98m95.98 0h95.97m-95.97 89.13v89.13m0-89.13h-95.98m95.98 0h95.97m-95.97 89.13v89.13m0-89.13h-95.98m95.98 0h95.97m-95.97 89.13v89.13m0-89.13h-95.98m95.98 0h95.97m-95.97 89.13v89.12m0-89.12h-95.98m95.98 0h95.97m-95.97 89.12v89.13m0-89.13h-95.98m95.98 0h95.97m-95.97 89.13v89.13m0-89.13h-95.98m95.98 0h95.97m-95.97 89.13v89.13m0-89.13h-95.98m95.98 0h95.97m-95.97 89.13v89.13m0-89.13h-95.98m95.98 0h95.97m-95.97 89.13v89.13m0-89.13h-95.98m95.98 0h95.97m-95.97 89.13v89.12m0-89.12h-95.98m95.98 0h95.97m-95.97 89.12v89.13m0-89.13h-95.98m95.98 0h95.97m-95.97 89.13V3476m0-89.13h-95.98m95.98 0h95.97m-95.97 89.13h-95.98m95.98 0h95.97m191.96-1158.67v89.13m0-89.13h-95.98m95.98 0h95.98m-95.98 89.13v89.13m0-89.13h-95.98m95.98 0h95.98m-95.98 89.13v89.13m0-89.13h-95.98m95.98 0h95.98m-95.98 89.13v89.13m0-89.13h-95.98m95.98 0h95.98m-95.98 89.13v89.12m0-89.12h-95.98m95.98 0h95.98m-95.98 89.12v89.13m0-89.13h-95.98m95.98 0h95.98m-95.98 89.13v89.13m0-89.13h-95.98m95.98 0h95.98m-95.98 89.13v89.13m0-89.13h-95.98m95.98 0h95.98m-95.98 89.13v89.13m0-89.13h-95.98m95.98 0h95.98m-95.98 89.13v89.13m0-89.13h-95.98m95.98 0h95.98m-95.98 89.13v89.12m0-89.12h-95.98m95.98 0h95.98m-95.98 89.12v89.13m0-89.13h-95.98m95.98 0h95.98m-95.98 89.13V3476m0-89.13h-95.98m95.98 0h95.98m-95.98 89.13h-95.98m95.98 0h95.98m-575.87-1158.67v89.13m0-89.13h95.98m-95.98 89.13v89.13m0-89.13h95.98m-95.98 89.13v89.13m0-89.13h95.98m-95.98 89.13v89.13m0-89.13h95.98m-95.98 89.13v89.12m0-89.12h95.98m-95.98 89.12v89.13m0-89.13h95.98m-95.98 89.13v89.13m0-89.13h95.98m-95.98 89.13v89.13m0-89.13h95.98m-95.98 89.13v89.13m0-89.13h95.98m-95.98 89.13v89.13m0-89.13h95.98m-95.98 89.13v89.12m0-89.12h95.98m-95.98 89.12v89.13m0-89.13h95.98m-95.98 89.13V3476m0-89.13h95.98m-95.98 89.13h95.98m191.95-1158.67v89.13m0-89.13h95.98m-95.98 89.13v89.13m0-89.13h95.98m-95.98 89.13v89.13m0-89.13h95.98m-95.98 89.13v89.13m0-89.13h95.98m-95.98 89.13v89.12m0-89.12h95.98m-95.98 89.12v89.13m0-89.13h95.98m-95.98 89.13v89.13m0-89.13h95.98m-95.98 89.13v89.13m0-89.13h95.98m-95.98 89.13v89.13m0-89.13h95.98m-95.98 89.13v89.13m0-89.13h95.98m-95.98 89.13v89.12m0-89.12h95.98m-95.98 89.12v89.13m0-89.13h95.98m-95.98 89.13V3476m0-89.13h95.98M1440.1 3476h95.98m191.96-1158.67v89.13m0-89.13h95.98m-95.98 89.13v89.13m0-89.13h95.98m-95.98 89.13v89.13m0-89.13h95.98m-95.98 89.13v89.13m0-89.13h95.98m-95.98 89.13v89.12m0-89.12h95.98m-95.98 89.12v89.13m0-89.13h95.98m-95.98 89.13v89.13m0-89.13h95.98m-95.98 89.13v89.13m0-89.13h95.98m-95.98 89.13v89.13m0-89.13h95.98m-95.98 89.13v89.13m0-89.13h95.98m-95.98 89.13v89.12m0-89.12h95.98m-95.98 89.12v89.13m0-89.13h95.98m-95.98 89.13V3476m0-89.13h95.98m-95.98 89.13h95.98m-575.87-1158.67v89.13m0 0v89.13m0 0v89.13m0 0v89.13m0 0v89.12m0 0v89.13m0 0v89.13m0 0v89.13m0 0v89.13m0 0v89.13m0 0v89.12m0 0v89.13m0 0V3476m287.93-1158.67v89.13m0 0v89.13m0 0v89.13m0 0v89.13m0 0v89.12m0 0v89.13m0 0v89.13m0 0v89.13m0 0v89.13m0 0v89.13m0 0v89.12m0 0v89.13m0 0V3476m287.94-1158.67v89.13m0-89.13H1920V3476h-95.98m0-1069.54v89.13m0-89.13H1920m-95.98 89.13v89.13m0-89.13H1920m-95.98 89.13v89.13m0-89.13H1920m-95.98 89.13v89.12m0-89.12H1920m-95.98 89.12v89.13m0-89.13H1920m-95.98 89.13v89.13m0-89.13H1920m-95.98 89.13v89.13m0-89.13H1920m-95.98 89.13v89.13m0-89.13H1920m-95.98 89.13v89.13m0-89.13H1920m-95.98 89.13v89.12m0-89.12H1920m-95.98 89.12v89.13m0-89.13H1920m-95.98 89.13V3476m0-89.13H1920" stroke="url(#paint2_linear_431_790)"/><path d="M95.979 3476v89.13m0-89.13H0v89.13M95.979 3476h95.979m-95.979 89.13v89.13m0-89.13H0m95.979 0h95.979m-95.979 89.13v89.12m0-89.12H0m95.979 0h95.979m-95.979 89.12v89.13m0-89.13H0m95.979 0h95.979m-95.979 89.13v89.13m0-89.13H0m95.979 0h95.979m-95.979 89.13v89.13m0-89.13H0m95.979 0h95.979m-95.979 89.13v89.13m0-89.13H0m95.979 0h95.979m-95.979 89.13v89.13m0-89.13H0m95.979 0h95.979m-95.979 89.13v89.12m0-89.12H0m95.979 0h95.979m-95.979 89.12v89.13m0-89.13H0m95.979 0h95.979m-95.979 89.13v89.13m0-89.13H0m95.979 0h95.979m-95.979 89.13v89.13m0-89.13H0m95.979 0h95.979m-95.979 89.13v89.13m0-89.13H0m95.979 0h95.979m-95.979 89.13H0v-89.13m95.979 89.13h95.979M0 3565.13v89.13m0 0v89.12m0 0v89.13m0 0v89.13m0 0v89.13m0 0v89.13m0 0v89.13m0 0v89.12m0 0v89.13m0 0v89.13m0 0v89.13M191.958 3476v89.13m0-89.13h95.979m-95.979 89.13v89.13m0-89.13h95.979m-95.979 89.13v89.12m0-89.12h95.979m-95.979 89.12v89.13m0-89.13h95.979m-95.979 89.13v89.13m0-89.13h95.979m-95.979 89.13v89.13m0-89.13h95.979m-95.979 89.13v89.13m0-89.13h95.979m-95.979 89.13v89.13m0-89.13h95.979m-95.979 89.13v89.12m0-89.12h95.979m-95.979 89.12v89.13m0-89.13h95.979m-95.979 89.13v89.13m0-89.13h95.979m-95.979 89.13v89.13m0-89.13h95.979m-95.979 89.13v89.13m0-89.13h95.979m-95.979 89.13h95.979m0-1158.67v89.13m0-89.13h95.979m-95.979 89.13v89.13m0-89.13h95.979m-95.979 89.13v89.12m0-89.12h95.979m-95.979 89.12v89.13m0-89.13h95.979m-95.979 89.13v89.13m0-89.13h95.979m-95.979 89.13v89.13m0-89.13h95.979m-95.979 89.13v89.13m0-89.13h95.979m-95.979 89.13v89.13m0-89.13h95.979m-95.979 89.13v89.12m0-89.12h95.979m-95.979 89.12v89.13m0-89.13h95.979m-95.979 89.13v89.13m0-89.13h95.979m-95.979 89.13v89.13m0-89.13h95.979m-95.979 89.13v89.13m0-89.13h95.979m-95.979 89.13h95.979m0-1158.67v89.13m0-89.13h95.979m-95.979 89.13v89.13m0-89.13h95.979m-95.979 89.13v89.12m0-89.12h95.979m-95.979 89.12v89.13m0-89.13h95.979m-95.979 89.13v89.13m0-89.13h95.979m-95.979 89.13v89.13m0-89.13h95.979m-95.979 89.13v89.13m0-89.13h95.979m-95.979 89.13v89.13m0-89.13h95.979m-95.979 89.13v89.12m0-89.12h95.979m-95.979 89.12v89.13m0-89.13h95.979m-95.979 89.13v89.13m0-89.13h95.979m-95.979 89.13v89.13m0-89.13h95.979m-95.979 89.13v89.13m0-89.13h95.979m-95.979 89.13h95.979M671.853 3476v89.13m0-89.13h-95.979m95.979 0h95.979m-95.979 89.13v89.13m0-89.13h-95.979m95.979 0h95.979m-95.979 89.13v89.12m0-89.12h-95.979m95.979 0h95.979m-95.979 89.12v89.13m0-89.13h-95.979m95.979 0h95.979m-95.979 89.13v89.13m0-89.13h-95.979m95.979 0h95.979m-95.979 89.13v89.13m0-89.13h-95.979m95.979 0h95.979m-95.979 89.13v89.13m0-89.13h-95.979m95.979 0h95.979m-95.979 89.13v89.13m0-89.13h-95.979m95.979 0h95.979m-95.979 89.13v89.12m0-89.12h-95.979m95.979 0h95.979m-95.979 89.12v89.13m0-89.13h-95.979m95.979 0h95.979m-95.979 89.13v89.13m0-89.13h-95.979m95.979 0h95.979m-95.979 89.13v89.13m0-89.13h-95.979m95.979 0h95.979m-95.979 89.13v89.13m0-89.13h-95.979m95.979 0h95.979m-95.979 89.13h-95.979m95.979 0h95.979M959.79 3476v89.13m0-89.13h-95.979m95.979 0h95.98m-95.98 89.13v89.13m0-89.13h-95.979m95.979 0h95.98m-95.98 89.13v89.12m0-89.12h-95.979m95.979 0h95.98m-95.98 89.12v89.13m0-89.13h-95.979m95.979 0h95.98m-95.98 89.13v89.13m0-89.13h-95.979m95.979 0h95.98m-95.98 89.13v89.13m0-89.13h-95.979m95.979 0h95.98m-95.98 89.13v89.13m0-89.13h-95.979m95.979 0h95.98m-95.98 89.13v89.13m0-89.13h-95.979m95.979 0h95.98m-95.98 89.13v89.12m0-89.12h-95.979m95.979 0h95.98m-95.98 89.12v89.13m0-89.13h-95.979m95.979 0h95.98m-95.98 89.13v89.13m0-89.13h-95.979m95.979 0h95.98m-95.98 89.13v89.13m0-89.13h-95.979m95.979 0h95.98m-95.98 89.13v89.13m0-89.13h-95.979m95.979 0h95.98m-95.98 89.13h-95.979m95.979 0h95.98M479.895 3476v89.13m0-89.13h95.979m-95.979 89.13v89.13m0-89.13h95.979m-95.979 89.13v89.12m0-89.12h95.979m-95.979 89.12v89.13m0-89.13h95.979m-95.979 89.13v89.13m0-89.13h95.979m-95.979 89.13v89.13m0-89.13h95.979m-95.979 89.13v89.13m0-89.13h95.979m-95.979 89.13v89.13m0-89.13h95.979m-95.979 89.13v89.12m0-89.12h95.979m-95.979 89.12v89.13m0-89.13h95.979m-95.979 89.13v89.13m0-89.13h95.979m-95.979 89.13v89.13m0-89.13h95.979m-95.979 89.13v89.13m0-89.13h95.979m-95.979 89.13h95.979M767.832 3476v89.13m0-89.13h95.979m-95.979 89.13v89.13m0-89.13h95.979m-95.979 89.13v89.12m0-89.12h95.979m-95.979 89.12v89.13m0-89.13h95.979m-95.979 89.13v89.13m0-89.13h95.979m-95.979 89.13v89.13m0-89.13h95.979m-95.979 89.13v89.13m0-89.13h95.979m-95.979 89.13v89.13m0-89.13h95.979m-95.979 89.13v89.12m0-89.12h95.979m-95.979 89.12v89.13m0-89.13h95.979m-95.979 89.13v89.13m0-89.13h95.979m-95.979 89.13v89.13m0-89.13h95.979m-95.979 89.13v89.13m0-89.13h95.979m-95.979 89.13h95.979M1055.77 3476v89.13m0-89.13h95.98m-95.98 89.13v89.13m0-89.13h95.98m-95.98 89.13v89.12m0-89.12h95.98m-95.98 89.12v89.13m0-89.13h95.98m-95.98 89.13v89.13m0-89.13h95.98m-95.98 89.13v89.13m0-89.13h95.98m-95.98 89.13v89.13m0-89.13h95.98m-95.98 89.13v89.13m0-89.13h95.98m-95.98 89.13v89.12m0-89.12h95.98m-95.98 89.12v89.13m0-89.13h95.98m-95.98 89.13v89.13m0-89.13h95.98m-95.98 89.13v89.13m0-89.13h95.98m-95.98 89.13v89.13m0-89.13h95.98m-95.98 89.13h95.98M575.874 3476v89.13m0 0v89.13m0 0v89.12m0 0v89.13m0 0v89.13m0 0v89.13m0 0v89.13m0 0v89.13m0 0v89.12m0 0v89.13m0 0v89.13m0 0v89.13m0 0v89.13M863.811 3476v89.13m0 0v89.13m0 0v89.12m0 0v89.13m0 0v89.13m0 0v89.13m0 0v89.13m0 0v89.13m0 0v89.12m0 0v89.13m0 0v89.13m0 0v89.13m0 0v89.13M1151.75 3476v89.13m0-89.13h95.98v1158.67h-95.98m0-1069.54v89.13m0-89.13h95.98m-95.98 89.13v89.12m0-89.12h95.98m-95.98 89.12v89.13m0-89.13h95.98m-95.98 89.13v89.13m0-89.13h95.98m-95.98 89.13v89.13m0-89.13h95.98m-95.98 89.13v89.13m0-89.13h95.98m-95.98 89.13v89.13m0-89.13h95.98m-95.98 89.13v89.12m0-89.12h95.98m-95.98 89.12v89.13m0-89.13h95.98m-95.98 89.13v89.13m0-89.13h95.98m-95.98 89.13v89.13m0-89.13h95.98m-95.98 89.13v89.13m0-89.13h95.98M768.252 3476v89.13m0-89.13h-95.979v89.13m95.979-89.13h95.979m-95.979 89.13v89.13m0-89.13h-95.979m95.979 0h95.979m-95.979 89.13v89.12m0-89.12h-95.979m95.979 0h95.979m-95.979 89.12v89.13m0-89.13h-95.979m95.979 0h95.979m-95.979 89.13v89.13m0-89.13h-95.979m95.979 0h95.979m-95.979 89.13v89.13m0-89.13h-95.979m95.979 0h95.979m-95.979 89.13v89.13m0-89.13h-95.979m95.979 0h95.979m-95.979 89.13v89.13m0-89.13h-95.979m95.979 0h95.979m-95.979 89.13v89.12m0-89.12h-95.979m95.979 0h95.979m-95.979 89.12v89.13m0-89.13h-95.979m95.979 0h95.979m-95.979 89.13v89.13m0-89.13h-95.979m95.979 0h95.979m-95.979 89.13v89.13m0-89.13h-95.979m95.979 0h95.979m-95.979 89.13v89.13m0-89.13h-95.979m95.979 0h95.979m-95.979 89.13h-95.979v-89.13m95.979 89.13h95.979M672.273 3565.13v89.13m0 0v89.12m0 0v89.13m0 0v89.13m0 0v89.13m0 0v89.13m0 0v89.13m0 0v89.12m0 0v89.13m0 0v89.13m0 0v89.13M864.231 3476v89.13m0-89.13h95.979m-95.979 89.13v89.13m0-89.13h95.979m-95.979 89.13v89.12m0-89.12h95.979m-95.979 89.12v89.13m0-89.13h95.979m-95.979 89.13v89.13m0-89.13h95.979m-95.979 89.13v89.13m0-89.13h95.979m-95.979 89.13v89.13m0-89.13h95.979m-95.979 89.13v89.13m0-89.13h95.979m-95.979 89.13v89.12m0-89.12h95.979m-95.979 89.12v89.13m0-89.13h95.979m-95.979 89.13v89.13m0-89.13h95.979m-95.979 89.13v89.13m0-89.13h95.979m-95.979 89.13v89.13m0-89.13h95.979m-95.979 89.13h95.979m0-1158.67v89.13m0-89.13h95.98m-95.98 89.13v89.13m0-89.13h95.98m-95.98 89.13v89.12m0-89.12h95.98m-95.98 89.12v89.13m0-89.13h95.98m-95.98 89.13v89.13m0-89.13h95.98m-95.98 89.13v89.13m0-89.13h95.98m-95.98 89.13v89.13m0-89.13h95.98m-95.98 89.13v89.13m0-89.13h95.98m-95.98 89.13v89.12m0-89.12h95.98m-95.98 89.12v89.13m0-89.13h95.98m-95.98 89.13v89.13m0-89.13h95.98m-95.98 89.13v89.13m0-89.13h95.98m-95.98 89.13v89.13m0-89.13h95.98m-95.98 89.13h95.98m0-1158.67v89.13m0-89.13h95.98m-95.98 89.13v89.13m0-89.13h95.98m-95.98 89.13v89.12m0-89.12h95.98m-95.98 89.12v89.13m0-89.13h95.98m-95.98 89.13v89.13m0-89.13h95.98m-95.98 89.13v89.13m0-89.13h95.98m-95.98 89.13v89.13m0-89.13h95.98m-95.98 89.13v89.13m0-89.13h95.98m-95.98 89.13v89.12m0-89.12h95.98m-95.98 89.12v89.13m0-89.13h95.98m-95.98 89.13v89.13m0-89.13h95.98m-95.98 89.13v89.13m0-89.13h95.98m-95.98 89.13v89.13m0-89.13h95.98m-95.98 89.13h95.98M1344.13 3476v89.13m0-89.13h-95.98m95.98 0h95.97m-95.97 89.13v89.13m0-89.13h-95.98m95.98 0h95.97m-95.97 89.13v89.12m0-89.12h-95.98m95.98 0h95.97m-95.97 89.12v89.13m0-89.13h-95.98m95.98 0h95.97m-95.97 89.13v89.13m0-89.13h-95.98m95.98 0h95.97m-95.97 89.13v89.13m0-89.13h-95.98m95.98 0h95.97m-95.97 89.13v89.13m0-89.13h-95.98m95.98 0h95.97m-95.97 89.13v89.13m0-89.13h-95.98m95.98 0h95.97m-95.97 89.13v89.12m0-89.12h-95.98m95.98 0h95.97m-95.97 89.12v89.13m0-89.13h-95.98m95.98 0h95.97m-95.97 89.13v89.13m0-89.13h-95.98m95.98 0h95.97m-95.97 89.13v89.13m0-89.13h-95.98m95.98 0h95.97m-95.97 89.13v89.13m0-89.13h-95.98m95.98 0h95.97m-95.97 89.13h-95.98m95.98 0h95.97M1632.06 3476v89.13m0-89.13h-95.98m95.98 0h95.98m-95.98 89.13v89.13m0-89.13h-95.98m95.98 0h95.98m-95.98 89.13v89.12m0-89.12h-95.98m95.98 0h95.98m-95.98 89.12v89.13m0-89.13h-95.98m95.98 0h95.98m-95.98 89.13v89.13m0-89.13h-95.98m95.98 0h95.98m-95.98 89.13v89.13m0-89.13h-95.98m95.98 0h95.98m-95.98 89.13v89.13m0-89.13h-95.98m95.98 0h95.98m-95.98 89.13v89.13m0-89.13h-95.98m95.98 0h95.98m-95.98 89.13v89.12m0-89.12h-95.98m95.98 0h95.98m-95.98 89.12v89.13m0-89.13h-95.98m95.98 0h95.98m-95.98 89.13v89.13m0-89.13h-95.98m95.98 0h95.98m-95.98 89.13v89.13m0-89.13h-95.98m95.98 0h95.98m-95.98 89.13v89.13m0-89.13h-95.98m95.98 0h95.98m-95.98 89.13h-95.98m95.98 0h95.98M1152.17 3476v89.13m0-89.13h95.98m-95.98 89.13v89.13m0-89.13h95.98m-95.98 89.13v89.12m0-89.12h95.98m-95.98 89.12v89.13m0-89.13h95.98m-95.98 89.13v89.13m0-89.13h95.98m-95.98 89.13v89.13m0-89.13h95.98m-95.98 89.13v89.13m0-89.13h95.98m-95.98 89.13v89.13m0-89.13h95.98m-95.98 89.13v89.12m0-89.12h95.98m-95.98 89.12v89.13m0-89.13h95.98m-95.98 89.13v89.13m0-89.13h95.98m-95.98 89.13v89.13m0-89.13h95.98m-95.98 89.13v89.13m0-89.13h95.98m-95.98 89.13h95.98M1440.1 3476v89.13m0-89.13h95.98m-95.98 89.13v89.13m0-89.13h95.98m-95.98 89.13v89.12m0-89.12h95.98m-95.98 89.12v89.13m0-89.13h95.98m-95.98 89.13v89.13m0-89.13h95.98m-95.98 89.13v89.13m0-89.13h95.98m-95.98 89.13v89.13m0-89.13h95.98m-95.98 89.13v89.13m0-89.13h95.98m-95.98 89.13v89.12m0-89.12h95.98m-95.98 89.12v89.13m0-89.13h95.98m-95.98 89.13v89.13m0-89.13h95.98m-95.98 89.13v89.13m0-89.13h95.98m-95.98 89.13v89.13m0-89.13h95.98m-95.98 89.13h95.98M1728.04 3476v89.13m0-89.13h95.98m-95.98 89.13v89.13m0-89.13h95.98m-95.98 89.13v89.12m0-89.12h95.98m-95.98 89.12v89.13m0-89.13h95.98m-95.98 89.13v89.13m0-89.13h95.98m-95.98 89.13v89.13m0-89.13h95.98m-95.98 89.13v89.13m0-89.13h95.98m-95.98 89.13v89.13m0-89.13h95.98m-95.98 89.13v89.12m0-89.12h95.98m-95.98 89.12v89.13m0-89.13h95.98m-95.98 89.13v89.13m0-89.13h95.98m-95.98 89.13v89.13m0-89.13h95.98m-95.98 89.13v89.13m0-89.13h95.98m-95.98 89.13h95.98M1248.15 3476v89.13m0 0v89.13m0 0v89.12m0 0v89.13m0 0v89.13m0 0v89.13m0 0v89.13m0 0v89.13m0 0v89.12m0 0v89.13m0 0v89.13m0 0v89.13m0 0v89.13M1536.08 3476v89.13m0 0v89.13m0 0v89.12m0 0v89.13m0 0v89.13m0 0v89.13m0 0v89.13m0 0v89.13m0 0v89.12m0 0v89.13m0 0v89.13m0 0v89.13m0 0v89.13M1824.02 3476v89.13m0-89.13H1920v1158.67h-95.98m0-1069.54v89.13m0-89.13H1920m-95.98 89.13v89.12m0-89.12H1920m-95.98 89.12v89.13m0-89.13H1920m-95.98 89.13v89.13m0-89.13H1920m-95.98 89.13v89.13m0-89.13H1920m-95.98 89.13v89.13m0-89.13H1920m-95.98 89.13v89.13m0-89.13H1920m-95.98 89.13v89.12m0-89.12H1920m-95.98 89.12v89.13m0-89.13H1920m-95.98 89.13v89.13m0-89.13H1920m-95.98 89.13v89.13m0-89.13H1920m-95.98 89.13v89.13m0-89.13H1920" stroke="url(#paint3_linear_431_790)"/><path d="M95.979 4634.67v89.12m0-89.12H0v89.12m95.979-89.12h95.979m-95.979 89.12v89.13m0-89.13H0m95.979 0h95.979m-95.979 89.13v89.13m0-89.13H0m95.979 0h95.979m-95.979 89.13v89.13m0-89.13H0m95.979 0h95.979m-95.979 89.13v89.13m0-89.13H0m95.979 0h95.979m-95.979 89.13v89.13m0-89.13H0m95.979 0h95.979m-95.979 89.13v89.12m0-89.12H0m95.979 0h95.979m-95.979 89.12v89.13m0-89.13H0m95.979 0h95.979m-95.979 89.13v89.13m0-89.13H0m95.979 0h95.979m-95.979 89.13v89.13m0-89.13H0m95.979 0h95.979m-95.979 89.13v89.13m0-89.13H0m95.979 0h95.979m-95.979 89.13v89.12m0-89.12H0m95.979 0h95.979m-95.979 89.12v89.13m0-89.13H0m95.979 0h95.979m-95.979 89.13H0v-89.13m95.979 89.13h95.979M0 4723.79v89.13m0 0v89.13m0 0v89.13m0 0v89.13m0 0v89.13m0 0v89.12m0 0v89.13m0 0v89.13m0 0v89.13m0 0v89.13m0 0v89.12m191.958-1069.53v89.12m0-89.12h95.979m-95.979 89.12v89.13m0-89.13h95.979m-95.979 89.13v89.13m0-89.13h95.979m-95.979 89.13v89.13m0-89.13h95.979m-95.979 89.13v89.13m0-89.13h95.979m-95.979 89.13v89.13m0-89.13h95.979m-95.979 89.13v89.12m0-89.12h95.979m-95.979 89.12v89.13m0-89.13h95.979m-95.979 89.13v89.13m0-89.13h95.979m-95.979 89.13v89.13m0-89.13h95.979m-95.979 89.13v89.13m0-89.13h95.979m-95.979 89.13v89.12m0-89.12h95.979m-95.979 89.12v89.13m0-89.13h95.979m-95.979 89.13h95.979m0-1158.66v89.12m0-89.12h95.979m-95.979 89.12v89.13m0-89.13h95.979m-95.979 89.13v89.13m0-89.13h95.979m-95.979 89.13v89.13m0-89.13h95.979m-95.979 89.13v89.13m0-89.13h95.979m-95.979 89.13v89.13m0-89.13h95.979m-95.979 89.13v89.12m0-89.12h95.979m-95.979 89.12v89.13m0-89.13h95.979m-95.979 89.13v89.13m0-89.13h95.979m-95.979 89.13v89.13m0-89.13h95.979m-95.979 89.13v89.13m0-89.13h95.979m-95.979 89.13v89.12m0-89.12h95.979m-95.979 89.12v89.13m0-89.13h95.979m-95.979 89.13h95.979m0-1158.66v89.12m0-89.12h95.979m-95.979 89.12v89.13m0-89.13h95.979m-95.979 89.13v89.13m0-89.13h95.979m-95.979 89.13v89.13m0-89.13h95.979m-95.979 89.13v89.13m0-89.13h95.979m-95.979 89.13v89.13m0-89.13h95.979m-95.979 89.13v89.12m0-89.12h95.979m-95.979 89.12v89.13m0-89.13h95.979m-95.979 89.13v89.13m0-89.13h95.979m-95.979 89.13v89.13m0-89.13h95.979m-95.979 89.13v89.13m0-89.13h95.979m-95.979 89.13v89.12m0-89.12h95.979m-95.979 89.12v89.13m0-89.13h95.979m-95.979 89.13h95.979m191.958-1158.66v89.12m0-89.12h-95.979m95.979 0h95.979m-95.979 89.12v89.13m0-89.13h-95.979m95.979 0h95.979m-95.979 89.13v89.13m0-89.13h-95.979m95.979 0h95.979m-95.979 89.13v89.13m0-89.13h-95.979m95.979 0h95.979m-95.979 89.13v89.13m0-89.13h-95.979m95.979 0h95.979m-95.979 89.13v89.13m0-89.13h-95.979m95.979 0h95.979m-95.979 89.13v89.12m0-89.12h-95.979m95.979 0h95.979m-95.979 89.12v89.13m0-89.13h-95.979m95.979 0h95.979m-95.979 89.13v89.13m0-89.13h-95.979m95.979 0h95.979m-95.979 89.13v89.13m0-89.13h-95.979m95.979 0h95.979m-95.979 89.13v89.13m0-89.13h-95.979m95.979 0h95.979m-95.979 89.13v89.12m0-89.12h-95.979m95.979 0h95.979m-95.979 89.12v89.13m0-89.13h-95.979m95.979 0h95.979m-95.979 89.13h-95.979m95.979 0h95.979M959.79 4634.67v89.12m0-89.12h-95.979m95.979 0h95.98m-95.98 89.12v89.13m0-89.13h-95.979m95.979 0h95.98m-95.98 89.13v89.13m0-89.13h-95.979m95.979 0h95.98m-95.98 89.13v89.13m0-89.13h-95.979m95.979 0h95.98m-95.98 89.13v89.13m0-89.13h-95.979m95.979 0h95.98m-95.98 89.13v89.13m0-89.13h-95.979m95.979 0h95.98m-95.98 89.13v89.12m0-89.12h-95.979m95.979 0h95.98m-95.98 89.12v89.13m0-89.13h-95.979m95.979 0h95.98m-95.98 89.13v89.13m0-89.13h-95.979m95.979 0h95.98m-95.98 89.13v89.13m0-89.13h-95.979m95.979 0h95.98m-95.98 89.13v89.13m0-89.13h-95.979m95.979 0h95.98m-95.98 89.13v89.12m0-89.12h-95.979m95.979 0h95.98m-95.98 89.12v89.13m0-89.13h-95.979m95.979 0h95.98m-95.98 89.13h-95.979m95.979 0h95.98M479.895 4634.67v89.12m0-89.12h95.979m-95.979 89.12v89.13m0-89.13h95.979m-95.979 89.13v89.13m0-89.13h95.979m-95.979 89.13v89.13m0-89.13h95.979m-95.979 89.13v89.13m0-89.13h95.979m-95.979 89.13v89.13m0-89.13h95.979m-95.979 89.13v89.12m0-89.12h95.979m-95.979 89.12v89.13m0-89.13h95.979m-95.979 89.13v89.13m0-89.13h95.979m-95.979 89.13v89.13m0-89.13h95.979m-95.979 89.13v89.13m0-89.13h95.979m-95.979 89.13v89.12m0-89.12h95.979m-95.979 89.12v89.13m0-89.13h95.979m-95.979 89.13h95.979m191.958-1158.66v89.12m0-89.12h95.979m-95.979 89.12v89.13m0-89.13h95.979m-95.979 89.13v89.13m0-89.13h95.979m-95.979 89.13v89.13m0-89.13h95.979m-95.979 89.13v89.13m0-89.13h95.979m-95.979 89.13v89.13m0-89.13h95.979m-95.979 89.13v89.12m0-89.12h95.979m-95.979 89.12v89.13m0-89.13h95.979m-95.979 89.13v89.13m0-89.13h95.979m-95.979 89.13v89.13m0-89.13h95.979m-95.979 89.13v89.13m0-89.13h95.979m-95.979 89.13v89.12m0-89.12h95.979m-95.979 89.12v89.13m0-89.13h95.979m-95.979 89.13h95.979m191.959-1158.66v89.12m0-89.12h95.98m-95.98 89.12v89.13m0-89.13h95.98m-95.98 89.13v89.13m0-89.13h95.98m-95.98 89.13v89.13m0-89.13h95.98m-95.98 89.13v89.13m0-89.13h95.98m-95.98 89.13v89.13m0-89.13h95.98m-95.98 89.13v89.12m0-89.12h95.98m-95.98 89.12v89.13m0-89.13h95.98m-95.98 89.13v89.13m0-89.13h95.98m-95.98 89.13v89.13m0-89.13h95.98m-95.98 89.13v89.13m0-89.13h95.98m-95.98 89.13v89.12m0-89.12h95.98m-95.98 89.12v89.13m0-89.13h95.98m-95.98 89.13h95.98M575.874 4634.67v89.12m0 0v89.13m0 0v89.13m0 0v89.13m0 0v89.13m0 0v89.13m0 0v89.12m0 0v89.13m0 0v89.13m0 0v89.13m0 0v89.13m0 0v89.12m0 0v89.13m287.937-1158.66v89.12m0 0v89.13m0 0v89.13m0 0v89.13m0 0v89.13m0 0v89.13m0 0v89.12m0 0v89.13m0 0v89.13m0 0v89.13m0 0v89.13m0 0v89.12m0 0v89.13m287.939-1158.66v89.12m0-89.12h95.98v1158.66h-95.98m0-1069.54v89.13m0-89.13h95.98m-95.98 89.13v89.13m0-89.13h95.98m-95.98 89.13v89.13m0-89.13h95.98m-95.98 89.13v89.13m0-89.13h95.98m-95.98 89.13v89.13m0-89.13h95.98m-95.98 89.13v89.12m0-89.12h95.98m-95.98 89.12v89.13m0-89.13h95.98m-95.98 89.13v89.13m0-89.13h95.98m-95.98 89.13v89.13m0-89.13h95.98m-95.98 89.13v89.13m0-89.13h95.98m-95.98 89.13v89.12m0-89.12h95.98m-95.98 89.12v89.13m0-89.13h95.98M768.252 4634.67v89.12m0-89.12h-95.979v89.12m95.979-89.12h95.979m-95.979 89.12v89.13m0-89.13h-95.979m95.979 0h95.979m-95.979 89.13v89.13m0-89.13h-95.979m95.979 0h95.979m-95.979 89.13v89.13m0-89.13h-95.979m95.979 0h95.979m-95.979 89.13v89.13m0-89.13h-95.979m95.979 0h95.979m-95.979 89.13v89.13m0-89.13h-95.979m95.979 0h95.979m-95.979 89.13v89.12m0-89.12h-95.979m95.979 0h95.979m-95.979 89.12v89.13m0-89.13h-95.979m95.979 0h95.979m-95.979 89.13v89.13m0-89.13h-95.979m95.979 0h95.979m-95.979 89.13v89.13m0-89.13h-95.979m95.979 0h95.979m-95.979 89.13v89.13m0-89.13h-95.979m95.979 0h95.979m-95.979 89.13v89.12m0-89.12h-95.979m95.979 0h95.979m-95.979 89.12v89.13m0-89.13h-95.979m95.979 0h95.979m-95.979 89.13h-95.979v-89.13m95.979 89.13h95.979M672.273 4723.79v89.13m0 0v89.13m0 0v89.13m0 0v89.13m0 0v89.13m0 0v89.12m0 0v89.13m0 0v89.13m0 0v89.13m0 0v89.13m0 0v89.12m191.958-1069.53v89.12m0-89.12h95.979m-95.979 89.12v89.13m0-89.13h95.979m-95.979 89.13v89.13m0-89.13h95.979m-95.979 89.13v89.13m0-89.13h95.979m-95.979 89.13v89.13m0-89.13h95.979m-95.979 89.13v89.13m0-89.13h95.979m-95.979 89.13v89.12m0-89.12h95.979m-95.979 89.12v89.13m0-89.13h95.979m-95.979 89.13v89.13m0-89.13h95.979m-95.979 89.13v89.13m0-89.13h95.979m-95.979 89.13v89.13m0-89.13h95.979m-95.979 89.13v89.12m0-89.12h95.979m-95.979 89.12v89.13m0-89.13h95.979m-95.979 89.13h95.979m0-1158.66v89.12m0-89.12h95.98m-95.98 89.12v89.13m0-89.13h95.98m-95.98 89.13v89.13m0-89.13h95.98m-95.98 89.13v89.13m0-89.13h95.98m-95.98 89.13v89.13m0-89.13h95.98m-95.98 89.13v89.13m0-89.13h95.98m-95.98 89.13v89.12m0-89.12h95.98m-95.98 89.12v89.13m0-89.13h95.98m-95.98 89.13v89.13m0-89.13h95.98m-95.98 89.13v89.13m0-89.13h95.98m-95.98 89.13v89.13m0-89.13h95.98m-95.98 89.13v89.12m0-89.12h95.98m-95.98 89.12v89.13m0-89.13h95.98m-95.98 89.13h95.98m0-1158.66v89.12m0-89.12h95.98m-95.98 89.12v89.13m0-89.13h95.98m-95.98 89.13v89.13m0-89.13h95.98m-95.98 89.13v89.13m0-89.13h95.98m-95.98 89.13v89.13m0-89.13h95.98m-95.98 89.13v89.13m0-89.13h95.98m-95.98 89.13v89.12m0-89.12h95.98m-95.98 89.12v89.13m0-89.13h95.98m-95.98 89.13v89.13m0-89.13h95.98m-95.98 89.13v89.13m0-89.13h95.98m-95.98 89.13v89.13m0-89.13h95.98m-95.98 89.13v89.12m0-89.12h95.98m-95.98 89.12v89.13m0-89.13h95.98m-95.98 89.13h95.98m191.96-1158.66v89.12m0-89.12h-95.98m95.98 0h95.97m-95.97 89.12v89.13m0-89.13h-95.98m95.98 0h95.97m-95.97 89.13v89.13m0-89.13h-95.98m95.98 0h95.97m-95.97 89.13v89.13m0-89.13h-95.98m95.98 0h95.97m-95.97 89.13v89.13m0-89.13h-95.98m95.98 0h95.97m-95.97 89.13v89.13m0-89.13h-95.98m95.98 0h95.97m-95.97 89.13v89.12m0-89.12h-95.98m95.98 0h95.97m-95.97 89.12v89.13m0-89.13h-95.98m95.98 0h95.97m-95.97 89.13v89.13m0-89.13h-95.98m95.98 0h95.97m-95.97 89.13v89.13m0-89.13h-95.98m95.98 0h95.97m-95.97 89.13v89.13m0-89.13h-95.98m95.98 0h95.97m-95.97 89.13v89.12m0-89.12h-95.98m95.98 0h95.97m-95.97 89.12v89.13m0-89.13h-95.98m95.98 0h95.97m-95.97 89.13h-95.98m95.98 0h95.97m191.96-1158.66v89.12m0-89.12h-95.98m95.98 0h95.98m-95.98 89.12v89.13m0-89.13h-95.98m95.98 0h95.98m-95.98 89.13v89.13m0-89.13h-95.98m95.98 0h95.98m-95.98 89.13v89.13m0-89.13h-95.98m95.98 0h95.98m-95.98 89.13v89.13m0-89.13h-95.98m95.98 0h95.98m-95.98 89.13v89.13m0-89.13h-95.98m95.98 0h95.98m-95.98 89.13v89.12m0-89.12h-95.98m95.98 0h95.98m-95.98 89.12v89.13m0-89.13h-95.98m95.98 0h95.98m-95.98 89.13v89.13m0-89.13h-95.98m95.98 0h95.98m-95.98 89.13v89.13m0-89.13h-95.98m95.98 0h95.98m-95.98 89.13v89.13m0-89.13h-95.98m95.98 0h95.98m-95.98 89.13v89.12m0-89.12h-95.98m95.98 0h95.98m-95.98 89.12v89.13m0-89.13h-95.98m95.98 0h95.98m-95.98 89.13h-95.98m95.98 0h95.98m-575.87-1158.66v89.12m0-89.12h95.98m-95.98 89.12v89.13m0-89.13h95.98m-95.98 89.13v89.13m0-89.13h95.98m-95.98 89.13v89.13m0-89.13h95.98m-95.98 89.13v89.13m0-89.13h95.98m-95.98 89.13v89.13m0-89.13h95.98m-95.98 89.13v89.12m0-89.12h95.98m-95.98 89.12v89.13m0-89.13h95.98m-95.98 89.13v89.13m0-89.13h95.98m-95.98 89.13v89.13m0-89.13h95.98m-95.98 89.13v89.13m0-89.13h95.98m-95.98 89.13v89.12m0-89.12h95.98m-95.98 89.12v89.13m0-89.13h95.98m-95.98 89.13h95.98m191.95-1158.66v89.12m0-89.12h95.98m-95.98 89.12v89.13m0-89.13h95.98m-95.98 89.13v89.13m0-89.13h95.98m-95.98 89.13v89.13m0-89.13h95.98m-95.98 89.13v89.13m0-89.13h95.98m-95.98 89.13v89.13m0-89.13h95.98m-95.98 89.13v89.12m0-89.12h95.98m-95.98 89.12v89.13m0-89.13h95.98m-95.98 89.13v89.13m0-89.13h95.98m-95.98 89.13v89.13m0-89.13h95.98m-95.98 89.13v89.13m0-89.13h95.98m-95.98 89.13v89.12m0-89.12h95.98m-95.98 89.12v89.13m0-89.13h95.98m-95.98 89.13h95.98m191.96-1158.66v89.12m0-89.12h95.98m-95.98 89.12v89.13m0-89.13h95.98m-95.98 89.13v89.13m0-89.13h95.98m-95.98 89.13v89.13m0-89.13h95.98m-95.98 89.13v89.13m0-89.13h95.98m-95.98 89.13v89.13m0-89.13h95.98m-95.98 89.13v89.12m0-89.12h95.98m-95.98 89.12v89.13m0-89.13h95.98m-95.98 89.13v89.13m0-89.13h95.98m-95.98 89.13v89.13m0-89.13h95.98m-95.98 89.13v89.13m0-89.13h95.98m-95.98 89.13v89.12m0-89.12h95.98m-95.98 89.12v89.13m0-89.13h95.98m-95.98 89.13h95.98m-575.87-1158.66v89.12m0 0v89.13m0 0v89.13m0 0v89.13m0 0v89.13m0 0v89.13m0 0v89.12m0 0v89.13m0 0v89.13m0 0v89.13m0 0v89.13m0 0v89.12m0 0v89.13m287.93-1158.66v89.12m0 0v89.13m0 0v89.13m0 0v89.13m0 0v89.13m0 0v89.13m0 0v89.12m0 0v89.13m0 0v89.13m0 0v89.13m0 0v89.13m0 0v89.12m0 0v89.13m287.94-1158.66v89.12m0-89.12H1920v1158.66h-95.98m0-1069.54v89.13m0-89.13H1920m-95.98 89.13v89.13m0-89.13H1920m-95.98 89.13v89.13m0-89.13H1920m-95.98 89.13v89.13m0-89.13H1920m-95.98 89.13v89.13m0-89.13H1920m-95.98 89.13v89.12m0-89.12H1920m-95.98 89.12v89.13m0-89.13H1920m-95.98 89.13v89.13m0-89.13H1920m-95.98 89.13v89.13m0-89.13H1920m-95.98 89.13v89.13m0-89.13H1920m-95.98 89.13v89.12m0-89.12H1920m-95.98 89.12v89.13m0-89.13H1920" stroke="url(#paint4_linear_431_790)"/><path d="M95.979 5793.33v89.13m0-89.13H0v89.13m95.979-89.13h95.979m-95.979 89.13v89.13m0-89.13H0m95.979 0h95.979m-95.979 89.13v89.13m0-89.13H0m95.979 0h95.979m-95.979 89.13v89.13m0-89.13H0m95.979 0h95.979m-95.979 89.13v89.12m0-89.12H0m95.979 0h95.979m-95.979 89.12v89.13m0-89.13H0m95.979 0h95.979m-95.979 89.13v89.13m0-89.13H0m95.979 0h95.979m-95.979 89.13v89.13m0-89.13H0m95.979 0h95.979m-95.979 89.13v89.13m0-89.13H0m95.979 0h95.979m-95.979 89.13v89.12m0-89.12H0m95.979 0h95.979m-95.979 89.12v89.13m0-89.13H0m95.979 0h95.979m-95.979 89.13v89.13m0-89.13H0m95.979 0h95.979m-95.979 89.13V6952m0-89.13H0m95.979 0h95.979M95.979 6952H0v-89.13M95.979 6952h95.979M0 5882.46v89.13m0 0v89.13m0 0v89.13m0 0v89.12m0 0v89.13m0 0v89.13m0 0v89.13m0 0v89.13m0 0v89.12m0 0v89.13m0 0v89.13m191.958-1069.54v89.13m0-89.13h95.979m-95.979 89.13v89.13m0-89.13h95.979m-95.979 89.13v89.13m0-89.13h95.979m-95.979 89.13v89.13m0-89.13h95.979m-95.979 89.13v89.12m0-89.12h95.979m-95.979 89.12v89.13m0-89.13h95.979m-95.979 89.13v89.13m0-89.13h95.979m-95.979 89.13v89.13m0-89.13h95.979m-95.979 89.13v89.13m0-89.13h95.979m-95.979 89.13v89.12m0-89.12h95.979m-95.979 89.12v89.13m0-89.13h95.979m-95.979 89.13v89.13m0-89.13h95.979m-95.979 89.13V6952m0-89.13h95.979M191.958 6952h95.979m0-1158.67v89.13m0-89.13h95.979m-95.979 89.13v89.13m0-89.13h95.979m-95.979 89.13v89.13m0-89.13h95.979m-95.979 89.13v89.13m0-89.13h95.979m-95.979 89.13v89.12m0-89.12h95.979m-95.979 89.12v89.13m0-89.13h95.979m-95.979 89.13v89.13m0-89.13h95.979m-95.979 89.13v89.13m0-89.13h95.979m-95.979 89.13v89.13m0-89.13h95.979m-95.979 89.13v89.12m0-89.12h95.979m-95.979 89.12v89.13m0-89.13h95.979m-95.979 89.13v89.13m0-89.13h95.979m-95.979 89.13V6952m0-89.13h95.979M287.937 6952h95.979m0-1158.67v89.13m0-89.13h95.979m-95.979 89.13v89.13m0-89.13h95.979m-95.979 89.13v89.13m0-89.13h95.979m-95.979 89.13v89.13m0-89.13h95.979m-95.979 89.13v89.12m0-89.12h95.979m-95.979 89.12v89.13m0-89.13h95.979m-95.979 89.13v89.13m0-89.13h95.979m-95.979 89.13v89.13m0-89.13h95.979m-95.979 89.13v89.13m0-89.13h95.979m-95.979 89.13v89.12m0-89.12h95.979m-95.979 89.12v89.13m0-89.13h95.979m-95.979 89.13v89.13m0-89.13h95.979m-95.979 89.13V6952m0-89.13h95.979M383.916 6952h95.979m191.958-1158.67v89.13m0-89.13h-95.979m95.979 0h95.979m-95.979 89.13v89.13m0-89.13h-95.979m95.979 0h95.979m-95.979 89.13v89.13m0-89.13h-95.979m95.979 0h95.979m-95.979 89.13v89.13m0-89.13h-95.979m95.979 0h95.979m-95.979 89.13v89.12m0-89.12h-95.979m95.979 0h95.979m-95.979 89.12v89.13m0-89.13h-95.979m95.979 0h95.979m-95.979 89.13v89.13m0-89.13h-95.979m95.979 0h95.979m-95.979 89.13v89.13m0-89.13h-95.979m95.979 0h95.979m-95.979 89.13v89.13m0-89.13h-95.979m95.979 0h95.979m-95.979 89.13v89.13m0-89.13h-95.979m95.979 0h95.979m-95.979 89.13v89.12m0-89.12l-95.979-.01m95.979.01h95.979m-95.979 89.12v89.13m0-89.13h-95.979m95.979 0h95.979m-95.979 89.13V6952m0-89.13h-95.979m95.979 0h95.979M671.853 6952h-95.979m95.979 0h95.979M959.79 5793.33v89.13m0-89.13h-95.979m95.979 0h95.98m-95.98 89.13v89.13m0-89.13h-95.979m95.979 0h95.98m-95.98 89.13v89.13m0-89.13h-95.979m95.979 0h95.98m-95.98 89.13v89.13m0-89.13h-95.979m95.979 0h95.98m-95.98 89.13v89.12m0-89.12h-95.979m95.979 0h95.98m-95.98 89.12v89.13m0-89.13h-95.979m95.979 0h95.98m-95.98 89.13v89.13m0-89.13h-95.979m95.979 0h95.98m-95.98 89.13v89.13m0-89.13h-95.979m95.979 0h95.98m-95.98 89.13v89.13m0-89.13h-95.979m95.979 0h95.98m-95.98 89.13v89.13m0-89.13h-95.979m95.979 0h95.98m-95.98 89.13v89.12m0-89.12h-95.979m95.979 0h95.98m-95.98 89.12v89.13m0-89.13h-95.979m95.979 0h95.98m-95.98 89.13V6952m0-89.13h-95.979m95.979 0h95.98M959.79 6952h-95.979m95.979 0h95.98M479.895 5793.33v89.13m0-89.13h95.979m-95.979 89.13v89.13m0-89.13h95.979m-95.979 89.13v89.13m0-89.13h95.979m-95.979 89.13v89.13m0-89.13h95.979m-95.979 89.13v89.12m0-89.12h95.979m-95.979 89.12v89.13m0-89.13h95.979m-95.979 89.13v89.13m0-89.13h95.979m-95.979 89.13v89.13m0-89.13h95.979m-95.979 89.13v89.13m0-89.13h95.979m-95.979 89.13v89.12m0-89.12h95.979m-95.979 89.12v89.13m0-89.13h95.979m-95.979 89.13v89.13m0-89.13h95.979m-95.979 89.13V6952m0-89.13h95.979M479.895 6952h95.979m191.958-1158.67v89.13m0-89.13h95.979m-95.979 89.13v89.13m0-89.13h95.979m-95.979 89.13v89.13m0-89.13h95.979m-95.979 89.13v89.13m0-89.13h95.979m-95.979 89.13v89.12m0-89.12h95.979m-95.979 89.12v89.13m0-89.13h95.979m-95.979 89.13v89.13m0-89.13h95.979m-95.979 89.13v89.13m0-89.13h95.979m-95.979 89.13v89.13m0-89.13h95.979m-95.979 89.13v89.13m0-89.13h95.979m-95.979 89.13v89.12m0-89.12h95.979m-95.979 89.12v89.13m0-89.13h95.979m-95.979 89.13V6952m0-89.13h95.979M767.832 6952h95.979m191.959-1158.67v89.13m0-89.13h95.98m-95.98 89.13v89.13m0-89.13h95.98m-95.98 89.13v89.13m0-89.13h95.98m-95.98 89.13v89.13m0-89.13h95.98m-95.98 89.13v89.12m0-89.12h95.98m-95.98 89.12v89.13m0-89.13h95.98m-95.98 89.13v89.13m0-89.13h95.98m-95.98 89.13v89.13m0-89.13h95.98m-95.98 89.13v89.13m0-89.13h95.98m-95.98 89.13v89.13m0-89.13h95.98m-95.98 89.13v89.12m0-89.12h95.98m-95.98 89.12v89.13m0-89.13h95.98m-95.98 89.13V6952m0-89.13h95.98m-95.98 89.13h95.98M575.874 5793.33v89.13m0 0v89.13m0 0v89.13m0 0v89.13m0 0v89.12m0 0v89.13m0 0v89.13m0 0v89.13m0 0v89.13m0 0v89.12m0 0v89.13m0 0v89.13m0 0V6952m287.937-1158.67v89.13m0 0v89.13m0 0v89.13m0 0v89.13m0 0v89.12m0 0v89.13m0 0v89.13m0 0v89.13m0 0v89.13m0 0v89.13m0 0v89.12m0 0v89.13m0 0V6952m287.939-1158.67v89.13m0-89.13h95.98V6952h-95.98m0-1069.54v89.13m0-89.13h95.98m-95.98 89.13v89.13m0-89.13h95.98m-95.98 89.13v89.13m0-89.13h95.98m-95.98 89.13v89.12m0-89.12h95.98m-95.98 89.12v89.13m0-89.13h95.98m-95.98 89.13v89.13m0-89.13h95.98m-95.98 89.13v89.13m0-89.13h95.98m-95.98 89.13v89.13m0-89.13h95.98m-95.98 89.13v89.13m0-89.13h95.98m-95.98 89.13v89.12m0-89.12h95.98m-95.98 89.12v89.13m0-89.13h95.98m-95.98 89.13V6952m0-89.13h95.98M768.252 5793.33v89.13m0-89.13h-95.979v89.13m95.979-89.13h95.979m-95.979 89.13v89.13m0-89.13h-95.979m95.979 0h95.979m-95.979 89.13v89.13m0-89.13h-95.979m95.979 0h95.979m-95.979 89.13v89.13m0-89.13h-95.979m95.979 0h95.979m-95.979 89.13v89.12m0-89.12h-95.979m95.979 0h95.979m-95.979 89.12v89.13m0-89.13h-95.979m95.979 0h95.979m-95.979 89.13v89.13m0-89.13h-95.979m95.979 0h95.979m-95.979 89.13v89.13m0-89.13h-95.979m95.979 0h95.979m-95.979 89.13v89.13m0-89.13h-95.979m95.979 0h95.979m-95.979 89.13v89.12m0-89.12h-95.979m95.979 0h95.979m-95.979 89.12v89.13m0-89.13h-95.979m95.979 0h95.979m-95.979 89.13v89.13m0-89.13h-95.979m95.979 0h95.979m-95.979 89.13V6952m0-89.13h-95.979m95.979 0h95.979M768.252 6952h-95.979v-89.13m95.979 89.13h95.979M672.273 5882.46v89.13m0 0v89.13m0 0v89.13m0 0v89.12m0 0v89.13m0 0v89.13m0 0v89.13m0 0v89.13m0 0v89.12m0 0v89.13m0 0v89.13m191.958-1069.54v89.13m0-89.13h95.979m-95.979 89.13v89.13m0-89.13h95.979m-95.979 89.13v89.13m0-89.13h95.979m-95.979 89.13v89.13m0-89.13h95.979m-95.979 89.13v89.12m0-89.12h95.979m-95.979 89.12v89.13m0-89.13h95.979m-95.979 89.13v89.13m0-89.13h95.979m-95.979 89.13v89.13m0-89.13h95.979m-95.979 89.13v89.13m0-89.13h95.979m-95.979 89.13v89.12m0-89.12h95.979m-95.979 89.12v89.13m0-89.13h95.979m-95.979 89.13v89.13m0-89.13h95.979m-95.979 89.13V6952m0-89.13h95.979M864.231 6952h95.979m0-1158.67v89.13m0-89.13h95.98m-95.98 89.13v89.13m0-89.13h95.98m-95.98 89.13v89.13m0-89.13h95.98m-95.98 89.13v89.13m0-89.13h95.98m-95.98 89.13v89.12m0-89.12h95.98m-95.98 89.12v89.13m0-89.13h95.98m-95.98 89.13v89.13m0-89.13h95.98m-95.98 89.13v89.13m0-89.13h95.98m-95.98 89.13v89.13m0-89.13h95.98m-95.98 89.13v89.12m0-89.12h95.98m-95.98 89.12v89.13m0-89.13h95.98m-95.98 89.13v89.13m0-89.13h95.98m-95.98 89.13V6952m0-89.13h95.98M960.21 6952h95.98m0-1158.67v89.13m0-89.13h95.98m-95.98 89.13v89.13m0-89.13h95.98m-95.98 89.13v89.13m0-89.13h95.98m-95.98 89.13v89.13m0-89.13h95.98m-95.98 89.13v89.12m0-89.12h95.98m-95.98 89.12v89.13m0-89.13h95.98m-95.98 89.13v89.13m0-89.13h95.98m-95.98 89.13v89.13m0-89.13h95.98m-95.98 89.13v89.13m0-89.13h95.98m-95.98 89.13v89.12m0-89.12h95.98m-95.98 89.12v89.13m0-89.13h95.98m-95.98 89.13v89.13m0-89.13h95.98m-95.98 89.13V6952m0-89.13h95.98m-95.98 89.13h95.98m191.96-1158.67v89.13m0-89.13h-95.98m95.98 0h95.97m-95.97 89.13v89.13m0-89.13h-95.98m95.98 0h95.97m-95.97 89.13v89.13m0-89.13h-95.98m95.98 0h95.97m-95.97 89.13v89.13m0-89.13h-95.98m95.98 0h95.97m-95.97 89.13v89.12m0-89.12h-95.98m95.98 0h95.97m-95.97 89.12v89.13m0-89.13h-95.98m95.98 0h95.97m-95.97 89.13v89.13m0-89.13h-95.98m95.98 0h95.97m-95.97 89.13v89.13m0-89.13h-95.98m95.98 0h95.97m-95.97 89.13v89.13m0-89.13h-95.98m95.98 0h95.97m-95.97 89.13v89.13m0-89.13h-95.98m95.98 0h95.97m-95.97 89.13v89.12m0-89.12l-95.98-.01m95.98.01h95.97m-95.97 89.12v89.13m0-89.13h-95.98m95.98 0h95.97m-95.97 89.13V6952m0-89.13h-95.98m95.98 0h95.97m-95.97 89.13h-95.98m95.98 0h95.97m191.96-1158.67v89.13m0-89.13h-95.98m95.98 0h95.98m-95.98 89.13v89.13m0-89.13h-95.98m95.98 0h95.98m-95.98 89.13v89.13m0-89.13h-95.98m95.98 0h95.98m-95.98 89.13v89.13m0-89.13h-95.98m95.98 0h95.98m-95.98 89.13v89.12m0-89.12h-95.98m95.98 0h95.98m-95.98 89.12v89.13m0-89.13h-95.98m95.98 0h95.98m-95.98 89.13v89.13m0-89.13h-95.98m95.98 0h95.98m-95.98 89.13v89.13m0-89.13h-95.98m95.98 0h95.98m-95.98 89.13v89.13m0-89.13h-95.98m95.98 0h95.98m-95.98 89.13v89.13m0-89.13h-95.98m95.98 0h95.98m-95.98 89.13v89.12m0-89.12h-95.98m95.98 0h95.98m-95.98 89.12v89.13m0-89.13h-95.98m95.98 0h95.98m-95.98 89.13V6952m0-89.13h-95.98m95.98 0h95.98m-95.98 89.13h-95.98m95.98 0h95.98m-575.87-1158.67v89.13m0-89.13h95.98m-95.98 89.13v89.13m0-89.13h95.98m-95.98 89.13v89.13m0-89.13h95.98m-95.98 89.13v89.13m0-89.13h95.98m-95.98 89.13v89.12m0-89.12h95.98m-95.98 89.12v89.13m0-89.13h95.98m-95.98 89.13v89.13m0-89.13h95.98m-95.98 89.13v89.13m0-89.13h95.98m-95.98 89.13v89.13m0-89.13h95.98m-95.98 89.13v89.12m0-89.12h95.98m-95.98 89.12v89.13m0-89.13h95.98m-95.98 89.13v89.13m0-89.13h95.98m-95.98 89.13V6952m0-89.13h95.98m-95.98 89.13h95.98m191.95-1158.67v89.13m0-89.13h95.98m-95.98 89.13v89.13m0-89.13h95.98m-95.98 89.13v89.13m0-89.13h95.98m-95.98 89.13v89.13m0-89.13h95.98m-95.98 89.13v89.12m0-89.12h95.98m-95.98 89.12v89.13m0-89.13h95.98m-95.98 89.13v89.13m0-89.13h95.98m-95.98 89.13v89.13m0-89.13h95.98m-95.98 89.13v89.13m0-89.13h95.98m-95.98 89.13v89.13m0-89.13h95.98m-95.98 89.13v89.12m0-89.12h95.98m-95.98 89.12v89.13m0-89.13h95.98m-95.98 89.13V6952m0-89.13h95.98M1440.1 6952h95.98m191.96-1158.67v89.13m0-89.13h95.98m-95.98 89.13v89.13m0-89.13h95.98m-95.98 89.13v89.13m0-89.13h95.98m-95.98 89.13v89.13m0-89.13h95.98m-95.98 89.13v89.12m0-89.12h95.98m-95.98 89.12v89.13m0-89.13h95.98m-95.98 89.13v89.13m0-89.13h95.98m-95.98 89.13v89.13m0-89.13h95.98m-95.98 89.13v89.13m0-89.13h95.98m-95.98 89.13v89.13m0-89.13h95.98m-95.98 89.13v89.12m0-89.12h95.98m-95.98 89.12v89.13m0-89.13h95.98m-95.98 89.13V6952m0-89.13h95.98m-95.98 89.13h95.98m-575.87-1158.67v89.13m0 0v89.13m0 0v89.13m0 0v89.13m0 0v89.12m0 0v89.13m0 0v89.13m0 0v89.13m0 0v89.13m0 0v89.12m0 0v89.13m0 0v89.13m0 0V6952m287.93-1158.67v89.13m0 0v89.13m0 0v89.13m0 0v89.13m0 0v89.12m0 0v89.13m0 0v89.13m0 0v89.13m0 0v89.13m0 0v89.13m0 0v89.12m0 0v89.13m0 0V6952m287.94-1158.67v89.13m0-89.13H1920V6952h-95.98m0-1069.54v89.13m0-89.13H1920m-95.98 89.13v89.13m0-89.13H1920m-95.98 89.13v89.13m0-89.13H1920m-95.98 89.13v89.12m0-89.12H1920m-95.98 89.12v89.13m0-89.13H1920m-95.98 89.13v89.13m0-89.13H1920m-95.98 89.13v89.13m0-89.13H1920m-95.98 89.13v89.13m0-89.13H1920m-95.98 89.13v89.13m0-89.13H1920m-95.98 89.13v89.12m0-89.12H1920m-95.98 89.12v89.13m0-89.13H1920m-95.98 89.13V6952m0-89.13H1920" stroke="url(#paint5_linear_431_790)"/></g><defs><linearGradient id="paint0_linear_431_790" x1="0" y1="0" x2="1822.76" y2="1240.39" gradientUnits="userSpaceOnUse"><stop stop-color="#fff" stop-opacity=".2"/><stop offset="1" stop-color="#fff" stop-opacity="0"/></linearGradient><linearGradient id="paint1_linear_431_790" x1="0" y1="1158.67" x2="1822.76" y2="2399.06" gradientUnits="userSpaceOnUse"><stop stop-color="#fff" stop-opacity=".2"/><stop offset="1" stop-color="#fff" stop-opacity="0"/></linearGradient><linearGradient id="paint2_linear_431_790" x1="0" y1="2317.33" x2="1822.76" y2="3557.73" gradientUnits="userSpaceOnUse"><stop stop-color="#fff" stop-opacity=".2"/><stop offset="1" stop-color="#fff" stop-opacity="0"/></linearGradient><linearGradient id="paint3_linear_431_790" x1="0" y1="3476" x2="1822.76" y2="4716.39" gradientUnits="userSpaceOnUse"><stop stop-color="#fff" stop-opacity=".2"/><stop offset="1" stop-color="#fff" stop-opacity="0"/></linearGradient><linearGradient id="paint4_linear_431_790" x1="0" y1="4634.67" x2="1822.76" y2="5875.06" gradientUnits="userSpaceOnUse"><stop stop-color="#fff" stop-opacity=".2"/><stop offset="1" stop-color="#fff" stop-opacity="0"/></linearGradient><linearGradient id="paint5_linear_431_790" x1="0" y1="5793.33" x2="1822.76" y2="7033.73" gradientUnits="userSpaceOnUse"><stop stop-color="#fff" stop-opacity=".2"/><stop offset="1" stop-color="#fff" stop-opacity="0"/></linearGradient></defs></svg>